<?xml version="1.0" standalone="no"?>
<!DOCTYPE svg PUBLIC "-//W3C//DTD SVG 1.1//EN" "http://www.w3.org/Graphics/SVG/1.1/DTD/svg11.dtd" >
<svg>
<metadata>
Created by FontForge 20110222 at Sat Aug 16 03:26:31 2014
 By Orthosie Webhosting
Typeface (c) The scict.ir Corporation plc. Data (c) The scict.ir Corporation plc/Type Solutions Inc. 2012-2013. All Rights Reserved.Modify  by Hossein Zahedi.
</metadata>
<defs>
<font id="IRRoyaBold" horiz-adv-x="0" >
  <font-face 
    font-family="IRRoyaBold"
    font-weight="700"
    font-stretch="normal"
    units-per-em="2048"
    panose-1="2 0 8 6 0 0 0 2 0 2"
    ascent="1638"
    descent="-410"
    x-height="793"
    cap-height="1150"
    bbox="-431 -1120 2880 1937"
    underline-thickness="60"
    underline-position="-40"
    unicode-range="U+0020-FFFC"
  />
<missing-glyph horiz-adv-x="1063" 
 />
    <glyph glyph-name="afii64184" unicode="&#xfedf;&#xfee0;&#x651;&#x670;&#xfeea;" horiz-adv-x="1497" arabic-form="isolated" 
d="M1081 1523l-15 -237l-67 -29l-14 229zM1256 1272q6 -52 6 -97q0 -218 -146 -218q-64 0 -93 62q-55 -94 -143 -94q-93 0 -93 114q0 71 43 142h80q-31 -70 -31 -94q0 -29 36 -29q65 0 76 145l86 31q0 -70 2 -84q8 -58 45 -58q52 0 52 62q0 30 -10 87zM1495 280
q0 -121 -62 -203q-68 -91 -185 -91q-160 0 -239 114q-71 -137 -220 -137q-100 0 -168 52q-71 53 -91 150q-57 -40 -198 -40q-69 0 -118 50t-49 119q0 118 158 234q83 61 183 105v111l161 130q5 -176 9 -435q2 -125 23 -171q25 -55 93 -55q107 0 107 169v434l192 85v-387
q0 -133 15 -183q30 -101 128 -101q34 0 56 34q19 29 19 65q0 223 -45 541l199 115q32 -425 32 -705zM514 337l-4 139q-44 -9 -100 -44q-64 -40 -64 -75q0 -34 102 -34q48 0 66 14z" />
    <glyph glyph-name="afii62834" unicode="&#xfedf;&#xfe82;" horiz-adv-x="1036" arabic-form="isolated" 
d="M976 1236q12 -107 12 -228q0 -389 -122 -556q76 -146 76 -264q0 -213 -319 -213q-95 0 -194 21q-88 19 -113 38l39 204q23 -12 51 -12q74 0 160 71q81 66 111 139q-64 107 -215 236q-166 142 -333 217l44 267q172 -75 355 -267q136 -142 222 -283q28 54 28 244
q0 137 -13 303zM801 240q0 42 -36 91q-32 -36 -125 -110q34 -13 85 -14q76 -1 76 33zM655 1415q-39 -71 -112 -111q-65 -36 -131 -36q-40 0 -118 14t-117 14q-82 0 -137 -55l-71 97q79 100 186 100q38 0 114.5 -12.5t115.5 -12.5q143 0 221 97z" />
    <glyph glyph-name="afii62835" unicode="&#xfee0;&#xfe82;" horiz-adv-x="1227" arabic-form="final" 
d="M1227 0h-63q-232 1 -278 404q-34 -179 -178 -308q-148 -133 -328 -133l-153 163q117 0 259 58q168 67 195 161q2 7 2 15q0 105 -227 288q-188 151 -328 214l44 258q205 -104 394 -308q177 -191 214 -327q16 77 16 223q0 192 -24 443l223 82v-242q0 -382 43 -561
q47 -195 161 -195h28v-235zM655 1393q-39 -71 -112 -111q-65 -36 -131 -36q-40 0 -118 14t-117 14q-82 0 -137 -55l-71 97q79 100 186 100q38 0 114.5 -12.5t115.5 -12.5q143 0 221 97z" />
    <glyph glyph-name="afii62836" unicode="&#xfedf;&#xfe84;" horiz-adv-x="995" arabic-form="isolated" 
d="M935 1236q12 -107 12 -228q0 -389 -122 -556q76 -146 76 -264q0 -213 -319 -213q-95 0 -194 21q-88 19 -113 38l39 204q23 -12 51 -12q74 0 160 71q81 66 111 139q-64 107 -215 236q-166 142 -333 217l44 267q172 -75 355 -267q136 -142 222 -283q28 54 28 244
q0 137 -13 303zM760 240q0 42 -36 91q-32 -36 -125 -110q34 -13 85 -14q76 -1 76 33zM415 1362l-417 -122l5 66l99 53q-52 51 -52 103q0 61 50 111t111 50q80 0 125 -43l-25 -64q-39 16 -103 16q-26 0 -54 -14q-33 -17 -33 -40q0 -70 123 -70q16 0 167 46z" />
    <glyph glyph-name="afii62837" unicode="&#xfee0;&#xfe84;" horiz-adv-x="1187" arabic-form="final" 
d="M1187 0h-63q-232 1 -278 404q-34 -179 -178 -308q-148 -133 -328 -133l-153 163q117 0 259 58q168 67 195 161q2 7 2 15q0 105 -227 288q-188 151 -328 214l44 258q205 -104 394 -308q177 -191 214 -327q16 77 16 223q0 192 -24 443l223 82v-242q0 -382 43 -561
q47 -195 161 -195h28v-235zM429 1311l-417 -122l5 66l99 53q-52 51 -52 103q0 61 50 111t111 50q80 0 125 -43l-25 -64q-39 16 -103 16q-26 0 -54 -14q-33 -17 -33 -40q0 -70 123 -70q16 0 167 46z" />
    <glyph glyph-name="afii62838" unicode="&#xfedf;&#xfe88;" horiz-adv-x="1008" arabic-form="isolated" 
d="M948 1236q12 -107 12 -228q0 -389 -122 -556q76 -146 76 -264q0 -213 -319 -213q-95 0 -194 21q-88 19 -113 38l39 204q23 -12 51 -12q74 0 160 71q81 66 111 139q-64 107 -215 236q-166 142 -333 217l44 267q172 -75 355 -267q136 -142 222 -283q28 54 28 244
q0 137 -13 303zM773 240q0 42 -36 91q-32 -36 -125 -110q34 -13 85 -14q76 -1 76 33zM617 -393l-417 -122l5 66l99 53q-52 51 -52 103q0 61 50 111t111 50q80 0 125 -43l-25 -64q-39 16 -103 16q-26 0 -54 -14q-33 -17 -33 -40q0 -70 123 -70q16 0 167 46z" />
    <glyph glyph-name="afii62839" unicode="&#xfee0;&#xfe88;" horiz-adv-x="1187" arabic-form="final" 
d="M1187 0h-63q-232 1 -278 404q-34 -179 -178 -308q-148 -133 -328 -133l-153 163q117 0 259 58q168 67 195 161q2 7 2 15q0 105 -227 288q-188 151 -328 214l44 258q205 -104 394 -308q177 -191 214 -327q16 77 16 223q0 192 -24 443l223 82v-242q0 -382 43 -561
q47 -195 161 -195h28v-235zM621 -397l-417 -122l5 66l99 53q-52 51 -52 103q0 61 50 111t111 50q80 0 125 -43l-25 -64q-39 16 -103 16q-26 0 -54 -14q-33 -17 -33 -40q0 -70 123 -70q16 0 167 46z" />
    <glyph glyph-name="afii62840" unicode="&#xfedf;&#xfe8e;" horiz-adv-x="995" arabic-form="isolated" 
d="M935 1236q12 -107 12 -228q0 -389 -122 -556q76 -146 76 -264q0 -213 -319 -213q-95 0 -194 21q-88 19 -113 38l39 204q23 -12 51 -12q74 0 160 71q81 66 111 139q-64 107 -215 236q-166 142 -333 217l44 267q172 -75 355 -267q136 -142 222 -283q28 54 28 244
q0 137 -13 303zM760 240q0 42 -36 91q-32 -36 -125 -110q34 -13 85 -14q76 -1 76 33z" />
    <glyph glyph-name="afii62841" unicode="&#xfee0;&#xfe8e;" horiz-adv-x="1187" arabic-form="final" 
d="M1187 0h-63q-232 1 -278 404q-34 -179 -178 -308q-148 -133 -328 -133l-153 163q117 0 259 58q168 67 195 161q2 7 2 15q0 105 -227 288q-188 151 -328 214l44 258q205 -104 394 -308q177 -191 214 -327q16 77 16 223q0 192 -24 443l223 82v-242q0 -382 43 -561
q47 -195 161 -195h28v-235z" />
    <glyph glyph-name="uni0672.fina" unicode="&#x672;" horiz-adv-x="561" 
d="M561 0h-38q-209 1 -282 138q-47 88 -54 309l-22 704l204 82v-814q0 -184 147 -184h45v-235zM292 1464q4 2 -14 20t-38 25q-15 4 -42 -10.5t-35 -42.5q7 -31 30 -44.5t54.5 -16.5t65 2.5t60.5 12.5q12 3 6 -12.5t-19 -40.5q-52 -38 -166.5 -46t-134.5 -55q-11 -4 -9 12.5
t6 26.5q17 39 73 45.5t80 17.5q-25 1 -58.5 18.5t-27.5 66.5q1 38 21.5 68.5t49.5 47t65.5 12.5t70.5 -36q10 -16 -1.5 -33.5t-36.5 -37.5z" />
    <glyph glyph-name="uni0673.fina" unicode="&#x673;" horiz-adv-x="561" 
d="M561 0h-38q-209 1 -282 138q-47 88 -54 309l-22 704l204 82v-814q0 -184 147 -184h45v-235zM366 -222q4 2 -14 20t-38 25q-15 4 -42 -10.5t-35 -42.5q7 -31 30 -44.5t54.5 -16.5t65 2.5t60.5 12.5q12 3 6 -12.5t-19 -40.5q-52 -38 -166.5 -46t-134.5 -55q-11 -4 -9 12.5
t6 26.5q17 39 73 45.5t80 17.5q-25 1 -58.5 18.5t-27.5 66.5q1 38 21.5 68.5t49.5 47t65.5 12.5t70.5 -36q10 -16 -1.5 -33.5t-36.5 -37.5z" />
    <glyph glyph-name="uni0675.fina" unicode="&#x675;" horiz-adv-x="561" 
d="M561 0h-38q-209 1 -282 138q-47 88 -54 309l-22 704l204 82v-814q0 -184 147 -184h45v-235zM455 1415l-417 -122l5 66l99 53q-52 51 -52 103q0 61 50 111t111 50q80 0 125 -43l-25 -64q-39 16 -103 16q-26 0 -54 -14q-33 -17 -33 -40q0 -70 123 -70q16 0 167 46z" />
    <glyph glyph-name="uni0676.fina" unicode="&#x676;" horiz-adv-x="745" 
d="M745 0h-77q-37 -160 -187 -304q-136 -130 -305 -196l-147 139q142 53 287 157q157 113 191 201q-164 0 -235 35q-105 51 -105 195q0 94 54 198q67 130 171 130q123 0 200 -109q62 -87 78 -211h75v-235zM511 234q-5 45 -38 85q-37 43 -80 43q-29 0 -55.5 -26t-26.5 -55
q0 -60 99 -60q47 0 101 13zM567 779l-417 -122l5 66l99 53q-52 51 -52 103q0 61 50 111t111 50q80 0 125 -43l-25 -64q-39 16 -103 16q-26 0 -54 -14q-33 -17 -33 -40q0 -70 123 -70q16 0 167 46z" />
    <glyph glyph-name="uni0677.fina" unicode="&#x677;" horiz-adv-x="840" 
d="M840 0h-77q-37 -160 -187 -304q-136 -130 -305 -196l-147 139q142 53 287 157q157 113 191 201q-164 0 -235 35q-105 51 -105 195q0 94 54 198q67 130 171 130q123 0 200 -109q62 -87 78 -211h75v-235zM606 234q-5 45 -38 85q-37 43 -80 43q-29 0 -55.5 -26t-26.5 -55
q0 -60 99 -60q47 0 101 13zM829.538 826.312l-379.001 -110.973l4.54492 60.0342l89.9785 48.209q-47.2617 46.3906 -47.2617 93.6895q0 55.4863 45.4434 100.967q45.4443 45.4805 100.886 45.4805q72.71 0 113.608 -39.1133l-22.7217 -58.2148
q-35.4463 14.5537 -93.6143 14.5537q-23.6299 0 -49.0791 -12.7344q-29.9922 -15.4629 -29.9922 -36.3848q0 -63.6719 111.791 -63.6719q14.542 0 151.782 41.8418zM427.343 960.998q0 -84.4912 -79.7393 -149.604l51.0947 -35.6572l-37.9346 -41.083
q-24.7734 14.7285 -54.1914 48.0596q-106.062 -74.4141 -239.219 -102.319l-23.999 51.1602q146.317 47.2832 206.703 97.668q-32.5146 46.5088 -32.5146 72.0889q0 45.7334 37.9336 93.4053q37.9346 47.6709 82.0625 47.6709q35.6113 0 62.707 -23.2539
q27.0967 -23.2549 27.0967 -58.1357zM369.279 936.968q0 43.4082 -50.3203 43.4082q-20.1289 0 -39.4824 -23.2539q-19.3545 -23.2549 -19.3545 -44.1836q0 -36.4316 47.2236 -58.9111q61.9336 43.4082 61.9336 82.9404z" />
    <glyph glyph-name="uni0678.fina" unicode="&#x678;" horiz-adv-x="1240" 
d="M1240 0h-29q-65 5 -214 15q-29 2 -40 2q-100 0 -100 -30q0 -19 40 -25q71 -11 213 -32q111 -31 111 -117q0 -106 -149 -211q-177 -124 -435 -124q-279 0 -409 140q-104 112 -104 300q0 158 94 320l156 -55q-21 -35 -41 -104q-22 -72 -22 -109q0 -256 338 -256
q236 0 350 47q35 14 35 26q0 11 -30 15q-22 3 -189 22q-146 35 -146 132q0 139 183 218q143 61 303 61h85v-235zM768 558l-417 -122l5 66l99 53q-52 51 -52 103q0 61 50 111t111 50q80 0 125 -43l-25 -64q-39 16 -103 16q-26 0 -54 -14q-33 -17 -33 -40q0 -70 123 -70
q16 0 167 46z" />
    <glyph glyph-name="uni067C.init" unicode="&#x67c;" horiz-adv-x="436" 
d="M388 328q0 -160 -99 -246q-94 -81 -258 -82h-101v235h201q105 0 105 52q0 32 -46 91l-69 88l132 190q135 -135 135 -328zM422 913l-110 -149l-136 96l-80 -112l-172 117l110 149l144 -99l79 112zM366 -78q0 -68 -42 -117q-45 -51 -112 -51q-58 0 -96 37t-38 94
q0 97 47 154q37 47 82 47q50 0 101 -42q58 -50 58 -122zM302 -86q0 41 -33 67q-30 24 -73 24q-21 0 -41 -31.5t-20 -54.5q0 -73 79 -73q33 0 59 17q29 19 29 51z" />
    <glyph glyph-name="uni067C.medi" unicode="&#x67c;" horiz-adv-x="509" 
d="M509 0h-19q-144 1 -190 106q-75 -105 -239 -106h-131v235h123q154 0 154 107v80l167 55v-50q0 -192 124 -192h11v-235zM478 783l-110 -149l-136 96l-80 -112l-172 117l110 149l144 -99l79 112zM304 -96q0 -68 -42 -117q-45 -51 -112 -51q-58 0 -96 37t-38 94q0 97 47 154
q37 47 82 47q50 0 101 -42q58 -50 58 -122zM240 -104q0 41 -33 67q-30 24 -73 24q-21 0 -41 -31.5t-20 -54.5q0 -73 79 -73q33 0 59 17q29 19 29 51z" />
    <glyph glyph-name="uni067C.fina" unicode="&#x67c;" horiz-adv-x="1733" 
d="M1733 0h-39q-152 1 -209 119q-77 -102 -342 -147q-175 -30 -384 -30q-594 0 -594 349q0 104 77 257l151 -47q-44 -96 -44 -137q0 -85 65 -126q96 -60 356 -60h88q214 0 315 15q238 35 238 149v52l167 55v-48q0 -94 29 -128q32 -38 123 -38h3v-235zM1145 838l-110 -149
l-136 96l-80 -112l-172 117l110 149l144 -99l79 112zM1014 -138q0 -68 -42 -117q-45 -51 -112 -51q-58 0 -96 37t-38 94q0 97 47 154q37 47 82 47q50 0 101 -42q58 -50 58 -122zM950 -146q0 41 -33 67q-30 24 -73 24q-21 0 -41 -31.5t-20 -54.5q0 -73 79 -73q33 0 59 17
q29 19 29 51z" />
    <glyph glyph-name="uni067D.init" unicode="&#x67d;" horiz-adv-x="436" 
d="M388 328q0 -160 -99 -246q-94 -81 -258 -82h-101v235h201q105 0 105 52q0 32 -46 91l-69 88l132 190q135 -135 135 -328zM399 1114l-102 -140l-133 89l-77 -104l-157 104l107 139l133 -88l72 105zM325 869l-103 -137l-144 98l101 136z" />
    <glyph glyph-name="uni067D.medi" unicode="&#x67d;" horiz-adv-x="509" 
d="M509 0h-19q-144 1 -190 106q-75 -105 -239 -106h-131v235h123q154 0 154 107v80l167 55v-50q0 -192 124 -192h11v-235zM479 934l-102 -140l-133 89l-77 -104l-157 104l107 139l133 -88l72 105zM405 689l-103 -137l-144 98l101 136z" />
    <glyph glyph-name="uni067D.fina" unicode="&#x67d;" horiz-adv-x="1733" 
d="M1733 0h-39q-152 1 -209 119q-77 -102 -342 -147q-175 -30 -384 -30q-594 0 -594 349q0 104 77 257l151 -47q-44 -96 -44 -137q0 -85 65 -126q96 -60 356 -60h88q214 0 315 15q238 35 238 149v52l167 55v-48q0 -94 29 -128q32 -38 123 -38h3v-235zM1102 945l-102 -140
l-133 89l-77 -104l-157 104l107 139l133 -88l72 105zM1028 700l-103 -137l-144 98l101 136z" />
    <glyph glyph-name="uni0681.init" unicode="&#x681;" horiz-adv-x="1081" 
d="M1078 516l-27 -210q-126 0 -267 -79q-85 -51 -259 -147q-156 -79 -357 -79h-238v234h235q150 0 286 46q15 5 221 80q-35 4 -174 45q-128 38 -157 38q-38 0 -64 -27q-18 -24 -37 -47q-91 36 -152 71q91 219 220 219q85 0 320.5 -74t366.5 -74q42 0 83 4zM804 883
l-417 -122l5 66l99 53q-52 51 -52 103q0 61 50 111t111 50q80 0 125 -43l-25 -64q-39 16 -103 16q-26 0 -54 -14q-33 -17 -33 -40q0 -70 123 -70q16 0 167 46z" />
    <glyph glyph-name="uni0681.medi" unicode="&#x681;" horiz-adv-x="1208" 
d="M1208 1h-198q-235 0 -240 292q-60 -33 -181 -127q-106 -82 -178 -115q-108 -50 -237 -50h-244v234h213q150 0 274 63q68 37 205 110q-39 4 -157 25q-107 19 -124 19q-43 0 -96 -82q-95 39 -151 71q96 239 220 239q107 0 334 -53t344 -53q59 0 111 6l-27 -227
q-98 0 -186 -27q10 -42 29 -59q36 -32 124 -32h165v-234zM829 911l-417 -122l5 66l99 53q-52 51 -52 103q0 61 50 111t111 50q80 0 125 -43l-25 -64q-39 16 -103 16q-26 0 -54 -14q-33 -17 -33 -40q0 -70 123 -70q16 0 167 46z" />
    <glyph glyph-name="uni0681.fina" unicode="&#x681;" horiz-adv-x="1318" 
d="M1318 1h-212q-235 0 -231 322q-197 -63 -341 -196q-154 -143 -154 -289q0 -344 514 -344q188 0 324 45l64 -201q-203 -77 -421 -77q-311 0 -487 117q-209 139 -209 433q0 187 163 357q129 135 324 226q-177 22 -220 22q-47 0 -96 -79q-99 41 -154 74q95 236 222 236
q97 0 295 -22.5t298 -22.5q109 0 197 10l-28 -240q-81 0 -170 -16q7 -51 23 -74q33 -47 120 -47h179v-234zM903 871l-417 -122l5 66l99 53q-52 51 -52 103q0 61 50 111t111 50q80 0 125 -43l-25 -64q-39 16 -103 16q-26 0 -54 -14q-33 -17 -33 -40q0 -70 123 -70
q16 0 167 46z" />
    <glyph glyph-name="uni0682.init" unicode="&#x682;" horiz-adv-x="1081" 
d="M1078 516l-27 -210q-126 0 -267 -79q-85 -51 -259 -147q-156 -79 -357 -79h-238v234h235q150 0 286 46q15 5 221 80q-35 4 -174 45q-128 38 -157 38q-38 0 -64 -27q-18 -24 -37 -47q-91 36 -152 71q91 219 220 219q85 0 320.5 -74t366.5 -74q42 0 83 4zM579 936l-113 114
l113 112l112 -112zM579 712l-113 114l113 112l112 -112z" />
    <glyph glyph-name="uni0682.medi" unicode="&#x682;" horiz-adv-x="1208" 
d="M1208 1h-198q-235 0 -240 292q-60 -33 -181 -127q-106 -82 -178 -115q-108 -50 -237 -50h-244v234h213q150 0 274 63q68 37 205 110q-39 4 -157 25q-107 19 -124 19q-43 0 -96 -82q-95 39 -151 71q96 239 220 239q107 0 334 -53t344 -53q59 0 111 6l-27 -227
q-98 0 -186 -27q10 -42 29 -59q36 -32 124 -32h165v-234zM595 979l-113 114l113 112l112 -112zM595 755l-113 114l113 112l112 -112z" />
    <glyph glyph-name="uni0682.fina" unicode="&#x682;" horiz-adv-x="1318" 
d="M1318 1h-212q-235 0 -231 322q-197 -63 -341 -196q-154 -143 -154 -289q0 -344 514 -344q188 0 324 45l64 -201q-203 -77 -421 -77q-311 0 -487 117q-209 139 -209 433q0 187 163 357q129 135 324 226q-177 22 -220 22q-47 0 -96 -79q-99 41 -154 74q95 236 222 236
q97 0 295 -22.5t298 -22.5q109 0 197 10l-28 -240q-81 0 -170 -16q7 -51 23 -74q33 -47 120 -47h179v-234zM672 960l-113 114l113 112l112 -112zM672 736l-113 114l113 112l112 -112z" />
    <glyph glyph-name="uni0685.init" unicode="&#x685;" horiz-adv-x="1081" 
d="M1078 516l-27 -210q-126 0 -267 -79q-85 -51 -259 -147q-156 -79 -357 -79h-238v234h235q150 0 286 46q15 5 221 80q-35 4 -174 45q-128 38 -157 38q-38 0 -64 -27q-18 -24 -37 -47q-91 36 -152 71q91 219 220 219q85 0 320.5 -74t366.5 -74q42 0 83 4zM337 847l102 140
l133 -89l77 104l156 -104l-106 -139l-133 88l-72 -104zM416 1093l103 136l144 -97l-101 -137z" />
    <glyph glyph-name="uni0685.medi" unicode="&#x685;" horiz-adv-x="1208" 
d="M1208 1h-198q-235 0 -240 292q-60 -33 -181 -127q-106 -82 -178 -115q-108 -50 -237 -50h-244v234h213q150 0 274 63q68 37 205 110q-39 4 -157 25q-107 19 -124 19q-43 0 -96 -82q-95 39 -151 71q96 239 220 239q107 0 334 -53t344 -53q59 0 111 6l-27 -227
q-98 0 -186 -27q10 -42 29 -59q36 -32 124 -32h165v-234zM366 867l102 140l133 -89l77 104l156 -104l-106 -139l-133 88l-72 -104zM445 1113l103 136l144 -97l-101 -137z" />
    <glyph glyph-name="uni0685.fina" unicode="&#x685;" horiz-adv-x="1318" 
d="M1318 1h-212q-235 0 -231 322q-197 -63 -341 -196q-154 -143 -154 -289q0 -344 514 -344q188 0 324 45l64 -201q-203 -77 -421 -77q-311 0 -487 117q-209 139 -209 433q0 187 163 357q129 135 324 226q-177 22 -220 22q-47 0 -96 -79q-99 41 -154 74q95 236 222 236
q97 0 295 -22.5t298 -22.5q109 0 197 10l-28 -240q-81 0 -170 -16q7 -51 23 -74q33 -47 120 -47h179v-234zM483 857l102 140l133 -89l77 104l156 -104l-106 -139l-133 88l-72 -104zM562 1103l103 136l144 -97l-101 -137z" />
    <glyph glyph-name="uni0689.fina" unicode="&#x689;" horiz-adv-x="1108" 
d="M1108 1h-41q-202 0 -285 163q-82 -191 -329 -191q-197 0 -289 109l71 188q83 -63 240 -63q237 0 237 106q0 18 -7 38l-137 390l163 148l135 -434q34 -109 63 -150q48 -70 135 -70h44v-234zM628 -120q0 -68 -42 -117q-45 -51 -112 -51q-58 0 -96 37t-38 94q0 97 47 154
q37 47 82 47q50 0 101 -42q58 -50 58 -122zM564 -128q0 41 -33 67q-30 24 -73 24q-21 0 -41 -31.5t-20 -54.5q0 -73 79 -73q33 0 59 17q29 19 29 51z" />
    <glyph glyph-name="uni068A.fina" unicode="&#x68a;" horiz-adv-x="1108" 
d="M1108 1h-41q-202 0 -285 163q-82 -191 -329 -191q-197 0 -289 109l71 188q83 -63 240 -63q237 0 237 106q0 18 -7 38l-137 390l163 148l135 -434q34 -109 63 -150q48 -70 135 -70h44v-234zM626 -305l-124 -164l-169 112l124 166z" />
    <glyph glyph-name="uni068b.fina" unicode="&#x68b;" horiz-adv-x="1108" 
d="M1108 1h-41q-202 0 -285 163q-82 -191 -329 -191q-197 0 -289 109l71 188q83 -63 240 -63q237 0 237 106q0 18 -7 38l-137 390l163 148l135 -434q34 -109 63 -150q48 -70 135 -70h44v-234zM763 1097q0 -74 -68 -116q-59 -35 -145 -35h-56q-88 0 -119 45l27 51
q24 -13 52 -13q39 0 49 37q3 13 3 71q0 84 -13 208l74 29v-241q55 50 105 50q39 0 65 -23q26 -24 26 -63zM705 1076q0 29 -49 29q-32 0 -71 -32q-6 -5 -48 -46h35q37 0 76 10q57 13 57 39zM566 -250l-124 -164l-169 112l124 166z" />
    <glyph glyph-name="uni068F.fina" unicode="&#x68f;" horiz-adv-x="1108" 
d="M1108 1h-41q-202 0 -285 163q-82 -191 -329 -191q-197 0 -289 109l71 188q83 -63 240 -63q237 0 237 106q0 18 -7 38l-137 390l163 148l135 -434q34 -109 63 -150q48 -70 135 -70h44v-234zM804 1301l-102 -140l-133 89l-77 -104l-157 104l107 139l133 -88l72 105z
M730 1056l-103 -137l-144 98l101 136z" />
    <glyph glyph-name="uni0690.fina" unicode="&#x690;" horiz-adv-x="1108" 
d="M1108 1h-41q-202 0 -285 163q-82 -191 -329 -191q-197 0 -289 109l71 188q83 -63 240 -63q237 0 237 106q0 18 -7 38l-137 390l163 148l135 -434q34 -109 63 -150q48 -70 135 -70h44v-234zM720 1059l-116 117l116 116l117 -116zM479 1059l-117 117l117 116l116 -116z
M599 1233l-116 116l116 117l117 -117zM604 891l-117 117l117 116l116 -116z" />
    <glyph glyph-name="uni0692.fina" unicode="&#x692;" horiz-adv-x="834" 
d="M834 0h-36q-79 1 -115 40q-15 -177 -180 -332q-138 -129 -330 -204l-170 117q150 64 308 177q213 152 213 258q0 59 -108 206l159 171q72 -119 112 -155q47 -43 121 -43h26v-235zM643 741q-15 -12 -37.5 -41.5t-45.5 -69t-43.5 -85.5t-31.5 -91h-28l-1 3
q-12 44 -32.5 89.5t-43.5 85t-45 68.5t-36 41l108 2q21 -32 36.5 -78t26.5 -96q11 50 27 96t38 78z" />
    <glyph glyph-name="uni0693.fina" unicode="&#x693;" horiz-adv-x="834" 
d="M834 0h-36q-79 1 -115 40q-15 -177 -180 -332q-138 -129 -330 -204l-170 117q150 64 308 177q213 152 213 258q0 59 -108 206l159 171q72 -119 112 -155q47 -43 121 -43h26v-235zM484 -521q0 -68 -42 -117q-45 -51 -112 -51q-58 0 -96 37t-38 94q0 97 47 154q37 47 82 47
q50 0 101 -42q58 -50 58 -122zM420 -529q0 41 -33 67q-30 24 -73 24q-21 0 -41 -31.5t-20 -54.5q0 -73 79 -73q33 0 59 17q29 19 29 51z" />
    <glyph glyph-name="uni0694.fina" unicode="&#x694;" horiz-adv-x="834" 
d="M834 0h-36q-79 1 -115 40q-15 -177 -180 -332q-138 -129 -330 -204l-170 117q150 64 308 177q213 152 213 258q0 59 -108 206l159 171q72 -119 112 -155q47 -43 121 -43h26v-235zM477 -646l-124 -164l-169 112l124 166z" />
    <glyph glyph-name="uni0695.fina" unicode="&#x695;" horiz-adv-x="834" 
d="M834 0h-36q-79 1 -115 40q-15 -177 -180 -332q-138 -129 -330 -204l-170 117q150 64 308 177q213 152 213 258q0 59 -108 206l159 171q72 -119 112 -155q47 -43 121 -43h26v-235zM395 -605q-15 -12 -37.5 -41.5t-45.5 -69t-43.5 -85.5t-31.5 -91h-28l-1 3
q-12 44 -32.5 89.5t-43.5 85t-45 68.5t-36 41l108 2q21 -32 36.5 -78t26.5 -96q11 50 27 96t38 78z" />
    <glyph glyph-name="uni0696.fina" unicode="&#x696;" horiz-adv-x="834" 
d="M834 0h-36q-79 1 -115 40q-15 -177 -180 -332q-138 -129 -330 -204l-170 117q150 64 308 177q213 152 213 258q0 59 -108 206l159 171q72 -119 112 -155q47 -43 121 -43h26v-235zM415 -662l-124 -164l-169 112l124 166zM291 -23l-124 -164l-169 112l124 166z" />
    <glyph glyph-name="uni0697.fina" unicode="&#x697;" horiz-adv-x="834" 
d="M834 0h-36q-79 1 -115 40q-15 -177 -180 -332q-138 -129 -330 -204l-170 117q150 64 308 177q213 152 213 258q0 59 -108 206l159 171q72 -119 112 -155q47 -43 121 -43h26v-235zM696 691l-110 -149l-136 96l-80 -112l-172 117l110 149l144 -99l79 112z" />
    <glyph glyph-name="uni0699.fina" unicode="&#x699;" horiz-adv-x="834" 
d="M834 0h-36q-79 1 -115 40q-15 -177 -180 -332q-138 -129 -330 -204l-170 117q150 64 308 177q213 152 213 258q0 59 -108 206l159 171q72 -119 112 -155q47 -43 121 -43h26v-235zM483 615l-116 117l116 116l117 -116zM242 615l-117 117l117 116l116 -116zM362 789
l-116 116l116 117l117 -117zM367 447l-117 117l117 116l116 -116z" />
    <glyph glyph-name="uni069A.init" unicode="&#x69a;" horiz-adv-x="1158" 
d="M1120 331q0 -121 -64 -220q-74 -113 -189 -113q-159 0 -231 108q-61 -105 -176 -105q-144 0 -204 105q-30 -49 -98 -78q-62 -28 -125 -28h-103v235h123q56 0 92.5 33t36.5 88v60l143 47v-63q0 -60 23 -106q30 -59 84 -59q143 0 143 129v80l146 44v-102q0 -66 38 -110
q40 -47 105 -47q88 0 88 83q0 77 -69 140l143 160q94 -103 94 -281zM781 856l-124 -164l-169 112l124 166zM750 -286l-124 -164l-169 112l124 166z" />
    <glyph glyph-name="uni069A.medi" unicode="&#x69a;" horiz-adv-x="1213" 
d="M1213 0h-33q-129 1 -195 106q-65 -105 -184 -105q-114 0 -168 105q-81 -105 -195 -105q-121 0 -171 105q-66 -105 -192 -106h-145v235h150q85 0 85 102v74l146 49v-66q0 -159 132 -159q107 0 107 102v74l143 49v-66q0 -159 113 -159q127 0 127 102v74l145 49v-66
q0 -96 9 -117q18 -42 101 -42h25v-235zM742 748l-124 -164l-169 112l124 166zM716 -241l-124 -164l-169 112l124 166z" />
    <glyph glyph-name="uni069A.fina" unicode="&#x69a;" horiz-adv-x="2026" 
d="M2026 0h-39q-80 0 -127 31q-35 22 -68 75q-64 -105 -184 -105q-113 0 -168 105q-79 -105 -190 -105q-92 0 -121 41q0 -242 -149 -401q-152 -163 -393 -163q-242 0 -362 152q-97 122 -97 313q0 153 83 319l156 -55q-55 -142 -55 -220q0 -134 81 -206q78 -69 214 -69
q145 0 240 81q101 85 101 227q0 137 -99 270l176 165q37 -76 95 -139q74 -81 130 -81q107 0 107 102v74l143 49v-66q0 -159 113 -159q127 0 127 102v74l145 49v-66q0 -97 9 -117q19 -42 101 -42h31v-235zM1550 837l-124 -164l-169 112l124 166zM1561 -324l-124 -164
l-169 112l124 166z" />
    <glyph glyph-name="uni069B.init" unicode="&#x69b;" horiz-adv-x="1158" 
d="M1120 331q0 -121 -64 -220q-74 -113 -189 -113q-159 0 -231 108q-61 -105 -176 -105q-144 0 -204 105q-30 -49 -98 -78q-62 -28 -125 -28h-103v235h123q56 0 92.5 33t36.5 88v60l143 47v-63q0 -60 23 -106q30 -59 84 -59q143 0 143 129v80l146 44v-102q0 -66 38 -110
q40 -47 105 -47q88 0 88 83q0 77 -69 140l143 160q94 -103 94 -281zM791 -283l-102 -140l-133 89l-77 -104l-157 104l107 139l133 -88l72 105zM717 -528l-103 -137l-144 98l101 136z" />
    <glyph glyph-name="uni069B.medi" unicode="&#x69b;" horiz-adv-x="1213" 
d="M1213 0h-33q-129 1 -195 106q-65 -105 -184 -105q-114 0 -168 105q-81 -105 -195 -105q-121 0 -171 105q-66 -105 -192 -106h-145v235h150q85 0 85 102v74l146 49v-66q0 -159 132 -159q107 0 107 102v74l143 49v-66q0 -159 113 -159q127 0 127 102v74l145 49v-66
q0 -96 9 -117q18 -42 101 -42h25v-235zM850 -288l-102 -140l-133 89l-77 -104l-157 104l107 139l133 -88l72 105zM776 -533l-103 -137l-144 98l101 136z" />
    <glyph glyph-name="uni069B.fina" unicode="&#x69b;" horiz-adv-x="2026" 
d="M2026 0h-39q-80 0 -127 31q-35 22 -68 75q-64 -105 -184 -105q-113 0 -168 105q-79 -105 -190 -105q-92 0 -121 41q0 -242 -149 -401q-152 -163 -393 -163q-242 0 -362 152q-97 122 -97 313q0 153 83 319l156 -55q-55 -142 -55 -220q0 -134 81 -206q78 -69 214 -69
q145 0 240 81q101 85 101 227q0 137 -99 270l176 165q37 -76 95 -139q74 -81 130 -81q107 0 107 102v74l143 49v-66q0 -159 113 -159q127 0 127 102v74l145 49v-66q0 -97 9 -117q19 -42 101 -42h31v-235zM1685 -330l-102 -140l-133 89l-77 -104l-157 104l107 139l133 -88
l72 105zM1611 -575l-103 -137l-144 98l101 136z" />
    <glyph glyph-name="uni069C.init" unicode="&#x69c;" horiz-adv-x="1158" 
d="M1120 331q0 -121 -64 -220q-74 -113 -189 -113q-159 0 -231 108q-61 -105 -176 -105q-144 0 -204 105q-30 -49 -98 -78q-62 -28 -125 -28h-103v235h123q56 0 92.5 33t36.5 88v60l143 47v-63q0 -60 23 -106q30 -59 84 -59q143 0 143 129v80l146 44v-102q0 -66 38 -110
q40 -47 105 -47q88 0 88 83q0 77 -69 140l143 160q94 -103 94 -281zM872 -284l-102 -140l-133 89l-77 -104l-157 104l107 139l133 -88l72 105zM798 -529l-103 -137l-144 98l101 136zM384 714l102 140l133 -89l77 104l156 -104l-106 -139l-133 88l-72 -104zM463 960l103 136
l144 -97l-101 -137z" />
    <glyph glyph-name="uni069C.medi" unicode="&#x69c;" horiz-adv-x="1213" 
d="M1213 0h-33q-129 1 -195 106q-65 -105 -184 -105q-114 0 -168 105q-81 -105 -195 -105q-121 0 -171 105q-66 -105 -192 -106h-145v235h150q85 0 85 102v74l146 49v-66q0 -159 132 -159q107 0 107 102v74l143 49v-66q0 -159 113 -159q127 0 127 102v74l145 49v-66
q0 -96 9 -117q18 -42 101 -42h25v-235zM849 -276l-102 -140l-133 89l-77 -104l-157 104l107 139l133 -88l72 105zM775 -521l-103 -137l-144 98l101 136zM386 688l102 140l133 -89l77 104l156 -104l-106 -139l-133 88l-72 -104zM465 934l103 136l144 -97l-101 -137z" />
    <glyph glyph-name="uni069C.fina" unicode="&#x69c;" horiz-adv-x="2026" 
d="M2026 0h-39q-80 0 -127 31q-35 22 -68 75q-64 -105 -184 -105q-113 0 -168 105q-79 -105 -190 -105q-92 0 -121 41q0 -242 -149 -401q-152 -163 -393 -163q-242 0 -362 152q-97 122 -97 313q0 153 83 319l156 -55q-55 -142 -55 -220q0 -134 81 -206q78 -69 214 -69
q145 0 240 81q101 85 101 227q0 137 -99 270l176 165q37 -76 95 -139q74 -81 130 -81q107 0 107 102v74l143 49v-66q0 -159 113 -159q127 0 127 102v74l145 49v-66q0 -97 9 -117q19 -42 101 -42h31v-235zM1618 -327l-102 -140l-133 89l-77 -104l-157 104l107 139l133 -88
l72 105zM1544 -572l-103 -137l-144 98l101 136zM1178 668l102 140l133 -89l77 104l156 -104l-106 -139l-133 88l-72 -104zM1257 914l103 136l144 -97l-101 -137z" />
    <glyph glyph-name="uni069D.init" unicode="&#x69d;" horiz-adv-x="1337" 
d="M1285 438q0 -211 -195 -333q-167 -104 -391 -104h-204q-168 0 -231 91q-61 -91 -192 -91h-142v234h117q129 0 129 118v69l157 44v-83q0 -73 11 -100q18 -45 77 -45q40 0 94 66q312 382 508 382q113 0 187.5 -68t74.5 -180zM1120 378q0 85 -143 85q-92 0 -203 -91
q-22 -18 -136 -132h99q107 0 219 26q164 39 164 112zM821 -278l-110 -149l-136 96l-80 -112l-172 117l110 149l144 -99l79 112z" />
    <glyph glyph-name="uni069D.medi" unicode="&#x69d;" horiz-adv-x="1367" 
d="M1367 1h-30q-151 0 -234 110q-132 -110 -379 -110h-231q-170 0 -229 91q-61 -91 -192 -91h-142v234h117q129 0 129 118v69l157 44v-83q0 -73 11 -100q18 -45 77 -45q38 0 91 66q308 382 509 382q114 0 187.5 -67.5t73.5 -180.5q0 -103 -47 -184q10 -19 116 -19h16v-234z
M1117 378q0 85 -143 85q-92 0 -203 -91q-28 -23 -135 -132h99q107 0 219 26q163 39 163 112zM780 -303l-110 -149l-136 96l-80 -112l-172 117l110 149l144 -99l79 112z" />
    <glyph glyph-name="uni069D.fina" unicode="&#x69d;" horiz-adv-x="2178" 
d="M2178 1h-28q-152 0 -236 110q-130 -110 -379 -110h-143q-186 0 -223 41q0 -242 -149 -401q-152 -163 -393 -163q-242 0 -362 152q-97 122 -97 313q0 153 83 319l156 -55q-55 -142 -55 -220q0 -134 81 -206q78 -69 214 -69q145 0 240 81q101 85 101 227q0 137 -99 270
l176 165q89 -215 167 -215q35 0 53 17q340 429 547 429q114 0 187.5 -67.5t73.5 -180.5q0 -104 -47 -184q10 -19 116 -19h16v-234zM1928 372q0 86 -143 86q-91 0 -203 -92q-22 -18 -135 -131h99q107 0 219 26q163 38 163 111zM1767 -386l-110 -149l-136 96l-80 -112
l-172 117l110 149l144 -99l79 112z" />
    <glyph glyph-name="uni069E.init" unicode="&#x69e;" horiz-adv-x="1337" 
d="M1285 438q0 -211 -195 -333q-167 -104 -391 -104h-204q-168 0 -231 91q-61 -91 -192 -91h-142v234h117q129 0 129 118v69l157 44v-83q0 -73 11 -100q18 -45 77 -45q40 0 94 66q312 382 508 382q113 0 187.5 -68t74.5 -180zM1120 378q0 85 -143 85q-92 0 -203 -91
q-22 -18 -136 -132h99q107 0 219 26q164 39 164 112zM353 820l102 140l133 -89l77 104l156 -104l-106 -139l-133 88l-72 -104zM432 1066l103 136l144 -97l-101 -137z" />
    <glyph glyph-name="uni069E.medi" unicode="&#x69e;" horiz-adv-x="1367" 
d="M1367 1h-30q-151 0 -234 110q-132 -110 -379 -110h-231q-170 0 -229 91q-61 -91 -192 -91h-142v234h117q129 0 129 118v69l157 44v-83q0 -73 11 -100q18 -45 77 -45q38 0 91 66q308 382 509 382q114 0 187.5 -67.5t73.5 -180.5q0 -103 -47 -184q10 -19 116 -19h16v-234z
M1117 378q0 85 -143 85q-92 0 -203 -91q-28 -23 -135 -132h99q107 0 219 26q163 39 163 112zM332 849l102 140l133 -89l77 104l156 -104l-106 -139l-133 88l-72 -104zM411 1095l103 136l144 -97l-101 -137z" />
    <glyph glyph-name="uni069E.fina" unicode="&#x69e;" horiz-adv-x="2178" 
d="M2178 1h-28q-152 0 -236 110q-130 -110 -379 -110h-143q-186 0 -223 41q0 -242 -149 -401q-152 -163 -393 -163q-242 0 -362 152q-97 122 -97 313q0 153 83 319l156 -55q-55 -142 -55 -220q0 -134 81 -206q78 -69 214 -69q145 0 240 81q101 85 101 227q0 137 -99 270
l176 165q89 -215 167 -215q35 0 53 17q340 429 547 429q114 0 187.5 -67.5t73.5 -180.5q0 -104 -47 -184q10 -19 116 -19h16v-234zM1928 372q0 86 -143 86q-91 0 -203 -92q-22 -18 -135 -131h99q107 0 219 26q163 38 163 111zM1119 820l102 140l133 -89l77 104l156 -104
l-106 -139l-133 88l-72 -104zM1198 1066l103 136l144 -97l-101 -137z" />
    <glyph glyph-name="uni069F.medi" unicode="&#x69f;" horiz-adv-x="1270" 
d="M1270 0h-29q-132 1 -224 122q-147 -121 -445 -121h-160q-255 0 -344 129l77 146q63 -41 144 -41q120 0 140 88q17 75 17 228q0 243 -37 600l213 82v-694q159 144 302 144q113 0 186 -66q75 -69 75 -181q0 -96 -52 -176q20 -25 123 -25h14v-235zM1020 375q0 85 -143 85
q-92 0 -205 -93q-17 -14 -136 -132h99q106 0 221 27q164 40 164 113zM728 921l102 140l133 -89l77 104l156 -104l-106 -139l-133 88l-72 -104zM807 1167l103 136l144 -97l-101 -137z" />
    <glyph glyph-name="uni06A0.init" unicode="&#x6a0;" horiz-adv-x="854" 
d="M803 309q-26 -196 -24 -206q-443 -102 -704 -103h-145v235h249l-32 68q-15 44 -15 116q0 96 76 185q88 104 219 104q71 0 146 -34q79 -36 120 -90l-63 -126q-89 49 -190 49q-53 0 -101 -22q-61 -28 -61 -74q0 -55 74.5 -102.5t148.5 -45.5q102 3 302 46zM169 905l102 140
l133 -89l77 104l156 -104l-106 -139l-133 88l-72 -104zM248 1151l103 136l144 -97l-101 -137z" />
    <glyph glyph-name="uni06A0.medi" unicode="&#x6a0;" horiz-adv-x="781" 
d="M781 0h-133q-168 1 -257 139q-182 -138 -374 -139h-87v235h95q219 0 267 80q0 34 -67 53q-48 13 -93 13v27q0 96 70 164q87 84 252 84q84 0 143 -33q72 -41 72 -119q0 -103 -57 -167q-44 -38 -89 -75q18 -27 146 -27h112v-235zM145 881l102 140l133 -89l77 104l156 -104
l-106 -139l-133 88l-72 -104zM224 1127l103 136l144 -97l-101 -137z" />
    <glyph glyph-name="uni06A0.fina" unicode="&#x6a0;" horiz-adv-x="1078" 
d="M1183 -671q-155 -66 -374 -66q-281 0 -447 110q-197 130 -197 396q0 212 157 393q50 58 214 188q0 53 -162 53v30q0 102 75 173q93 88 269 88q76 0 143 -35q80 -43 80 -113q0 -106 -50 -173q-29 -39 -102 -89q21 -49 154 -49h135v-235h-187q-184 1 -261 174
q-108 -57 -186 -163q-86 -116 -86 -228q0 -161 174 -234q125 -52 311 -52q159 0 271 36zM402 891l102 140l133 -89l77 104l156 -104l-106 -139l-133 88l-72 -104zM481 1137l103 136l144 -97l-101 -137z" />
    <glyph glyph-name="afii57459" unicode="&#x6a1;" horiz-adv-x="622" 
d="M571 359q0 -358 -440 -359h-201v235h319q171 0 171 118q-38 -44 -152 -44q-195 0 -195 184q0 88 59 195q72 130 172 130q123 0 203 -176q64 -143 64 -283zM373 526q-10 33 -34 65q-30 37 -60 37q-21 0 -46 -26t-25 -48q0 -72 77 -72q69 0 88 44z" />
    <glyph glyph-name="afii57374" unicode="&#x6a1;" horiz-adv-x="677" 
d="M677 0h-69q-176 1 -286 81q-43 -31 -118.5 -56t-128.5 -25h-145v235h222q-39 45 -39 129q0 114 101 220q95 99 180 99q87 0 139 -95q42 -79 42 -174q0 -114 -80 -179h182v-235zM440 389q0 33 -26 55t-59 22q-34 0 -69 -29t-35 -62q0 -26 29 -47.5t56 -21.5q30 0 67 27
t37 56z" />
    <glyph glyph-name="afii52258" unicode="&#x6a1;" horiz-adv-x="1766" 
d="M1766 0h-88q-66 0 -139 29q-86 28 -126 64q-62 -48 -201 -89q-200 -59 -447 -59q-594 0 -594 348q0 105 77 258l151 -47q-44 -96 -44 -137q0 -85 65 -126q97 -61 356 -61h88q128 0 248 20q101 17 129 35q-42 47 -42 143q0 112 103 219q97 100 181 100q87 0 141 -95
q46 -81 46 -175q0 -124 -86 -192h182v-235zM1535 403q0 33 -29 55t-62 22q-35 0 -71 -28.5t-36 -62.5q0 -26 32 -48q29 -21 56 -21q30 0 70 27.5t40 55.5z" />
    <glyph glyph-name="uni06A2.init" unicode="&#x6a2;" horiz-adv-x="622" 
d="M571 359q0 -358 -440 -359h-201v235h319q171 0 171 118q-38 -44 -152 -44q-195 0 -195 184q0 88 59 195q72 130 172 130q123 0 203 -176q64 -143 64 -283zM373 526q-10 33 -34 65q-30 37 -60 37q-21 0 -46 -26t-25 -48q0 -72 77 -72q69 0 88 44zM487 -251l-124 -164
l-169 112l124 166z" />
    <glyph glyph-name="uni06A2.medi" unicode="&#x6a2;" horiz-adv-x="677" 
d="M677 0h-69q-176 1 -286 81q-43 -31 -118.5 -56t-128.5 -25h-145v235h222q-39 45 -39 129q0 114 101 220q95 99 180 99q87 0 139 -95q42 -79 42 -174q0 -114 -80 -179h182v-235zM440 389q0 33 -26 55t-59 22q-34 0 -69 -29t-35 -62q0 -26 29 -47.5t56 -21.5q30 0 67 27
t37 56zM485 -239l-124 -164l-169 112l124 166z" />
    <glyph glyph-name="uni06A2.fina" unicode="&#x6a2;" horiz-adv-x="1766" 
d="M1766 0h-88q-66 0 -139 29q-86 28 -126 64q-62 -48 -201 -89q-200 -59 -447 -59q-594 0 -594 348q0 105 77 258l151 -47q-44 -96 -44 -137q0 -85 65 -126q97 -61 356 -61h88q128 0 248 20q101 17 129 35q-42 47 -42 143q0 112 103 219q97 100 181 100q87 0 141 -95
q46 -81 46 -175q0 -124 -86 -192h182v-235zM1535 403q0 33 -29 55t-62 22q-35 0 -71 -28.5t-36 -62.5q0 -26 32 -48q29 -21 56 -21q30 0 70 27.5t40 55.5zM1561 -246l-124 -164l-169 112l124 166z" />
    <glyph glyph-name="uni06A3.init" unicode="&#x6a3;" horiz-adv-x="622" 
d="M571 359q0 -358 -440 -359h-201v235h319q171 0 171 118q-38 -44 -152 -44q-195 0 -195 184q0 88 59 195q72 130 172 130q123 0 203 -176q64 -143 64 -283zM373 526q-10 33 -34 65q-30 37 -60 37q-21 0 -46 -26t-25 -48q0 -72 77 -72q69 0 88 44zM411 1107l-124 -164
l-169 112l124 166zM447 -258l-124 -164l-169 112l124 166z" />
    <glyph glyph-name="uni06A3.medi" unicode="&#x6a3;" horiz-adv-x="677" 
d="M677 0h-69q-176 1 -286 81q-43 -31 -118.5 -56t-128.5 -25h-145v235h222q-39 45 -39 129q0 114 101 220q95 99 180 99q87 0 139 -95q42 -79 42 -174q0 -114 -80 -179h182v-235zM440 389q0 33 -26 55t-59 22q-34 0 -69 -29t-35 -62q0 -26 29 -47.5t56 -21.5q30 0 67 27
t37 56zM450 971l-124 -164l-169 112l124 166zM485 -252l-124 -164l-169 112l124 166z" />
    <glyph glyph-name="uni06A3.fina" unicode="&#x6a3;" horiz-adv-x="1766" 
d="M1766 0h-88q-66 0 -139 29q-86 28 -126 64q-62 -48 -201 -89q-200 -59 -447 -59q-594 0 -594 348q0 105 77 258l151 -47q-44 -96 -44 -137q0 -85 65 -126q97 -61 356 -61h88q128 0 248 20q101 17 129 35q-42 47 -42 143q0 112 103 219q97 100 181 100q87 0 141 -95
q46 -81 46 -175q0 -124 -86 -192h182v-235zM1535 403q0 33 -29 55t-62 22q-35 0 -71 -28.5t-36 -62.5q0 -26 32 -48q29 -21 56 -21q30 0 70 27.5t40 55.5zM1553 996l-124 -164l-169 112l124 166zM1584 -233l-124 -164l-169 112l124 166z" />
    <glyph glyph-name="uni06A5.init" unicode="&#x6a5;" horiz-adv-x="622" 
d="M571 359q0 -358 -440 -359h-201v235h319q171 0 171 118q-38 -44 -152 -44q-195 0 -195 184q0 88 59 195q72 130 172 130q123 0 203 -176q64 -143 64 -283zM373 526q-10 33 -34 65q-30 37 -60 37q-21 0 -46 -26t-25 -48q0 -72 77 -72q69 0 88 44zM536 -242l-102 -140
l-133 89l-77 -104l-157 104l107 139l133 -88l72 105zM462 -487l-103 -137l-144 98l101 136z" />
    <glyph glyph-name="uni06A5.medi" unicode="&#x6a5;" horiz-adv-x="677" 
d="M677 0h-69q-176 1 -286 81q-43 -31 -118.5 -56t-128.5 -25h-145v235h222q-39 45 -39 129q0 114 101 220q95 99 180 99q87 0 139 -95q42 -79 42 -174q0 -114 -80 -179h182v-235zM440 389q0 33 -26 55t-59 22q-34 0 -69 -29t-35 -62q0 -26 29 -47.5t56 -21.5q30 0 67 27
t37 56zM552 -272l-102 -140l-133 89l-77 -104l-157 104l107 139l133 -88l72 105zM478 -517l-103 -137l-144 98l101 136z" />
    <glyph glyph-name="uni06A5.fina" unicode="&#x6a5;" horiz-adv-x="1766" 
d="M1766 0h-88q-66 0 -139 29q-86 28 -126 64q-62 -48 -201 -89q-200 -59 -447 -59q-594 0 -594 348q0 105 77 258l151 -47q-44 -96 -44 -137q0 -85 65 -126q97 -61 356 -61h88q128 0 248 20q101 17 129 35q-42 47 -42 143q0 112 103 219q97 100 181 100q87 0 141 -95
q46 -81 46 -175q0 -124 -86 -192h182v-235zM1535 403q0 33 -29 55t-62 22q-35 0 -71 -28.5t-36 -62.5q0 -26 32 -48q29 -21 56 -21q30 0 70 27.5t40 55.5zM1661 -238l-102 -140l-133 89l-77 -104l-157 104l107 139l133 -88l72 105zM1587 -483l-103 -137l-144 98l101 136z
" />
    <glyph glyph-name="uni06A7.fina" unicode="&#x6a7;" horiz-adv-x="1302" 
d="M1302 0h-133q-21 -173 -140 -308q-153 -173 -402 -173t-375 152q-103 124 -103 313q0 169 74 322l163 -60q-47 -117 -47 -217q0 -134 88 -208q83 -68 220 -68q196 0 306 111q76 76 76 137h-58q-145 0 -212 36q-90 50 -90 181q0 97 53 199q67 129 172 129q115 0 193 -106
q65 -88 80 -205h135v-235zM1004 207q-4 46 -34 91q-35 50 -78 50q-23 0 -50 -23t-27 -46q0 -51 46 -65q22 -7 91 -7h52zM993 821l-124 -164l-169 112l124 166z" />
    <glyph glyph-name="uni06A8.fina" unicode="&#x6a8;" horiz-adv-x="1302" 
d="M1302 0h-133q-21 -173 -140 -308q-153 -173 -402 -173t-375 152q-103 124 -103 313q0 169 74 322l163 -60q-47 -117 -47 -217q0 -134 88 -208q83 -68 220 -68q196 0 306 111q76 76 76 137h-58q-145 0 -212 36q-90 50 -90 181q0 97 53 199q67 129 172 129q115 0 193 -106
q65 -88 80 -205h135v-235zM1004 207q-4 46 -34 91q-35 50 -78 50q-23 0 -50 -23t-27 -46q0 -51 46 -65q22 -7 91 -7h52zM612 744l102 140l133 -89l77 104l156 -104l-106 -139l-133 88l-72 -104zM691 990l103 136l144 -97l-101 -137z" />
    <glyph glyph-name="uni06AA.init" unicode="&#x6aa;" horiz-adv-x="1847" 
d="M-49 2v233q37 0 78 1q115 0 282.5 6.5t579.5 32.5t655 54q0 62 -16 101t-48 60.5t-79.5 28t-109.5 5.5q-43 0 -111 -2.5t-152 -5.5t-178.5 -6t-190.5 -4.5t-188 -0.5t-170 6q-62 5 -102 12t-64.5 18.5t-37.5 27t-20 36.5q-24 61 -6.5 117t69.5 107t135 97.5t192 88.5
t239.5 79.5t276.5 72.5l-47 -235q-16 -2 -55 -9.5t-92 -18.5t-115.5 -25t-125.5 -30t-122 -33t-104.5 -34t-73 -33t-28.5 -29q4 -18 51 -28t124 -14t177.5 -4t210 3t222 7t213.5 8t184.5 6t135.5 0q89 -7 138.5 -42.5t67 -89t6 -119.5t-43.5 -134q-19 -43 -127 -204
q-735 -76 -1100 -92q-418 -16 -519 -16v-1z" />
    <glyph glyph-name="uni06AA.medi" unicode="&#x6aa;" horiz-adv-x="2167" 
d="M594 7q-525 -5 -651 -7v235q367 -1 508 1t553 7t655 33q0 62 -16 101t-48 60.5t-79.5 28t-109.5 5.5q-43 0 -111 -2.5t-152 -5.5t-178.5 -6t-190.5 -4.5t-188 -0.5t-170 6q-62 5 -102 12t-64.5 18.5t-37.5 27t-20 36.5q-24 62 -6.5 117.5t69.5 106.5t135 97.5t192 88.5
t239.5 79.5t276.5 72.5l-47 -235q-16 -2 -55 -9.5t-92 -18.5t-115.5 -25t-125.5 -30t-122 -33t-104.5 -34t-73 -33t-28.5 -29q4 -18 51 -28t124 -14t177.5 -4t210 3t222 7t213.5 8t184.5 6t135.5 0q84 -7 132.5 -39t68 -81t13 -109.5t-32.5 -124.5q7 -25 36 -38
q43 -18 172 -18h127q11 -26 16.5 -56t5.5 -61.5t-5.5 -61.5t-16.5 -56h-112q-124 -2 -210 14q-77 15 -124 85q-14 -20 -29 -40q-724 -50 -1100 -52z" />
    <glyph glyph-name="uni06AA.fina" unicode="&#x6aa;" horiz-adv-x="2848" 
d="M747 -53q-594 0 -594 348q0 105 77 258l151 -47q-44 -96 -44 -137q0 -85 65 -126q96 -61 351 -61h5q234 0 378.5 7t556.5 33t655 54q0 62 -16 101t-48 60.5t-79.5 28t-109.5 5.5q-43 0 -111 -2.5t-152 -5.5t-178.5 -6t-190.5 -4.5t-188 -0.5t-170 6q-62 5 -102 12
t-64.5 18.5t-37.5 27t-20 36.5q-24 62 -6.5 117.5t69.5 106.5t135 97.5t192 88.5t239.5 79.5t276.5 72.5l-47 -235q-16 -2 -55 -9.5t-92 -18.5t-115.5 -25t-125.5 -30t-122 -33t-104.5 -34t-73 -33t-28.5 -29q4 -18 51 -28t124 -14t177.5 -4t210 3t222 7t213.5 8t184.5 6
t135.5 0q84 -7 132.5 -39t68 -81t13 -109.5t-32.5 -124.5q7 -25 36 -38q43 -18 172 -18h127q11 -26 16.5 -56t5.5 -61.5t-5.5 -61.5t-16.5 -56h-112q-124 -2 -210 14q-77 15 -124 85q-14 -20 -29 -43q-735 -76 -1100 -92q-403 -16 -519 -17h-17z" />
    <glyph glyph-name="uni06AB.init" unicode="&#x6ab;" horiz-adv-x="966" 
d="M982 1280l-30 -239q-131 -30 -282 -70q-303 -80 -408 -127q-35 -16 -12 -32q42 -29 126 -89q103 -75 169 -157q85 -105 85 -202q0 -220 -156 -303q-113 -61 -361 -61h-183v235h189q341 0 341 85q0 79 -182 222q-201 158 -223 207q2 49 25 126q25 82 47 94
q261 137 855 311zM889 896q0 -68 -42 -117q-45 -51 -112 -51q-58 0 -96 37t-38 94q0 97 47 154q37 47 82 47q50 0 101 -42q58 -50 58 -122zM825 888q0 41 -33 67q-30 24 -73 24q-21 0 -41 -31.5t-20 -54.5q0 -73 79 -73q33 0 59 17q29 19 29 51z" />
    <glyph glyph-name="uni06AB.medi" unicode="&#x6ab;" horiz-adv-x="1065" 
d="M1065 0h-84q-120 1 -245 82q-109 71 -188 180q-35 -261 -470 -262h-148v235h142q152 0 204 7q145 19 145 89q0 65 -144 191q-158 138 -178 189q3 54 20 120q20 79 44 91q258 135 902 336l-28 -234q-159 -39 -274 -71q-304 -84 -469 -152q-36 -15 -10 -35
q165 -125 335 -295q137 -137 187 -171q95 -65 209 -65h50v-235zM988 878q0 -68 -42 -117q-45 -51 -112 -51q-58 0 -96 37t-38 94q0 97 47 154q37 47 82 47q50 0 101 -42q58 -50 58 -122zM924 870q0 41 -33 67q-30 24 -73 24q-21 0 -41 -31.5t-20 -54.5q0 -73 79 -73
q33 0 59 17q29 19 29 51z" />
    <glyph glyph-name="uni06AB.fina" unicode="&#x6ab;" horiz-adv-x="1969" 
d="M1969 0h-96q-124 1 -252 88q-110 75 -191 191q0 -334 -714 -334q-595 0 -595 348q0 105 77 258l151 -47q-44 -96 -44 -137q0 -85 65 -126q97 -61 356 -61h41q161 0 301 26q233 42 233 139q0 64 -132 183q-148 134 -168 183q3 54 20 120q20 79 43 91q257 135 902 336
l-27 -228q-160 -42 -273 -74q-305 -87 -470 -155q-36 -15 -10 -35q162 -127 335 -295q138 -133 184 -166q99 -70 212 -70h52v-235zM1849 864q0 -68 -42 -117q-45 -51 -112 -51q-58 0 -96 37t-38 94q0 97 47 154q37 47 82 47q50 0 101 -42q58 -50 58 -122zM1785 856
q0 41 -33 67q-30 24 -73 24q-21 0 -41 -31.5t-20 -54.5q0 -73 79 -73q33 0 59 17q29 19 29 51z" />
    <glyph glyph-name="uni06AE.init" unicode="&#x6ae;" horiz-adv-x="966" 
d="M982 1280l-30 -239q-131 -30 -282 -70q-303 -80 -408 -127q-35 -16 -12 -32q42 -29 126 -89q103 -75 169 -157q85 -105 85 -202q0 -220 -156 -303q-113 -61 -361 -61h-183v235h189q341 0 341 85q0 79 -182 222q-201 158 -223 207q2 49 25 126q25 82 47 94
q261 137 855 311zM696 -250l-102 -140l-133 89l-77 -104l-157 104l107 139l133 -88l72 105zM622 -495l-103 -137l-144 98l101 136z" />
    <glyph glyph-name="uni06AE.medi" unicode="&#x6ae;" horiz-adv-x="1065" 
d="M1065 0h-84q-120 1 -245 82q-109 71 -188 180q-35 -261 -470 -262h-148v235h142q152 0 204 7q145 19 145 89q0 65 -144 191q-158 138 -178 189q3 54 20 120q20 79 44 91q258 135 902 336l-28 -234q-159 -39 -274 -71q-304 -84 -469 -152q-36 -15 -10 -35
q165 -125 335 -295q137 -137 187 -171q95 -65 209 -65h50v-235zM720 -261l-102 -140l-133 89l-77 -104l-157 104l107 139l133 -88l72 105zM646 -506l-103 -137l-144 98l101 136z" />
    <glyph glyph-name="uni06AE.fina" unicode="&#x6ae;" horiz-adv-x="1622" 
d="M1622 0h-23q-55 1 -116 38q-51 32 -73 71q-150 -164 -650 -164q-595 0 -595 348q0 105 77 258l151 -47q-44 -96 -44 -137q0 -85 65 -126q97 -61 356 -61h41q161 0 301 26q120 21 178 57q9 6 18 21t5 119l-25 748l204 82v-808q0 -80 35 -131q40 -59 87 -59h8v-235z
M1061 790l-413 -105v78l104 42q-52 50 -52 102q0 61 50 111t111 50q79 0 124 -42l-25 -65q-38 16 -102 16q-26 0 -54 -14q-33 -17 -33 -40q0 -70 123 -70q16 0 167 46v-109zM1076 -289l-102 -140l-133 89l-77 -104l-157 104l107 139l133 -88l72 105zM1002 -534l-103 -137
l-144 98l101 136z" />
    <glyph glyph-name="uni06B0.init" unicode="&#x6b0;" horiz-adv-x="987" 
d="M996 1483l-14 -116q-205 -64 -338 -108q-361 -120 -503 -185l27 110q184 86 828 299zM982 1266l-30 -225q-343 -84 -351 -86q-204 -54 -339 -115q-37 -17 -12 -33q380 -246 380 -443q0 -213 -141 -297q-111 -66 -343 -67h-216v235h224q146 0 208 12q98 19 98 73
q0 73 -182 218q-202 161 -223 211q2 42 22 111q25 82 50 95q261 137 855 311zM834 879q0 -68 -42 -117q-45 -51 -112 -51q-58 0 -96 37t-38 94q0 97 47 154q37 47 82 47q50 0 101 -42q58 -50 58 -122zM770 871q0 41 -33 67q-30 24 -73 24q-21 0 -41 -31.5t-20 -54.5
q0 -73 79 -73q33 0 59 17q29 19 29 51z" />
    <glyph glyph-name="uni06B0.medi" unicode="&#x6b0;" horiz-adv-x="1065" 
d="M1078 1442l-13 -114q-184 -55 -363 -112q-392 -125 -526 -187l28 113q161 81 874 300zM1065 0h-94q-116 1 -243 92q-112 80 -183 189q0 -165 -139 -231q-103 -49 -309 -50h-167v235h170q151 0 186 5q130 20 130 99q0 62 -141 185q-155 135 -176 187q3 50 20 113
q20 72 44 85q260 136 902 335l-28 -214q-168 -44 -274 -74q-300 -86 -469 -155q-37 -15 -10 -35q125 -93 335 -295q160 -154 182 -170q92 -66 214 -66h50v-235zM952 866q0 -68 -42 -117q-45 -51 -112 -51q-58 0 -96 37t-38 94q0 97 47 154q37 47 82 47q50 0 101 -42
q58 -50 58 -122zM888 858q0 41 -33 67q-30 24 -73 24q-21 0 -41 -31.5t-20 -54.5q0 -73 79 -73q33 0 59 17q29 19 29 51z" />
    <glyph glyph-name="uni06B0.fina" unicode="&#x6b0;" horiz-adv-x="2013" 
d="M2024 1442l-14 -114q-198 -60 -363 -112q-389 -124 -525 -187l28 113q161 81 874 300zM2013 0h-96q-119 1 -249 91q-108 75 -194 188q0 -176 -221 -262q-184 -72 -493 -72q-595 0 -595 348q0 105 77 258l151 -47q-44 -96 -44 -137q0 -85 65 -126q97 -61 356 -61h41
q161 0 301 26q233 42 233 139q0 67 -132 185q-148 132 -168 181q3 55 19 114q19 71 44 84q262 137 902 335l-27 -214q-160 -42 -273 -74q-300 -86 -470 -155q-23 -9 -23 -19q0 -7 13 -16q142 -101 335 -295q137 -138 190 -174q91 -62 206 -62h52v-235zM1858 866
q0 -68 -42 -117q-45 -51 -112 -51q-58 0 -96 37t-38 94q0 97 47 154q37 47 82 47q50 0 101 -42q58 -50 58 -122zM1794 858q0 41 -33 67q-30 24 -73 24q-21 0 -41 -31.5t-20 -54.5q0 -73 79 -73q33 0 59 17q29 19 29 51z" />
    <glyph glyph-name="uni06B2.init" unicode="&#x6b2;" horiz-adv-x="987" 
d="M996 1483l-14 -116q-205 -64 -338 -108q-361 -120 -503 -185l27 110q184 86 828 299zM982 1266l-30 -225q-343 -84 -351 -86q-204 -54 -339 -115q-37 -17 -12 -33q380 -246 380 -443q0 -213 -141 -297q-111 -66 -343 -67h-216v235h224q146 0 208 12q98 19 98 73
q0 73 -182 218q-202 161 -223 211q2 42 22 111q25 82 50 95q261 137 855 311zM723 -241l-110 -149l-136 96l-80 -112l-172 117l110 149l144 -99l79 112z" />
    <glyph glyph-name="uni06B2.medi" unicode="&#x6b2;" horiz-adv-x="1065" 
d="M1078 1442l-13 -114q-184 -55 -363 -112q-392 -125 -526 -187l28 113q161 81 874 300zM1065 0h-94q-116 1 -243 92q-112 80 -183 189q0 -165 -139 -231q-103 -49 -309 -50h-167v235h170q151 0 186 5q130 20 130 99q0 62 -141 185q-155 135 -176 187q3 50 20 113
q20 72 44 85q260 136 902 335l-28 -214q-168 -44 -274 -74q-300 -86 -469 -155q-37 -15 -10 -35q125 -93 335 -295q160 -154 182 -170q92 -66 214 -66h50v-235zM756 -246l-110 -149l-136 96l-80 -112l-172 117l110 149l144 -99l79 112z" />
    <glyph glyph-name="uni06B2.fina" unicode="&#x6b2;" horiz-adv-x="2013" 
d="M2024 1442l-14 -114q-198 -60 -363 -112q-389 -124 -525 -187l28 113q161 81 874 300zM2013 0h-96q-119 1 -249 91q-108 75 -194 188q0 -176 -221 -262q-184 -72 -493 -72q-595 0 -595 348q0 105 77 258l151 -47q-44 -96 -44 -137q0 -85 65 -126q97 -61 356 -61h41
q161 0 301 26q233 42 233 139q0 67 -132 185q-148 132 -168 181q3 55 19 114q19 71 44 84q262 137 902 335l-27 -214q-160 -42 -273 -74q-300 -86 -470 -155q-23 -9 -23 -19q0 -7 13 -16q142 -101 335 -295q137 -138 190 -174q91 -62 206 -62h52v-235zM1069 -295l-110 -149
l-136 96l-80 -112l-172 117l110 149l144 -99l79 112z" />
    <glyph glyph-name="uni06B4.init" unicode="&#x6b4;" horiz-adv-x="987" 
d="M996 1483l-14 -116q-205 -64 -338 -108q-361 -120 -503 -185l27 110q184 86 828 299zM982 1266l-30 -225q-343 -84 -351 -86q-204 -54 -339 -115q-37 -17 -12 -33q380 -246 380 -443q0 -213 -141 -297q-111 -66 -343 -67h-216v235h224q146 0 208 12q98 19 98 73
q0 73 -182 218q-202 161 -223 211q2 42 22 111q25 82 50 95q261 137 855 311zM184 1502l102 140l133 -89l77 104l156 -104l-106 -139l-133 88l-72 -104zM263 1748l103 136l144 -97l-101 -137z" />
    <glyph glyph-name="uni06B4.medi" unicode="&#x6b4;" horiz-adv-x="1065" 
d="M1078 1442l-13 -114q-184 -55 -363 -112q-392 -125 -526 -187l28 113q161 81 874 300zM1065 0h-94q-116 1 -243 92q-112 80 -183 189q0 -165 -139 -231q-103 -49 -309 -50h-167v235h170q151 0 186 5q130 20 130 99q0 62 -141 185q-155 135 -176 187q3 50 20 113
q20 72 44 85q260 136 902 335l-28 -214q-168 -44 -274 -74q-300 -86 -469 -155q-37 -15 -10 -35q125 -93 335 -295q160 -154 182 -170q92 -66 214 -66h50v-235zM261 1473l102 140l133 -89l77 104l156 -104l-106 -139l-133 88l-72 -104zM340 1719l103 136l144 -97l-101 -137z
" />
    <glyph glyph-name="uni06B4.fina" unicode="&#x6b4;" horiz-adv-x="2013" 
d="M2024 1442l-14 -114q-198 -60 -363 -112q-389 -124 -525 -187l28 113q161 81 874 300zM2013 0h-96q-119 1 -249 91q-108 75 -194 188q0 -176 -221 -262q-184 -72 -493 -72q-595 0 -595 348q0 105 77 258l151 -47q-44 -96 -44 -137q0 -85 65 -126q97 -61 356 -61h41
q161 0 301 26q233 42 233 139q0 67 -132 185q-148 132 -168 181q3 55 19 114q19 71 44 84q262 137 902 335l-27 -214q-160 -42 -273 -74q-300 -86 -470 -155q-23 -9 -23 -19q0 -7 13 -16q142 -101 335 -295q137 -138 190 -174q91 -62 206 -62h52v-235zM1177 1466l102 140
l133 -89l77 104l156 -104l-106 -139l-133 88l-72 -104zM1256 1712l103 136l144 -97l-101 -137z" />
    <glyph glyph-name="uni06B5.init" unicode="&#x6b5;" horiz-adv-x="421" 
d="M372 425q0 -196 -41 -285q-64 -139 -245 -140h-156v235h106q106 0 135 35q25 31 22 133l-25 748l204 82v-808zM394 1571q-15 -12 -37.5 -41.5t-45.5 -69t-43.5 -85.5t-31.5 -91h-28l-1 3q-12 44 -32.5 89.5t-43.5 85t-45 68.5t-36 41l108 2q21 -32 36.5 -78t26.5 -96
q11 50 27 96t38 78z" />
    <glyph glyph-name="uni06B5.medi" unicode="&#x6b5;" horiz-adv-x="542" 
d="M542 0h-63q-55 1 -116 38.5t-80 86.5q-61 -124 -197 -125h-156v235h106q110 0 138 35q23 28 19 133l-25 748l204 82v-808q0 -80 35 -131q40 -59 116 -59h19v-235zM416 1583q-15 -12 -37.5 -41.5t-45.5 -69t-43.5 -85.5t-31.5 -91h-28l-1 3q-12 44 -32.5 89.5t-43.5 85
t-45 68.5t-36 41l108 2q21 -32 36.5 -78t26.5 -96q11 50 27 96t38 78z" />
    <glyph glyph-name="uni06B5.fina" unicode="&#x6b5;" horiz-adv-x="1257" 
d="M1110 1570q-15 -12 -37.5 -41.5t-45.5 -69t-43.5 -85.5t-31.5 -91h-28l-1 3q-12 44 -32.5 89.5t-43.5 85t-45 68.5t-36 41l108 2q21 -32 36.5 -78t26.5 -96q11 50 27 96t38 78zM1257 0h-29q-37 0 -82 26t-62 58q-9 -235 -105 -382q-127 -194 -391 -194q-242 0 -362 152
q-97 122 -97 313q0 151 83 320l156 -55q-59 -135 -59 -220q0 -135 80 -207q77 -69 213 -69q330 0 317 358l-39 1051l204 82v-808q0 -190 159 -190h14v-235z" />
    <glyph glyph-name="uni06B6.init" unicode="&#x6b6;" horiz-adv-x="421" 
d="M372 425q0 -196 -41 -285q-64 -139 -245 -140h-156v235h106q106 0 135 35q25 31 22 133l-25 748l204 82v-808zM361 1494l-124 -164l-169 112l124 166z" />
    <glyph glyph-name="uni06B6.medi" unicode="&#x6b6;" horiz-adv-x="542" 
d="M542 0h-63q-55 1 -116 38.5t-80 86.5q-61 -124 -197 -125h-156v235h106q110 0 138 35q23 28 19 133l-25 748l204 82v-808q0 -80 35 -131q40 -59 116 -59h19v-235zM371 1479l-124 -164l-169 112l124 166z" />
    <glyph glyph-name="uni06B6.fina" unicode="&#x6b6;" horiz-adv-x="1257" 
d="M1078 1481l-124 -164l-169 112l124 166zM1257 0h-29q-37 0 -82 26t-62 58q-9 -235 -105 -382q-127 -194 -391 -194q-242 0 -362 152q-97 122 -97 313q0 151 83 320l156 -55q-59 -135 -59 -220q0 -135 80 -207q77 -69 213 -69q330 0 317 358l-39 1051l204 82v-808
q0 -190 159 -190h14v-235z" />
    <glyph glyph-name="uni06B7.init" unicode="&#x6b7;" horiz-adv-x="421" 
d="M372 425q0 -196 -41 -285q-64 -139 -245 -140h-156v235h106q106 0 135 35q25 31 22 133l-25 748l204 82v-808zM-35 1405l102 140l133 -89l77 104l156 -104l-106 -139l-133 88l-72 -104zM44 1651l103 136l144 -97l-101 -137z" />
    <glyph glyph-name="uni06B7.medi" unicode="&#x6b7;" horiz-adv-x="542" 
d="M542 0h-63q-55 1 -116 38.5t-80 86.5q-61 -124 -197 -125h-156v235h106q110 0 138 35q23 28 19 133l-25 748l204 82v-808q0 -80 35 -131q40 -59 116 -59h19v-235zM-14 1398l102 140l133 -89l77 104l156 -104l-106 -139l-133 88l-72 -104zM65 1644l103 136l144 -97
l-101 -137z" />
    <glyph glyph-name="uni06B7.fina" unicode="&#x6b7;" horiz-adv-x="1257" 
d="M674 1416l102 140l133 -89l77 104l156 -104l-106 -139l-133 88l-72 -104zM753 1662l103 136l144 -97l-101 -137zM1257 0h-29q-37 0 -82 26t-62 58q-9 -235 -105 -382q-127 -194 -391 -194q-242 0 -362 152q-97 122 -97 313q0 151 83 320l156 -55q-59 -135 -59 -220
q0 -135 80 -207q77 -69 213 -69q330 0 317 358l-39 1051l204 82v-808q0 -190 159 -190h14v-235z" />
    <glyph glyph-name="uni06B8.init" unicode="&#x6b8;" horiz-adv-x="421" 
d="M372 425q0 -196 -41 -285q-64 -139 -245 -140h-156v235h106q106 0 135 35q25 31 22 133l-25 748l204 82v-808zM403 -304l-102 -140l-133 89l-77 -104l-157 104l107 139l133 -88l72 105zM329 -549l-103 -137l-144 98l101 136z" />
    <glyph glyph-name="uni06B8.medi" unicode="&#x6b8;" horiz-adv-x="542" 
d="M542 0h-63q-55 1 -116 38.5t-80 86.5q-61 -124 -197 -125h-156v235h106q110 0 138 35q23 28 19 133l-25 748l204 82v-808q0 -80 35 -131q40 -59 116 -59h19v-235zM479 -298l-102 -140l-133 89l-77 -104l-157 104l107 139l133 -88l72 105zM405 -543l-103 -137l-144 98
l101 136z" />
    <glyph glyph-name="uni06B8.fina" unicode="&#x6b8;" horiz-adv-x="1257" 
d="M828 -709l-102 -140l-133 89l-77 -104l-157 104l107 139l133 -88l72 105zM754 -954l-103 -137l-144 98l101 136zM1257 0h-29q-37 0 -82 26t-62 58q-9 -235 -105 -382q-127 -194 -391 -194q-242 0 -362 152q-97 122 -97 313q0 151 83 320l156 -55q-59 -135 -59 -220
q0 -135 80 -207q77 -69 213 -69q330 0 317 358l-39 1051l204 82v-808q0 -190 159 -190h14v-235z" />
    <glyph glyph-name="uni06B9.init" unicode="&#x6b9;" horiz-adv-x="436" 
d="M388 328q0 -160 -99 -246q-94 -81 -258 -82h-101v235h201q105 0 105 52q0 32 -46 91l-69 88l132 190q135 -135 135 -328zM311 949l-124 -164l-169 112l124 166zM343 -320l-124 -164l-169 112l124 166z" />
    <glyph glyph-name="uni06B9.medi" unicode="&#x6b9;" horiz-adv-x="509" 
d="M509 0h-19q-144 1 -190 106q-75 -105 -239 -106h-131v235h123q154 0 154 107v80l167 55v-50q0 -192 124 -192h11v-235zM388 819l-124 -164l-169 112l124 166zM409 -281l-124 -164l-169 112l124 166z" />
    <glyph glyph-name="uni06B9.fina" unicode="&#x6b9;" horiz-adv-x="1293" 
d="M757 680l-124 -164l-169 112l124 166zM779 -762l-124 -164l-169 112l124 166zM1293 1h-25q-105 0 -135 41q0 -242 -149 -401q-152 -163 -393 -163q-242 0 -362 152q-97 122 -97 313q0 153 83 319l156 -55q-55 -142 -55 -220q0 -134 81 -206q78 -69 214 -69q145 0 240 81
q101 85 101 227q0 137 -99 270l176 165q57 -114 75 -139q58 -81 134 -81h55v-234z" />
    <glyph glyph-name="uni06BC.init" unicode="&#x6bc;" horiz-adv-x="436" 
d="M388 328q0 -160 -99 -246q-94 -81 -258 -82h-101v235h201q105 0 105 52q0 32 -46 91l-69 88l132 190q135 -135 135 -328zM292 962l-124 -164l-169 112l124 166zM379 -75q0 -68 -42 -117q-45 -51 -112 -51q-58 0 -96 37t-38 94q0 97 47 154q37 47 82 47q50 0 101 -42
q58 -50 58 -122zM315 -83q0 41 -33 67q-30 24 -73 24q-21 0 -41 -31.5t-20 -54.5q0 -73 79 -73q33 0 59 17q29 19 29 51z" />
    <glyph glyph-name="uni06BC.medi" unicode="&#x6bc;" horiz-adv-x="509" 
d="M509 0h-19q-144 1 -190 106q-75 -105 -239 -106h-131v235h123q154 0 154 107v80l167 55v-50q0 -192 124 -192h11v-235zM406 790l-124 -164l-169 112l124 166zM310 -105q0 -68 -42 -117q-45 -51 -112 -51q-58 0 -96 37t-38 94q0 97 47 154q37 47 82 47q50 0 101 -42
q58 -50 58 -122zM246 -113q0 41 -33 67q-30 24 -73 24q-21 0 -41 -31.5t-20 -54.5q0 -73 79 -73q33 0 59 17q29 19 29 51z" />
    <glyph glyph-name="uni06BC.fina" unicode="&#x6bc;" horiz-adv-x="1293" 
d="M765 648l-124 -164l-169 112l124 166zM1293 1h-25q-105 0 -135 41q0 -242 -149 -401q-152 -163 -393 -163q-242 0 -362 152q-97 122 -97 313q0 153 83 319l156 -55q-55 -142 -55 -220q0 -134 81 -206q78 -69 214 -69q145 0 240 81q101 85 101 227q0 137 -99 270l176 165
q57 -114 75 -139q58 -81 134 -81h55v-234zM756 -599q0 -68 -42 -117q-45 -51 -112 -51q-58 0 -96 37t-38 94q0 97 47 154q37 47 82 47q50 0 101 -42q58 -50 58 -122zM692 -607q0 41 -33 67q-30 24 -73 24q-21 0 -41 -31.5t-20 -54.5q0 -73 79 -73q33 0 59 17q29 19 29 51z
" />
    <glyph glyph-name="uni06BD.fina" unicode="&#x6bd;" horiz-adv-x="1293" 
d="M1293 1h-25q-105 0 -135 41q0 -242 -149 -401q-152 -163 -393 -163q-242 0 -362 152q-97 122 -97 313q0 153 83 319l156 -55q-55 -142 -55 -220q0 -134 81 -206q78 -69 214 -69q145 0 240 81q101 85 101 227q0 137 -99 270l176 165q57 -114 75 -139q58 -81 134 -81h55
v-234zM391 561l102 140l133 -89l77 104l156 -104l-106 -139l-133 88l-72 -104zM470 807l103 136l144 -97l-101 -137z" />
    <glyph glyph-name="uni06BF.init" unicode="&#x6bf;" horiz-adv-x="1081" 
d="M1078 516l-27 -210q-126 0 -267 -79q-85 -51 -259 -147q-156 -79 -357 -79h-238v234h235q150 0 286 46q15 5 221 80q-35 4 -174 45q-128 38 -157 38q-38 0 -64 -27q-18 -24 -37 -47q-91 36 -152 71q91 219 220 219q85 0 320.5 -74t366.5 -74q42 0 83 4zM836 -221
l-102 -140l-133 89l-77 -104l-157 104l107 139l133 -88l72 105zM762 -466l-103 -137l-144 98l101 136zM780 905l-124 -164l-169 112l124 166z" />
    <glyph glyph-name="uni06BF.medi" unicode="&#x6bf;" horiz-adv-x="1208" 
d="M1208 1h-198q-235 0 -240 292q-60 -33 -181 -127q-106 -82 -178 -115q-108 -50 -237 -50h-244v234h213q150 0 274 63q68 37 205 110q-39 4 -157 25q-107 19 -124 19q-43 0 -96 -82q-95 39 -151 71q96 239 220 239q107 0 334 -53t344 -53q59 0 111 6l-27 -227
q-98 0 -186 -27q10 -42 29 -59q36 -32 124 -32h165v-234zM778 -258l-102 -140l-133 89l-77 -104l-157 104l107 139l133 -88l72 105zM704 -503l-103 -137l-144 98l101 136zM780 945l-124 -164l-169 112l124 166z" />
    <glyph glyph-name="uni06BF.fina" unicode="&#x6bf;" horiz-adv-x="1318" 
d="M1318 1h-212q-235 0 -231 322q-197 -63 -341 -196q-154 -143 -154 -289q0 -344 514 -344q188 0 324 45l64 -201q-203 -77 -421 -77q-311 0 -487 117q-209 139 -209 433q0 187 163 357q129 135 324 226q-177 22 -220 22q-47 0 -96 -79q-99 41 -154 74q95 236 222 236
q97 0 295 -22.5t298 -22.5q109 0 197 10l-28 -240q-81 0 -170 -16q7 -51 23 -74q33 -47 120 -47h179v-234zM945 -67l-102 -140l-133 89l-77 -104l-157 104l107 139l133 -88l72 105zM871 -312l-103 -137l-144 98l101 136zM862 948l-124 -164l-169 112l124 166z" />
    <glyph glyph-name="uni06C4.fina" unicode="&#x6c4;" horiz-adv-x="745" 
d="M745 0h-77q-37 -160 -187 -304q-136 -130 -305 -196l-147 139q142 53 287 157q157 113 191 201q-164 0 -235 35q-105 51 -105 195q0 94 54 198q67 130 171 130q123 0 200 -109q62 -87 78 -211h75v-235zM511 234q-5 45 -38 85q-37 43 -80 43q-29 0 -55.5 -26t-26.5 -55
q0 -60 99 -60q47 0 101 13zM500 -537q0 -68 -42 -117q-45 -51 -112 -51q-58 0 -96 37t-38 94q0 97 47 154q37 47 82 47q50 0 101 -42q58 -50 58 -122zM436 -545q0 41 -33 67q-30 24 -73 24q-21 0 -41 -31.5t-20 -54.5q0 -73 79 -73q33 0 59 17q29 19 29 51z" />
    <glyph glyph-name="uni06CA.fina" unicode="&#x6ca;" horiz-adv-x="745" 
d="M745 0h-77q-37 -160 -187 -304q-136 -130 -305 -196l-147 139q142 53 287 157q157 113 191 201q-164 0 -235 35q-105 51 -105 195q0 94 54 198q67 130 171 130q123 0 200 -109q62 -87 78 -211h75v-235zM511 234q-5 45 -38 85q-37 43 -80 43q-29 0 -55.5 -26t-26.5 -55
q0 -60 99 -60q47 0 101 13zM615 822l-110 -149l-136 96l-80 -112l-172 117l110 149l144 -99l79 112z" />
    <glyph glyph-name="uni06CD.fina" unicode="&#x6cd;" horiz-adv-x="1240" 
d="M1240 0h-29q-65 5 -214 15q-29 2 -40 2q-100 0 -100 -30q0 -19 40 -25q71 -11 213 -32q111 -31 111 -117q0 -106 -149 -211q-177 -124 -435 -124q-279 0 -409 140q-104 112 -104 300q0 128 62 259l-195 -71l14 76l213 56l156 -55q-21 -35 -41 -104q-22 -72 -22 -109
q0 -256 338 -256q236 0 350 47q35 14 35 26q0 11 -30 15q-22 3 -189 22q-146 35 -146 132q0 139 183 218q143 61 303 61h85v-235z" />
    <glyph glyph-name="uni06CE.init" unicode="&#x6ce;" horiz-adv-x="436" 
d="M388 328q0 -160 -99 -246q-94 -81 -258 -82h-101v235h201q105 0 105 52q0 32 -46 91l-69 88l132 190q135 -135 135 -328zM323 979q-15 -12 -37.5 -41.5t-45.5 -69t-43.5 -85.5t-31.5 -91h-28l-1 3q-12 44 -32.5 89.5t-43.5 85t-45 68.5t-36 41l108 2q21 -32 36.5 -78
t26.5 -96q11 50 27 96t38 78zM435 -324l-110 -149l-136 96l-80 -112l-172 117l110 149l144 -99l79 112z" />
    <glyph glyph-name="uni06CE.medi" unicode="&#x6ce;" horiz-adv-x="509" 
d="M509 0h-19q-144 1 -190 106q-75 -105 -239 -106h-131v235h123q154 0 154 107v80l167 55v-50q0 -192 124 -192h11v-235zM453 863q-15 -12 -37.5 -41.5t-45.5 -69t-43.5 -85.5t-31.5 -91h-28l-1 3q-12 44 -32.5 89.5t-43.5 85t-45 68.5t-36 41l108 2q21 -32 36.5 -78
t26.5 -96q11 50 27 96t38 78zM490 -286l-110 -149l-136 96l-80 -112l-172 117l110 149l144 -99l79 112z" />
    <glyph glyph-name="uni06CE.fina" unicode="&#x6ce;" horiz-adv-x="1240" 
d="M1240 0h-29q-65 5 -214 15q-29 2 -40 2q-100 0 -100 -30q0 -19 40 -25q71 -11 213 -32q111 -31 111 -117q0 -106 -149 -211q-177 -124 -435 -124q-279 0 -409 140q-104 112 -104 300q0 158 94 320l156 -55q-21 -35 -41 -104q-22 -72 -22 -109q0 -256 338 -256
q236 0 350 47q35 14 35 26q0 11 -30 15q-22 3 -189 22q-146 35 -146 132q0 139 183 218q143 61 303 61h85v-235zM667 643q-15 -12 -37.5 -41.5t-45.5 -69t-43.5 -85.5t-31.5 -91h-28l-1 3q-12 44 -32.5 89.5t-43.5 85t-45 68.5t-36 41l108 2q21 -32 36.5 -78t26.5 -96
q11 50 27 96t38 78z" />
    <glyph glyph-name="uni06CF.fina" unicode="&#x6cf;" horiz-adv-x="745" 
d="M745 0h-77q-37 -160 -187 -304q-136 -130 -305 -196l-147 139q142 53 287 157q157 113 191 201q-164 0 -235 35q-105 51 -105 195q0 94 54 198q67 130 171 130q123 0 200 -109q62 -87 78 -211h75v-235zM511 234q-5 45 -38 85q-37 43 -80 43q-29 0 -55.5 -26t-26.5 -55
q0 -60 99 -60q47 0 101 13zM529 865l-124 -164l-169 112l124 166z" />
    <glyph glyph-name="uni06D1.fina" unicode="&#x6d1;" horiz-adv-x="1240" 
d="M867 -738l-102 -140l-133 89l-77 -104l-157 104l107 139l133 -88l72 105zM793 -983l-103 -137l-144 98l101 136zM1240 0h-29q-65 5 -214 15q-29 2 -40 2q-100 0 -100 -30q0 -19 40 -25q71 -11 213 -32q111 -31 111 -117q0 -106 -149 -211q-177 -124 -435 -124
q-279 0 -409 140q-104 112 -104 300q0 158 94 320l156 -55q-21 -35 -41 -104q-22 -72 -22 -109q0 -256 338 -256q236 0 350 47q35 14 35 26q0 11 -30 15q-22 3 -189 22q-146 35 -146 132q0 139 183 218q143 61 303 61h85v-235z" />
    <glyph glyph-name="uni06FA.init" unicode="&#x6fa;" horiz-adv-x="1158" 
d="M1120 331q0 -121 -64 -220q-74 -113 -189 -113q-159 0 -231 108q-61 -105 -176 -105q-144 0 -204 105q-30 -49 -98 -78q-62 -28 -125 -28h-103v235h123q56 0 92.5 33t36.5 88v60l143 47v-63q0 -60 23 -106q30 -59 84 -59q143 0 143 129v80l146 44v-102q0 -66 38 -110
q40 -47 105 -47q88 0 88 83q0 77 -69 140l143 160q94 -103 94 -281zM424 780l102 140l133 -89l77 104l156 -104l-106 -139l-133 88l-72 -104zM503 1026l103 136l144 -97l-101 -137zM768 -274l-124 -164l-169 112l124 166z" />
    <glyph glyph-name="uni06FA.medi" unicode="&#x6fa;" horiz-adv-x="1213" 
d="M1213 0h-33q-129 1 -195 106q-65 -105 -184 -105q-114 0 -168 105q-81 -105 -195 -105q-121 0 -171 105q-66 -105 -192 -106h-145v235h150q85 0 85 102v74l146 49v-66q0 -159 132 -159q107 0 107 102v74l143 49v-66q0 -159 113 -159q127 0 127 102v74l145 49v-66
q0 -96 9 -117q18 -42 101 -42h25v-235zM363 727l102 140l133 -89l77 104l156 -104l-106 -139l-133 88l-72 -104zM442 973l103 136l144 -97l-101 -137zM740 -251l-124 -164l-169 112l124 166z" />
    <glyph glyph-name="uni06FA.fina" unicode="&#x6fa;" horiz-adv-x="2026" 
d="M2026 0h-39q-80 0 -127 31q-35 22 -68 75q-64 -105 -184 -105q-113 0 -168 105q-79 -105 -190 -105q-92 0 -121 41q0 -242 -149 -401q-152 -163 -393 -163q-242 0 -362 152q-97 122 -97 313q0 153 83 319l156 -55q-55 -142 -55 -220q0 -134 81 -206q78 -69 214 -69
q145 0 240 81q101 85 101 227q0 137 -99 270l176 165q37 -76 95 -139q74 -81 130 -81q107 0 107 102v74l143 49v-66q0 -159 113 -159q127 0 127 102v74l145 49v-66q0 -97 9 -117q19 -42 101 -42h31v-235zM1178 726l102 140l133 -89l77 104l156 -104l-106 -139l-133 88
l-72 -104zM1257 972l103 136l144 -97l-101 -137zM1563 -325l-124 -164l-169 112l124 166z" />
    <glyph glyph-name="uni06FB.init" unicode="&#x6fb;" horiz-adv-x="1337" 
d="M1285 438q0 -211 -195 -333q-167 -104 -391 -104h-204q-168 0 -231 91q-61 -91 -192 -91h-142v234h117q129 0 129 118v69l157 44v-83q0 -73 11 -100q18 -45 77 -45q40 0 94 66q312 382 508 382q113 0 187.5 -68t74.5 -180zM1120 378q0 85 -143 85q-92 0 -203 -91
q-22 -18 -136 -132h99q107 0 219 26q164 39 164 112zM674 874l-124 -164l-169 112l124 166zM664 -309l-124 -164l-169 112l124 166z" />
    <glyph glyph-name="uni06FB.medi" unicode="&#x6fb;" horiz-adv-x="1367" 
d="M1367 1h-30q-151 0 -234 110q-132 -110 -379 -110h-231q-170 0 -229 91q-61 -91 -192 -91h-142v234h117q129 0 129 118v69l157 44v-83q0 -73 11 -100q18 -45 77 -45q38 0 91 66q308 382 509 382q114 0 187.5 -67.5t73.5 -180.5q0 -103 -47 -184q10 -19 116 -19h16v-234z
M1117 378q0 85 -143 85q-92 0 -203 -91q-28 -23 -135 -132h99q107 0 219 26q163 39 163 112zM700 878l-124 -164l-169 112l124 166zM684 -272l-124 -164l-169 112l124 166z" />
    <glyph glyph-name="uni06FB.fina" unicode="&#x6fb;" horiz-adv-x="2178" 
d="M2178 1h-28q-152 0 -236 110q-130 -110 -379 -110h-143q-186 0 -223 41q0 -242 -149 -401q-152 -163 -393 -163q-242 0 -362 152q-97 122 -97 313q0 153 83 319l156 -55q-55 -142 -55 -220q0 -134 81 -206q78 -69 214 -69q145 0 240 81q101 85 101 227q0 137 -99 270
l176 165q89 -215 167 -215q35 0 53 17q340 429 547 429q114 0 187.5 -67.5t73.5 -180.5q0 -104 -47 -184q10 -19 116 -19h16v-234zM1928 372q0 86 -143 86q-91 0 -203 -92q-22 -18 -135 -131h99q107 0 219 26q163 38 163 111zM1525 843l-124 -164l-169 112l124 166z
M1531 -335l-124 -164l-169 112l124 166z" />
    <glyph glyph-name="uni06FC.init" unicode="&#x6fc;" horiz-adv-x="854" 
d="M803 309q-26 -196 -24 -206q-443 -102 -704 -103h-145v235h249l-32 68q-15 44 -15 116q0 96 76 185q88 104 219 104q71 0 146 -34q79 -36 120 -90l-63 -126q-89 49 -190 49q-53 0 -101 -22q-61 -28 -61 -74q0 -55 74.5 -102.5t148.5 -45.5q102 3 302 46zM538 1034
l-124 -164l-169 112l124 166zM598 -299l-124 -164l-169 112l124 166z" />
    <glyph glyph-name="uni06FC.medi" unicode="&#x6fc;" horiz-adv-x="781" 
d="M781 0h-133q-168 1 -257 139q-182 -138 -374 -139h-87v235h95q219 0 267 80q0 34 -67 53q-48 13 -93 13v27q0 96 70 164q87 84 252 84q84 0 143 -33q72 -41 72 -119q0 -103 -57 -167q-44 -38 -89 -75q18 -27 146 -27h112v-235zM523 988l-124 -164l-169 112l124 166z
M528 -271l-124 -164l-169 112l124 166z" />
    <glyph glyph-name="uni06FC.fina" unicode="&#x6fc;" horiz-adv-x="1078" 
d="M1183 -671q-155 -66 -374 -66q-281 0 -447 110q-197 130 -197 396q0 212 157 393q50 58 214 188q0 53 -162 53v30q0 102 75 173q93 88 269 88q76 0 143 -35q80 -43 80 -113q0 -106 -50 -173q-29 -39 -102 -89q21 -49 154 -49h135v-235h-187q-184 1 -261 174
q-108 -57 -186 -163q-86 -116 -86 -228q0 -161 174 -234q125 -52 311 -52q159 0 271 36zM797 1031l-124 -164l-169 112l124 166zM811 -194l-124 -164l-169 112l124 166z" />
    <glyph glyph-name="uniFB51" unicode="&#x671;" horiz-adv-x="561" arabic-form="final" 
d="M561 0h-38q-209 1 -282 138q-47 88 -54 309l-22 704l204 82v-814q0 -184 147 -184h45v-235zM110 1339q-15 9 -35 11.5t-39 1.5v26q20 11 43 13q46 4 79 -16q43 51 81 79.5t61 35.5q29 10 50 0.5t32 -28.5t10.5 -43t-13.5 -44q-26 -34 -66 -50.5t-93 -15.5t-110 30z
M298 1449q-31 -10 -58.5 -31.5t-57.5 -49.5q7 -5 32.5 -6t54.5 2t56 11.5t37 23.5q1 8 -2 18.5t-10.5 19.5t-20 13t-31.5 -1z" />
    <glyph glyph-name="uniFB53" unicode="&#x67b;" horiz-adv-x="1733" arabic-form="final" 
d="M1733 0h-39q-152 1 -209 119q-77 -102 -342 -147q-175 -30 -384 -30q-594 0 -594 349q0 104 77 257l151 -47q-44 -96 -44 -137q0 -85 65 -126q96 -60 356 -60h88q214 0 315 15q238 35 238 149v52l167 55v-48q0 -94 29 -128q32 -38 123 -38h3v-235zM811 -412l-113 114
l113 112l112 -112zM811 -636l-113 114l113 112l112 -112z" />
    <glyph glyph-name="uniFB54" unicode="&#x67b;" horiz-adv-x="436" arabic-form="initial" 
d="M388 328q0 -160 -99 -246q-94 -81 -258 -82h-101v235h201q105 0 105 52q0 32 -46 91l-69 88l132 190q135 -135 135 -328zM216 -342l-113 114l113 112l112 -112zM216 -566l-113 114l113 112l112 -112z" />
    <glyph glyph-name="uniFB55" unicode="&#x67b;" horiz-adv-x="509" arabic-form="medial" 
d="M509 0h-19q-144 1 -190 106q-75 -105 -239 -106h-131v235h123q154 0 154 107v80l167 55v-50q0 -192 124 -192h11v-235zM258 -347l-113 114l113 112l112 -112zM258 -571l-113 114l113 112l112 -112z" />
    <glyph glyph-name="afii62958" unicode="&#x67e;" horiz-adv-x="1733" arabic-form="final" 
d="M1733 0h-39q-152 1 -209 119q-77 -102 -342 -147q-175 -30 -384 -30q-594 0 -594 349q0 104 77 257l151 -47q-44 -96 -44 -137q0 -85 65 -126q96 -60 356 -60h88q214 0 315 15q238 35 238 149v52l167 55v-48q0 -94 29 -128q32 -38 123 -38h3v-235zM1053 -315l-102 -140
l-133 89l-77 -104l-157 104l107 139l133 -88l72 105zM979 -560l-103 -137l-144 98l101 136z" />
    <glyph glyph-name="afii62956" unicode="&#x67e;" horiz-adv-x="436" arabic-form="initial" 
d="M388 328q0 -160 -99 -246q-94 -81 -258 -82h-101v235h201q105 0 105 52q0 32 -46 91l-69 88l132 190q135 -135 135 -328zM429 -309l-102 -140l-133 89l-77 -104l-157 104l107 139l133 -88l72 105zM355 -554l-103 -137l-144 98l101 136z" />
    <glyph glyph-name="afii52957" unicode="&#x67e;" horiz-adv-x="509" arabic-form="medial" 
d="M509 0h-19q-144 1 -190 106q-75 -105 -239 -106h-131v235h123q154 0 154 107v80l167 55v-50q0 -192 124 -192h11v-235zM474 -303l-102 -140l-133 89l-77 -104l-157 104l107 139l133 -88l72 105zM400 -548l-103 -137l-144 98l101 136z" />
    <glyph glyph-name="uniFB5B" unicode="&#x680;" horiz-adv-x="1733" arabic-form="final" 
d="M1733 0h-39q-152 1 -209 119q-77 -102 -342 -147q-175 -30 -384 -30q-594 0 -594 349q0 104 77 257l151 -47q-44 -96 -44 -137q0 -85 65 -126q96 -60 356 -60h88q214 0 315 15q238 35 238 149v52l167 55v-48q0 -94 29 -128q32 -38 123 -38h3v-235zM983 -600l-116 117
l116 116l117 -116zM742 -600l-117 117l117 116l116 -116zM862 -426l-116 116l116 117l117 -117zM867 -768l-117 117l117 116l116 -116z" />
    <glyph glyph-name="uniFB5C" unicode="&#x680;" horiz-adv-x="436" arabic-form="initial" 
d="M388 328q0 -160 -99 -246q-94 -81 -258 -82h-101v235h201q105 0 105 52q0 32 -46 91l-69 88l132 190q135 -135 135 -328zM323.505 -507.951l-108.785 109.602l108.785 108.666l109.724 -108.666zM97.4941 -507.951l-109.724 109.602l109.724 108.666l108.785 -108.666z
M210.03 -344.953l-108.785 108.665l108.785 109.602l109.724 -109.602zM214.72 -665.328l-109.724 109.602l109.724 108.666l108.785 -108.666z" />
    <glyph glyph-name="uniFB5D" unicode="&#x680;" horiz-adv-x="509" arabic-form="medial" 
d="M509 0h-19q-144 1 -190 106q-75 -105 -239 -106h-131v235h123q154 0 154 107v80l167 55v-50q0 -192 124 -192h11v-235zM379.587 -516.105l-109.896 110.744l109.896 109.799l110.845 -109.799zM151.267 -516.105l-110.845 110.744l110.845 109.799l109.897 -109.799z
M264.953 -351.408l-109.896 109.798l109.896 110.744l110.845 -110.744zM269.69 -675.123l-110.845 110.744l110.845 109.799l109.896 -109.799z" />
    <glyph glyph-name="uniFB5F" unicode="&#x67a;" horiz-adv-x="1733" arabic-form="final" 
d="M1733 0h-39q-152 1 -209 119q-77 -102 -342 -147q-175 -30 -384 -30q-594 0 -594 349q0 104 77 257l151 -47q-44 -96 -44 -137q0 -85 65 -126q96 -60 356 -60h88q214 0 315 15q238 35 238 149v52l167 55v-48q0 -94 29 -128q32 -38 123 -38h3v-235zM915 838l-113 114
l113 112l112 -112zM915 614l-113 114l113 112l112 -112z" />
    <glyph glyph-name="uniFB60" unicode="&#x67a;" horiz-adv-x="436" arabic-form="initial" 
d="M388 328q0 -160 -99 -246q-94 -81 -258 -82h-101v235h201q105 0 105 52q0 32 -46 91l-69 88l132 190q135 -135 135 -328zM127 904l-113 114l113 112l112 -112zM127 680l-113 114l113 112l112 -112z" />
    <glyph glyph-name="uniFB61" unicode="&#x67a;" horiz-adv-x="509" arabic-form="medial" 
d="M509 0h-19q-144 1 -190 106q-75 -105 -239 -106h-131v235h123q154 0 154 107v80l167 55v-50q0 -192 124 -192h11v-235zM225 789l-113 114l113 112l112 -112zM225 565l-113 114l113 112l112 -112z" />
    <glyph glyph-name="uniFB63" unicode="&#x67f;" horiz-adv-x="1733" arabic-form="final" 
d="M1733 0h-39q-152 1 -209 119q-77 -102 -342 -147q-175 -30 -384 -30q-594 0 -594 349q0 104 77 257l151 -47q-44 -96 -44 -137q0 -85 65 -126q96 -60 356 -60h88q214 0 315 15q238 35 238 149v52l167 55v-48q0 -94 29 -128q32 -38 123 -38h3v-235zM1002 765l-116 117
l116 116l117 -116zM761 765l-117 117l117 116l116 -116zM881 939l-116 116l116 117l117 -117zM886 597l-117 117l117 116l116 -116z" />
    <glyph glyph-name="uniFB64" unicode="&#x67f;" horiz-adv-x="436" arabic-form="initial" 
d="M388 328q0 -160 -99 -246q-94 -81 -258 -82h-101v235h201q105 0 105 52q0 32 -46 91l-69 88l132 190q135 -135 135 -328zM301 834l-116 117l116 116l117 -116zM60 834l-117 117l117 116l116 -116zM180 1008l-116 116l116 117l117 -117zM185 666l-117 117l117 116
l116 -116z" />
    <glyph glyph-name="uniFB65" unicode="&#x67f;" horiz-adv-x="509" arabic-form="medial" 
d="M509 0h-19q-144 1 -190 106q-75 -105 -239 -106h-131v235h123q154 0 154 107v80l167 55v-50q0 -192 124 -192h11v-235zM409 722l-116 117l116 116l117 -116zM168 722l-117 117l117 116l116 -116zM288 896l-116 116l116 117l117 -117zM293 554l-117 117l117 116l116 -116z
" />
    <glyph glyph-name="uniFB67" unicode="&#x679;" horiz-adv-x="1733" arabic-form="final" 
d="M1733 0h-39q-152 1 -209 119q-77 -102 -342 -147q-175 -30 -384 -30q-594 0 -594 349q0 104 77 257l151 -47q-44 -96 -44 -137q0 -85 65 -126q96 -60 356 -60h88q214 0 315 15q238 35 238 149v52l167 55v-48q0 -94 29 -128q32 -38 123 -38h3v-235zM1078 836
q0 -74 -68 -116q-59 -35 -145 -35h-56q-88 0 -119 45l27 51q24 -13 52 -13q39 0 49 37q3 13 3 71q0 84 -13 208l74 29v-241q55 50 105 50q39 0 65 -23q26 -24 26 -63zM1020 815q0 29 -49 29q-32 0 -71 -32q-6 -5 -48 -46h35q37 0 76 10q57 13 57 39z" />
    <glyph glyph-name="uniFB68" unicode="&#x679;" horiz-adv-x="436" arabic-form="initial" 
d="M388 328q0 -160 -99 -246q-94 -81 -258 -82h-101v235h201q105 0 105 52q0 32 -46 91l-69 88l132 190q135 -135 135 -328zM394 944q0 -74 -68 -116q-59 -35 -145 -35h-56q-88 0 -119 45l27 51q24 -13 52 -13q39 0 49 37q3 13 3 71q0 84 -13 208l74 29v-241q55 50 105 50
q39 0 65 -23q26 -24 26 -63zM336 923q0 29 -49 29q-32 0 -71 -32q-6 -5 -48 -46h35q37 0 76 10q57 13 57 39z" />
    <glyph glyph-name="uniFB69" unicode="&#x679;" horiz-adv-x="509" arabic-form="medial" 
d="M509 0h-19q-144 1 -190 106q-75 -105 -239 -106h-131v235h123q154 0 154 107v80l167 55v-50q0 -192 124 -192h11v-235zM478 796q0 -74 -68 -116q-59 -35 -145 -35h-56q-88 0 -119 45l27 51q24 -13 52 -13q39 0 49 37q3 13 3 71q0 84 -13 208l74 29v-241q55 50 105 50
q39 0 65 -23q26 -24 26 -63zM420 775q0 29 -49 29q-32 0 -71 -32q-6 -5 -48 -46h35q37 0 76 10q57 13 57 39z" />
    <glyph glyph-name="afii57371" unicode="&#x6a4;" horiz-adv-x="1766" arabic-form="final" 
d="M1766 0h-88q-66 0 -139 29q-86 28 -126 64q-62 -48 -201 -89q-200 -59 -447 -59q-594 0 -594 348q0 105 77 258l151 -47q-44 -96 -44 -137q0 -85 65 -126q97 -61 356 -61h88q128 0 248 20q101 17 129 35q-42 47 -42 143q0 112 103 219q97 100 181 100q87 0 141 -95
q46 -81 46 -175q0 -124 -86 -192h182v-235zM1535 403q0 33 -29 55t-62 22q-35 0 -71 -28.5t-36 -62.5q0 -26 32 -48q29 -21 56 -21q30 0 70 27.5t40 55.5zM1188 894l102 140l133 -89l77 104l156 -104l-106 -139l-133 88l-72 -104zM1267 1140l103 136l144 -97l-101 -137z" />
    <glyph glyph-name="afii57372" unicode="&#x6a4;" horiz-adv-x="622" arabic-form="initial" 
d="M571 359q0 -358 -440 -359h-201v235h319q171 0 171 118q-38 -44 -152 -44q-195 0 -195 184q0 88 59 195q72 130 172 130q123 0 203 -176q64 -143 64 -283zM373 526q-10 33 -34 65q-30 37 -60 37q-21 0 -46 -26t-25 -48q0 -72 77 -72q69 0 88 44zM27 1009l102 140l133 -89
l77 104l156 -104l-106 -139l-133 88l-72 -104zM106 1255l103 136l144 -97l-101 -137z" />
    <glyph glyph-name="afii57369" unicode="&#x6a4;" horiz-adv-x="677" arabic-form="medial" 
d="M677 0h-69q-176 1 -286 81q-43 -31 -118.5 -56t-128.5 -25h-145v235h222q-39 45 -39 129q0 114 101 220q95 99 180 99q87 0 139 -95q42 -79 42 -174q0 -114 -80 -179h182v-235zM440 389q0 33 -26 55t-59 22q-34 0 -69 -29t-35 -62q0 -26 29 -47.5t56 -21.5q30 0 67 27
t37 56zM99 872l102 140l133 -89l77 104l156 -104l-106 -139l-133 88l-72 -104zM178 1118l103 136l144 -97l-101 -137z" />
    <glyph glyph-name="uniFB6f" unicode="&#x6a6;" horiz-adv-x="1766" arabic-form="final" 
d="M1766 0h-88q-66 0 -139 29q-86 28 -126 64q-62 -48 -201 -89q-200 -59 -447 -59q-594 0 -594 348q0 105 77 258l151 -47q-44 -96 -44 -137q0 -85 65 -126q97 -61 356 -61h88q128 0 248 20q101 17 129 35q-42 47 -42 143q0 112 103 219q97 100 181 100q87 0 141 -95
q46 -81 46 -175q0 -124 -86 -192h182v-235zM1535 403q0 33 -29 55t-62 22q-35 0 -71 -28.5t-36 -62.5q0 -26 32 -48q29 -21 56 -21q30 0 70 27.5t40 55.5zM1531 968l-116 117l116 116l117 -116zM1290 968l-117 117l117 116l116 -116zM1410 1142l-116 116l116 117l117 -117z
M1415 800l-117 117l117 116l116 -116z" />
    <glyph glyph-name="uniFB70" unicode="&#x6a6;" horiz-adv-x="622" arabic-form="initial" 
d="M571 359q0 -358 -440 -359h-201v235h319q171 0 171 118q-38 -44 -152 -44q-195 0 -195 184q0 88 59 195q72 130 172 130q123 0 203 -176q64 -143 64 -283zM373 526q-10 33 -34 65q-30 37 -60 37q-21 0 -46 -26t-25 -48q0 -72 77 -72q69 0 88 44zM372 1087l-116 117
l116 116l117 -116zM131 1087l-117 117l117 116l116 -116zM251 1261l-116 116l116 117l117 -117zM256 919l-117 117l117 116l116 -116z" />
    <glyph glyph-name="uniFB71" unicode="&#x6a6;" horiz-adv-x="677" arabic-form="medial" 
d="M677 0h-69q-176 1 -286 81q-43 -31 -118.5 -56t-128.5 -25h-145v235h222q-39 45 -39 129q0 114 101 220q95 99 180 99q87 0 139 -95q42 -79 42 -174q0 -114 -80 -179h182v-235zM440 389q0 33 -26 55t-59 22q-34 0 -69 -29t-35 -62q0 -26 29 -47.5t56 -21.5q30 0 67 27
t37 56zM485 950l-116 117l116 116l117 -116zM244 950l-117 117l117 116l116 -116zM364 1124l-116 116l116 117l117 -117zM369 782l-117 117l117 116l116 -116z" />
    <glyph glyph-name="uniFB73" unicode="&#x684;" horiz-adv-x="1318" arabic-form="final" 
d="M1318 1h-212q-235 0 -231 322q-197 -63 -341 -196q-154 -143 -154 -289q0 -344 514 -344q188 0 324 45l64 -201q-203 -77 -421 -77q-311 0 -487 117q-209 139 -209 433q0 187 163 357q129 135 324 226q-177 22 -220 22q-47 0 -96 -79q-99 41 -154 74q95 236 222 236
q97 0 295 -22.5t298 -22.5q109 0 197 10l-28 -240q-81 0 -170 -16q7 -51 23 -74q33 -47 120 -47h179v-234zM697 -161l-113 114l113 112l112 -112zM697 -385l-113 114l113 112l112 -112z" />
    <glyph glyph-name="uniFB74" unicode="&#x684;" horiz-adv-x="1081" arabic-form="initial" 
d="M1078 516l-27 -210q-126 0 -267 -79q-85 -51 -259 -147q-156 -79 -357 -79h-238v234h235q150 0 286 46q15 5 221 80q-35 4 -174 45q-128 38 -157 38q-38 0 -64 -27q-18 -24 -37 -47q-91 36 -152 71q91 219 220 219q85 0 320.5 -74t366.5 -74q42 0 83 4zM641 -293
l-113 114l113 112l112 -112zM641 -517l-113 114l113 112l112 -112z" />
    <glyph glyph-name="uniFB75" unicode="&#x684;" horiz-adv-x="1208" arabic-form="medial" 
d="M1208 1h-198q-235 0 -240 292q-60 -33 -181 -127q-106 -82 -178 -115q-108 -50 -237 -50h-244v234h213q150 0 274 63q68 37 205 110q-39 4 -157 25q-107 19 -124 19q-43 0 -96 -82q-95 39 -151 71q96 239 220 239q107 0 334 -53t344 -53q59 0 111 6l-27 -227
q-98 0 -186 -27q10 -42 29 -59q36 -32 124 -32h165v-234zM629 -316l-113 114l113 112l112 -112zM629 -540l-113 114l113 112l112 -112z" />
    <glyph glyph-name="uniFB77" unicode="&#x683;" horiz-adv-x="1318" arabic-form="final" 
d="M1318 1h-212q-235 0 -231 322q-197 -63 -341 -196q-154 -143 -154 -289q0 -344 514 -344q188 0 324 45l64 -201q-203 -77 -421 -77q-311 0 -487 117q-209 139 -209 433q0 187 163 357q129 135 324 226q-177 22 -220 22q-47 0 -96 -79q-99 41 -154 74q95 236 222 236
q97 0 295 -22.5t298 -22.5q109 0 197 10l-28 -240q-81 0 -170 -16q7 -51 23 -74q33 -47 120 -47h179v-234zM986 -191l-110 -149l-136 96l-80 -112l-172 117l110 149l144 -99l79 112z" />
    <glyph glyph-name="uniFB78" unicode="&#x683;" horiz-adv-x="1081" arabic-form="initial" 
d="M1078 516l-27 -210q-126 0 -267 -79q-85 -51 -259 -147q-156 -79 -357 -79h-238v234h235q150 0 286 46q15 5 221 80q-35 4 -174 45q-128 38 -157 38q-38 0 -64 -27q-18 -24 -37 -47q-91 36 -152 71q91 219 220 219q85 0 320.5 -74t366.5 -74q42 0 83 4zM904 -220
l-110 -149l-136 96l-80 -112l-172 117l110 149l144 -99l79 112z" />
    <glyph glyph-name="uniFB79" unicode="&#x683;" horiz-adv-x="1208" arabic-form="medial" 
d="M1208 1h-198q-235 0 -240 292q-60 -33 -181 -127q-106 -82 -178 -115q-108 -50 -237 -50h-244v234h213q150 0 274 63q68 37 205 110q-39 4 -157 25q-107 19 -124 19q-43 0 -96 -82q-95 39 -151 71q96 239 220 239q107 0 334 -53t344 -53q59 0 111 6l-27 -227
q-98 0 -186 -27q10 -42 29 -59q36 -32 124 -32h165v-234zM829 -229l-110 -149l-136 96l-80 -112l-172 117l110 149l144 -99l79 112z" />
    <glyph glyph-name="afii62961" unicode="&#x686;" horiz-adv-x="1318" arabic-form="final" 
d="M1318 1h-212q-235 0 -231 322q-197 -63 -341 -196q-154 -143 -154 -289q0 -344 514 -344q188 0 324 45l64 -201q-203 -77 -421 -77q-311 0 -487 117q-209 139 -209 433q0 187 163 357q129 135 324 226q-177 22 -220 22q-47 0 -96 -79q-99 41 -154 74q95 236 222 236
q97 0 295 -22.5t298 -22.5q109 0 197 10l-28 -240q-81 0 -170 -16q7 -51 23 -74q33 -47 120 -47h179v-234zM932 -58l-102 -140l-133 89l-77 -104l-157 104l107 139l133 -88l72 105zM858 -303l-103 -137l-144 98l101 136z" />
    <glyph glyph-name="afii62959" unicode="&#x686;" horiz-adv-x="1081" arabic-form="initial" 
d="M1078 516l-27 -210q-126 0 -267 -79q-85 -51 -259 -147q-156 -79 -357 -79h-238v234h235q150 0 286 46q15 5 221 80q-35 4 -174 45q-128 38 -157 38q-38 0 -64 -27q-18 -24 -37 -47q-91 36 -152 71q91 219 220 219q85 0 320.5 -74t366.5 -74q42 0 83 4zM857 -211
l-102 -140l-133 89l-77 -104l-157 104l107 139l133 -88l72 105zM783 -456l-103 -137l-144 98l101 136z" />
    <glyph glyph-name="afii62960" unicode="&#x686;" horiz-adv-x="1208" arabic-form="medial" 
d="M1208 1h-198q-235 0 -240 292q-60 -33 -181 -127q-106 -82 -178 -115q-108 -50 -237 -50h-244v234h213q150 0 274 63q68 37 205 110q-39 4 -157 25q-107 19 -124 19q-43 0 -96 -82q-95 39 -151 71q96 239 220 239q107 0 334 -53t344 -53q59 0 111 6l-27 -227
q-98 0 -186 -27q10 -42 29 -59q36 -32 124 -32h165v-234zM824 -234l-102 -140l-133 89l-77 -104l-157 104l107 139l133 -88l72 105zM750 -479l-103 -137l-144 98l101 136z" />
    <glyph glyph-name="uniFB7F" unicode="&#x687;" horiz-adv-x="1318" arabic-form="final" 
d="M1318 1h-212q-235 0 -231 322q-197 -63 -341 -196q-154 -143 -154 -289q0 -344 514 -344q188 0 324 45l64 -201q-203 -77 -421 -77q-311 0 -487 117q-209 139 -209 433q0 187 163 357q129 135 324 226q-177 22 -220 22q-47 0 -96 -79q-99 41 -154 74q95 236 222 236
q97 0 295 -22.5t298 -22.5q109 0 197 10l-28 -240q-81 0 -170 -16q7 -51 23 -74q33 -47 120 -47h179v-234zM833 -247l-116 117l116 116l117 -116zM592 -247l-117 117l117 116l116 -116zM712 -73l-116 116l116 117l117 -117zM717 -415l-117 117l117 116l116 -116z" />
    <glyph glyph-name="uniFB80" unicode="&#x687;" horiz-adv-x="1081" arabic-form="initial" 
d="M1078 516l-27 -210q-126 0 -267 -79q-85 -51 -259 -147q-156 -79 -357 -79h-238v234h235q150 0 286 46q15 5 221 80q-35 4 -174 45q-128 38 -157 38q-38 0 -64 -27q-18 -24 -37 -47q-91 36 -152 71q91 219 220 219q85 0 320.5 -74t366.5 -74q42 0 83 4zM792 -430
l-116 117l116 116l117 -116zM551 -430l-117 117l117 116l116 -116zM671 -256l-116 116l116 117l117 -117zM676 -598l-117 117l117 116l116 -116z" />
    <glyph glyph-name="uniFB81" unicode="&#x687;" horiz-adv-x="1208" arabic-form="medial" 
d="M1208 1h-198q-235 0 -240 292q-60 -33 -181 -127q-106 -82 -178 -115q-108 -50 -237 -50h-244v234h213q150 0 274 63q68 37 205 110q-39 4 -157 25q-107 19 -124 19q-43 0 -96 -82q-95 39 -151 71q96 239 220 239q107 0 334 -53t344 -53q59 0 111 6l-27 -227
q-98 0 -186 -27q10 -42 29 -59q36 -32 124 -32h165v-234zM756 -483l-116 117l116 116l117 -116zM515 -483l-117 117l117 116l116 -116zM635 -309l-116 116l116 117l117 -117zM640 -651l-117 117l117 116l116 -116z" />
    <glyph glyph-name="uniFB83" unicode="&#x68d;" horiz-adv-x="1108" arabic-form="final" 
d="M1108 1h-41q-202 0 -285 163q-82 -191 -329 -191q-197 0 -289 109l71 188q83 -63 240 -63q237 0 237 106q0 18 -7 38l-137 390l163 148l135 -434q34 -109 63 -150q48 -70 135 -70h44v-234zM742 -268l-110 -149l-136 96l-80 -112l-172 117l110 149l144 -99l79 112z" />
    <glyph glyph-name="uniFB85" unicode="&#x68c;" horiz-adv-x="1108" arabic-form="final" 
d="M1108 1h-41q-202 0 -285 163q-82 -191 -329 -191q-197 0 -289 109l71 188q83 -63 240 -63q237 0 237 106q0 18 -7 38l-137 390l163 148l135 -434q34 -109 63 -150q48 -70 135 -70h44v-234zM791 1131l-110 -149l-136 96l-80 -112l-172 117l110 149l144 -99l79 112z" />
    <glyph glyph-name="uniFB87" unicode="&#x68e;" horiz-adv-x="1108" arabic-form="final" 
d="M1108 1h-41q-202 0 -285 163q-82 -191 -329 -191q-197 0 -289 109l71 188q83 -63 240 -63q237 0 237 106q0 18 -7 38l-137 390l163 148l135 -434q34 -109 63 -150q48 -70 135 -70h44v-234zM323 1068l102 140l133 -89l77 104l156 -104l-106 -139l-133 88l-72 -104z
M402 1314l103 136l144 -97l-101 -137z" />
    <glyph glyph-name="uniFB89" unicode="&#x688;" horiz-adv-x="1108" arabic-form="final" 
d="M1108 1h-41q-202 0 -285 163q-82 -191 -329 -191q-197 0 -289 109l71 188q83 -63 240 -63q237 0 237 106q0 18 -7 38l-137 390l163 148l135 -434q34 -109 63 -150q48 -70 135 -70h44v-234zM757 1127q0 -74 -68 -116q-59 -35 -145 -35h-56q-88 0 -119 45l27 51
q24 -13 52 -13q39 0 49 37q3 13 3 71q0 84 -13 208l74 29v-241q55 50 105 50q39 0 65 -23q26 -24 26 -63zM699 1106q0 29 -49 29q-32 0 -71 -32q-6 -5 -48 -46h35q37 0 76 10q57 13 57 39z" />
    <glyph glyph-name="afii62962" unicode="&#x698;" horiz-adv-x="834" arabic-form="final" 
d="M834 0h-36q-79 1 -115 40q-15 -177 -180 -332q-138 -129 -330 -204l-170 117q150 64 308 177q213 152 213 258q0 59 -108 206l159 171q72 -119 112 -155q47 -43 121 -43h26v-235zM184 628l102 140l133 -89l77 104l156 -104l-106 -139l-133 88l-72 -104zM263 874l103 136
l144 -97l-101 -137z" />
    <glyph glyph-name="uniFB8D" unicode="&#x691;" horiz-adv-x="834" arabic-form="final" 
d="M834 0h-36q-79 1 -115 40q-15 -177 -180 -332q-138 -129 -330 -204l-170 117q150 64 308 177q213 152 213 258q0 59 -108 206l159 171q72 -119 112 -155q47 -43 121 -43h26v-235zM622 690q0 -74 -68 -116q-59 -35 -145 -35h-56q-88 0 -119 45l27 51q24 -13 52 -13
q39 0 49 37q3 13 3 71q0 84 -13 208l74 29v-241q55 50 105 50q39 0 65 -23q26 -24 26 -63zM564 669q0 29 -49 29q-32 0 -71 -32q-6 -5 -48 -46h35q37 0 76 10q57 13 57 39z" />
    <glyph glyph-name="afii62964" unicode="&#x6a9;" horiz-adv-x="1969" arabic-form="final" 
d="M1969 0h-96q-124 1 -252 88q-110 75 -191 191q0 -334 -714 -334q-595 0 -595 348q0 105 77 258l151 -47q-44 -96 -44 -137q0 -85 65 -126q97 -61 356 -61h41q161 0 301 26q233 42 233 139q0 64 -132 183q-148 134 -168 183q3 54 20 120q20 79 43 91q257 135 902 336
l-27 -228q-160 -42 -273 -74q-305 -87 -470 -155q-36 -15 -10 -35q162 -127 335 -295q138 -133 184 -166q99 -70 212 -70h52v-235z" />
    <glyph glyph-name="afii52305" unicode="&#x6a9;" horiz-adv-x="966" arabic-form="initial" 
d="M982 1280l-30 -239q-131 -30 -282 -70q-303 -80 -408 -127q-35 -16 -12 -32q42 -29 126 -89q103 -75 169 -157q85 -105 85 -202q0 -220 -156 -303q-113 -61 -361 -61h-183v235h189q341 0 341 85q0 79 -182 222q-201 158 -223 207q2 49 25 126q25 82 47 94
q261 137 855 311z" />
    <glyph glyph-name="afii52306" unicode="&#x6a9;" horiz-adv-x="1065" arabic-form="medial" 
d="M1065 0h-84q-120 1 -245 82q-109 71 -188 180q-35 -261 -470 -262h-148v235h142q152 0 204 7q145 19 145 89q0 65 -144 191q-158 138 -178 189q3 54 20 120q20 79 44 91q258 135 902 336l-28 -234q-159 -39 -274 -71q-304 -84 -469 -152q-36 -15 -10 -35
q165 -125 335 -295q137 -137 187 -171q95 -65 209 -65h50v-235z" />
    <glyph glyph-name="afii62967" unicode="&#x6af;" horiz-adv-x="2013" arabic-form="final" 
d="M2024 1442l-14 -114q-198 -60 -363 -112q-389 -124 -525 -187l28 113q161 81 874 300zM2013 0h-96q-119 1 -249 91q-108 75 -194 188q0 -176 -221 -262q-184 -72 -493 -72q-595 0 -595 348q0 105 77 258l151 -47q-44 -96 -44 -137q0 -85 65 -126q97 -61 356 -61h41
q161 0 301 26q233 42 233 139q0 67 -132 185q-148 132 -168 181q3 55 19 114q19 71 44 84q262 137 902 335l-27 -214q-160 -42 -273 -74q-300 -86 -470 -155q-23 -9 -23 -19q0 -7 13 -16q142 -101 335 -295q137 -138 190 -174q91 -62 206 -62h52v-235z" />
    <glyph glyph-name="afii62965" unicode="&#x6af;" horiz-adv-x="987" arabic-form="initial" 
d="M996 1483l-14 -116q-205 -64 -338 -108q-361 -120 -503 -185l27 110q184 86 828 299zM982 1266l-30 -225q-343 -84 -351 -86q-204 -54 -339 -115q-37 -17 -12 -33q380 -246 380 -443q0 -213 -141 -297q-111 -66 -343 -67h-216v235h224q146 0 208 12q98 19 98 73
q0 73 -182 218q-202 161 -223 211q2 42 22 111q25 82 50 95q261 137 855 311z" />
    <glyph glyph-name="afii62966" unicode="&#x6af;" horiz-adv-x="1065" arabic-form="medial" 
d="M1078 1442l-13 -114q-184 -55 -363 -112q-392 -125 -526 -187l28 113q161 81 874 300zM1065 0h-94q-116 1 -243 92q-112 80 -183 189q0 -165 -139 -231q-103 -49 -309 -50h-167v235h170q151 0 186 5q130 20 130 99q0 62 -141 185q-155 135 -176 187q3 50 20 113
q20 72 44 85q260 136 902 335l-28 -214q-168 -44 -274 -74q-300 -86 -469 -155q-37 -15 -10 -35q125 -93 335 -295q160 -154 182 -170q92 -66 214 -66h50v-235z" />
    <glyph glyph-name="uniFB97" unicode="&#x6b3;" horiz-adv-x="2013" arabic-form="final" 
d="M2024 1442l-14 -114q-198 -60 -363 -112q-389 -124 -525 -187l28 113q161 81 874 300zM2013 0h-96q-119 1 -249 91q-108 75 -194 188q0 -176 -221 -262q-184 -72 -493 -72q-595 0 -595 348q0 105 77 258l151 -47q-44 -96 -44 -137q0 -85 65 -126q97 -61 356 -61h41
q161 0 301 26q233 42 233 139q0 67 -132 185q-148 132 -168 181q3 55 19 114q19 71 44 84q262 137 902 335l-27 -214q-160 -42 -273 -74q-300 -86 -470 -155q-23 -9 -23 -19q0 -7 13 -16q142 -101 335 -295q137 -138 190 -174q91 -62 206 -62h52v-235zM832 -388l-113 114
l113 112l112 -112zM832 -612l-113 114l113 112l112 -112z" />
    <glyph glyph-name="uniFB98" unicode="&#x6b3;" horiz-adv-x="987" arabic-form="initial" 
d="M996 1483l-14 -116q-205 -64 -338 -108q-361 -120 -503 -185l27 110q184 86 828 299zM982 1266l-30 -225q-343 -84 -351 -86q-204 -54 -339 -115q-37 -17 -12 -33q380 -246 380 -443q0 -213 -141 -297q-111 -66 -343 -67h-216v235h224q146 0 208 12q98 19 98 73
q0 73 -182 218q-202 161 -223 211q2 42 22 111q25 82 50 95q261 137 855 311zM552 -327l-113 114l113 112l112 -112zM552 -551l-113 114l113 112l112 -112z" />
    <glyph glyph-name="uniFB99" unicode="&#x6b3;" horiz-adv-x="1065" arabic-form="medial" 
d="M1078 1442l-13 -114q-184 -55 -363 -112q-392 -125 -526 -187l28 113q161 81 874 300zM1065 0h-94q-116 1 -243 92q-112 80 -183 189q0 -165 -139 -231q-103 -49 -309 -50h-167v235h170q151 0 186 5q130 20 130 99q0 62 -141 185q-155 135 -176 187q3 50 20 113
q20 72 44 85q260 136 902 335l-28 -214q-168 -44 -274 -74q-300 -86 -469 -155q-37 -15 -10 -35q125 -93 335 -295q160 -154 182 -170q92 -66 214 -66h50v-235zM539 -330l-113 114l113 112l112 -112zM539 -554l-113 114l113 112l112 -112z" />
    <glyph glyph-name="uniFB9B" unicode="&#x6b1;" horiz-adv-x="2013" arabic-form="final" 
d="M2024 1442l-14 -114q-198 -60 -363 -112q-389 -124 -525 -187l28 113q161 81 874 300zM2013 0h-96q-119 1 -249 91q-108 75 -194 188q0 -176 -221 -262q-184 -72 -493 -72q-595 0 -595 348q0 105 77 258l151 -47q-44 -96 -44 -137q0 -85 65 -126q97 -61 356 -61h41
q161 0 301 26q233 42 233 139q0 67 -132 185q-148 132 -168 181q3 55 19 114q19 71 44 84q262 137 902 335l-27 -214q-160 -42 -273 -74q-300 -86 -470 -155q-23 -9 -23 -19q0 -7 13 -16q142 -101 335 -295q137 -138 190 -174q91 -62 206 -62h52v-235zM1705 1536l-110 -149
l-136 96l-80 -112l-172 117l110 149l144 -99l79 112z" />
    <glyph glyph-name="uniFB9C" unicode="&#x6b1;" horiz-adv-x="987" arabic-form="initial" 
d="M996 1483l-14 -116q-205 -64 -338 -108q-361 -120 -503 -185l27 110q184 86 828 299zM982 1266l-30 -225q-343 -84 -351 -86q-204 -54 -339 -115q-37 -17 -12 -33q380 -246 380 -443q0 -213 -141 -297q-111 -66 -343 -67h-216v235h224q146 0 208 12q98 19 98 73
q0 73 -182 218q-202 161 -223 211q2 42 22 111q25 82 50 95q261 137 855 311zM681 1570l-110 -149l-136 96l-80 -112l-172 117l110 149l144 -99l79 112z" />
    <glyph glyph-name="uniFB9D" unicode="&#x6b1;" horiz-adv-x="1065" arabic-form="medial" 
d="M1078 1442l-13 -114q-184 -55 -363 -112q-392 -125 -526 -187l28 113q161 81 874 300zM1065 0h-94q-116 1 -243 92q-112 80 -183 189q0 -165 -139 -231q-103 -49 -309 -50h-167v235h170q151 0 186 5q130 20 130 99q0 62 -141 185q-155 135 -176 187q3 50 20 113
q20 72 44 85q260 136 902 335l-28 -214q-168 -44 -274 -74q-300 -86 -469 -155q-37 -15 -10 -35q125 -93 335 -295q160 -154 182 -170q92 -66 214 -66h50v-235zM718 1534l-110 -149l-136 96l-80 -112l-172 117l110 149l144 -99l79 112z" />
    <glyph glyph-name="uniFB9F" unicode="&#x6ba;" horiz-adv-x="1293" arabic-form="final" 
d="M1293 1h-25q-105 0 -135 41q0 -242 -149 -401q-152 -163 -393 -163q-242 0 -362 152q-97 122 -97 313q0 153 83 319l156 -55q-55 -142 -55 -220q0 -134 81 -206q78 -69 214 -69q145 0 240 81q101 85 101 227q0 137 -99 270l176 165q57 -114 75 -139q58 -81 134 -81h55
v-234z" />
    <glyph glyph-name="uniFBA1" unicode="&#x6bb;" horiz-adv-x="1293" arabic-form="final" 
d="M1293 1h-25q-105 0 -135 41q0 -242 -149 -401q-152 -163 -393 -163q-242 0 -362 152q-97 122 -97 313q0 153 83 319l156 -55q-55 -142 -55 -220q0 -134 81 -206q78 -69 214 -69q145 0 240 81q101 85 101 227q0 137 -99 270l176 165q57 -114 75 -139q58 -81 134 -81h55
v-234zM783 649q0 -74 -68 -116q-59 -35 -145 -35h-56q-88 0 -119 45l27 51q24 -13 52 -13q39 0 49 37q3 13 3 71q0 84 -13 208l74 29v-241q55 50 105 50q39 0 65 -23q26 -24 26 -63zM725 628q0 29 -49 29q-32 0 -71 -32q-6 -5 -48 -46h35q37 0 76 10q57 13 57 39z" />
    <glyph glyph-name="uniFBA4" unicode="&#x6c0;" horiz-adv-x="771" arabic-form="isolated" 
d="M710 284q0 -132 -82 -216t-213 -84q-112 0 -177 51q-73 56 -73 164q0 122 116 305l-44 20l110 189q150 -53 250 -160q113 -122 113 -269zM553 271q0 93 -153 167q-75 -99 -75 -154q0 -82 96 -82q41 0 81 15q51 20 51 54zM607 920l-417 -122l5 66l99 53q-52 51 -52 103
q0 61 50 111t111 50q80 0 125 -43l-25 -64q-39 16 -103 16q-26 0 -54 -14q-33 -17 -33 -40q0 -70 123 -70q16 0 167 46z" />
    <glyph glyph-name="uniFBA5" unicode="&#x6c0;" horiz-adv-x="892" arabic-form="final" 
d="M892 0q-20 0 -100 1q-113 1 -168 60q-37 40 -62 135q-73 -71 -240 -71q-82 0 -135 38q-60 42 -60 121q0 204 332 402l-19 88l149 154l110 -545q20 -98 56 -127q26 -21 100 -21h37v-235zM526 367l-34 154q-51 -15 -107 -55q-71 -51 -71 -96q0 -29 88 -29q96 0 124 26z
M533 1032l-417 -122l5 66l99 53q-52 51 -52 103q0 61 50 111t111 50q80 0 125 -43l-25 -64q-39 16 -103 16q-26 0 -54 -14q-33 -17 -33 -40q0 -70 123 -70q16 0 167 46z" />
    <glyph glyph-name="uniFBA6" unicode="&#x6c1;" horiz-adv-x="771" arabic-form="isolated" 
d="M710 284q0 -132 -82 -216t-213 -84q-112 0 -177 51q-73 56 -73 164q0 122 116 305l-44 20l110 189q150 -53 250 -160q113 -122 113 -269zM553 271q0 93 -153 167q-75 -99 -75 -154q0 -82 96 -82q41 0 81 15q51 20 51 54z" />
    <glyph glyph-name="uniFBA8" unicode="&#x6c1;" horiz-adv-x="436" arabic-form="initial" 
d="M334 -392q0 -18 -9.5 -36.5t-26 -33.5t-41 -25t-53.5 -10q-17 0 -38 7.5t-40 24.5t-32.5 44.5t-13.5 66.5q0 19 3.5 41t15 50.5t32 64t54.5 81.5q20 25 32 36.5t21 11.5q19 0 19 -21q0 -7 -15 -31t-33 -55t-33.5 -63.5t-15.5 -54.5q0 -49 44 -49q16 0 25 7t13 25
q89 2 92 -81zM388 328q0 -160 -99 -246q-94 -81 -258 -82h-101v235h201q105 0 105 52q0 32 -46 91l-69 88l132 190q135 -135 135 -328z" />
    <glyph glyph-name="uniFBA9" unicode="&#x6c1;" horiz-adv-x="734" arabic-form="medial" 
d="M-25 0v235h75q70 0 114 4.5t76 20t74 74.5t63 193l78 -12q-14 -151 -42 -249t-88 -181q-60 -204 90 -320l3 3q-11 25 -19 78t6.5 138t81 163t227.5 88h26v-235h-44q-51 0 -112 -9t-78 -25t-24.5 -38t-1.5 -41q3 -38 114 -149l-173 -188q-57 37 -107 90.5t-77.5 141.5
t-6.5 254q-49 -20 -96.5 -28t-158.5 -8z" />
    <glyph glyph-name="uniFBAB" unicode="&#x6be;" horiz-adv-x="957" arabic-form="final" 
d="M968 0h-103q-50 1 -86 -22q-43 -28 -43 -75q0 -71 91 -106q-13 -67 -36 -228q-222 38 -351 195q-91 111 -112 236h-104q-32 1 -62.5 10t-54.5 31t-38 58.5t-13 91.5l254 30q0 184 83 341q77 146 145 146q48 0 113 -116q71 -127 71 -258q0 -101 -61 -205
q-69 -117 -162 -127q12 -38 45 -72q35 -39 71 -45q-5 10 -5 35q0 100 58 192q78 123 219 123h81v-235zM593 326q0 59 -31 114q-27 48 -43 48q-17 0 -45 -70q-32 -81 -32 -175q38 6 91 23q60 24 60 60z" />
    <glyph glyph-name="uniFBAC" unicode="&#x6be;" horiz-adv-x="856" arabic-form="initial" 
d="M823 207q0 -278 -185 -278q-43 0 -131 41q-37 17 -138 67q-54 -36 -270 -37h-169v235h179q-36 23 -36 104q0 131 147 256l-44 28l99 211q198 -131 349 -285q199 -203 199 -342zM680 180q-2 33 -43 88q-36 48 -70 74q1 -9 1 -18q0 -35 -19 -76q-20 -45 -48 -60
q11 -15 67 -47.5t73 -32.5q43 0 39 72zM424 386q0 35 -30.5 65t-65.5 30q-32 0 -70 -38.5t-38 -70.5q0 -38 30 -66.5t68 -28.5q46 0 76 31.5t30 77.5z" />
    <glyph glyph-name="uniFBAD" unicode="&#x6be;" horiz-adv-x="755" arabic-form="medial" 
d="M790 0h-103q-50 1 -86 -22q-43 -28 -43 -75q0 -71 91 -106q-13 -67 -36 -228q-222 38 -351 195q-91 111 -112 236h-220v235h202q0 170 83 327q77 146 145 146q48 0 113 -116q71 -127 71 -258q0 -101 -61 -205q-69 -117 -162 -127q12 -38 45 -72q35 -39 71 -45
q-5 10 -5 35q0 100 58 192q78 123 219 123h81v-235zM415 326q0 59 -31 114q-27 48 -43 48q-17 0 -45 -70q-32 -81 -32 -169q38 -5 91 17q60 24 60 60z" />
    <glyph glyph-name="uniFBAF" unicode="&#x6d2;" horiz-adv-x="1041" arabic-form="final" 
d="M1053 235l1 -235h-674h-41t-45 -4t-40 -14.5t-25 -31.5q-2 -24 21.5 -43t65.5 -26q106 -19 264.5 -22.5t265.5 0t190 7.5l-70 -170q-13 -5 -176 -19t-398 -9q-73 2 -140 8q-87 9 -135 40q-48 40 -48 136q0 23 8 53q8 29 28 70q32 66 80 146q70 109 191 114h677z" />
    <glyph glyph-name="unifbb1" unicode="&#x6d3;" horiz-adv-x="1041" arabic-form="final" 
d="M1053 235l1 -235h-674h-41t-45 -4t-40 -14.5t-25 -31.5q-2 -24 21.5 -43t65.5 -26q106 -19 264.5 -22.5t265.5 0t190 7.5l-70 -170q-13 -5 -176 -19t-398 -9q-73 2 -140 8q-87 9 -135 40q-48 40 -48 136q0 23 8 53q8 29 28 70q32 66 80 146q70 109 191 114h677zM605 511
l-417 -122l5 66l99 53q-52 51 -52 103q0 61 50 111t111 50q80 0 125 -43l-25 -64q-39 16 -103 16q-26 0 -54 -14q-33 -17 -33 -40q0 -70 123 -70q16 0 167 46z" />
    <glyph glyph-name="uniFBD4" unicode="&#x6ad;" horiz-adv-x="1622" arabic-form="final" 
d="M1622 0h-23q-55 1 -116 38q-51 32 -73 71q-150 -164 -650 -164q-595 0 -595 348q0 105 77 258l151 -47q-44 -96 -44 -137q0 -85 65 -126q97 -61 356 -61h41q161 0 301 26q120 21 178 57q9 6 18 21t5 119l-25 748l204 82v-808q0 -80 35 -131q40 -59 87 -59h8v-235z
M1061 790l-413 -105v78l104 42q-52 50 -52 102q0 61 50 111t111 50q79 0 124 -42l-25 -65q-38 16 -102 16q-26 0 -54 -14q-33 -17 -33 -40q0 -70 123 -70q16 0 167 46v-109zM600 1240l102 140l133 -89l77 104l156 -104l-106 -139l-133 88l-72 -104zM679 1486l103 136
l144 -97l-101 -137z" />
    <glyph glyph-name="uniFBD5" unicode="&#x6ad;" horiz-adv-x="966" arabic-form="initial" 
d="M197 1319l102 140l133 -89l77 104l156 -104l-106 -139l-133 88l-72 -104zM276 1565l103 136l144 -97l-101 -137zM982 1280l-30 -239q-131 -30 -282 -70q-303 -80 -408 -127q-35 -16 -12 -32q42 -29 126 -89q103 -75 169 -157q85 -105 85 -202q0 -220 -156 -303
q-113 -61 -361 -61h-183v235h189q341 0 341 85q0 79 -182 222q-201 158 -223 207q2 49 25 126q25 82 47 94q261 137 855 311z" />
    <glyph glyph-name="uniFBD6" unicode="&#x6ad;" horiz-adv-x="1065" arabic-form="medial" 
d="M223 1288l102 140l133 -89l77 104l156 -104l-106 -139l-133 88l-72 -104zM302 1534l103 136l144 -97l-101 -137zM1065 0h-84q-120 1 -245 82q-109 71 -188 180q-35 -261 -470 -262h-148v235h142q152 0 204 7q145 19 145 89q0 65 -144 191q-158 138 -178 189q3 54 20 120
q20 79 44 91q258 135 902 336l-28 -234q-159 -39 -274 -71q-304 -84 -469 -152q-36 -15 -10 -35q165 -125 335 -295q137 -137 187 -171q95 -65 209 -65h50v-235z" />
    <glyph glyph-name="uniFBD8" unicode="&#x6c7;" horiz-adv-x="745" arabic-form="final" 
d="M745 0h-77q-37 -160 -187 -304q-136 -130 -305 -196l-147 139q142 53 287 157q157 113 191 201q-164 0 -235 35q-105 51 -105 195q0 94 54 198q67 130 171 130q123 0 200 -109q62 -87 78 -211h75v-235zM511 234q-5 45 -38 85q-37 43 -80 43q-29 0 -55.5 -26t-26.5 -55
q0 -60 99 -60q47 0 101 13zM646 1032q0 -109 -103 -193l66 -46l-49 -53q-32 19 -70 62q-137 -96 -309 -132l-31 66q189 61 267 126q-42 60 -42 93q0 59 49 120.5t106 61.5q46 0 81 -30t35 -75zM571 1001q0 56 -65 56q-26 0 -51 -30t-25 -57q0 -47 61 -76q80 56 80 107z" />
    <glyph glyph-name="uniFBDA" unicode="&#x6c6;" horiz-adv-x="745" arabic-form="final" 
d="M745 0h-77q-37 -160 -187 -304q-136 -130 -305 -196l-147 139q142 53 287 157q157 113 191 201q-164 0 -235 35q-105 51 -105 195q0 94 54 198q67 130 171 130q123 0 200 -109q62 -87 78 -211h75v-235zM511 234q-5 45 -38 85q-37 43 -80 43q-29 0 -55.5 -26t-26.5 -55
q0 -60 99 -60q47 0 101 13zM571 941q-15 -12 -37.5 -41.5t-45.5 -69t-43.5 -85.5t-31.5 -91h-28l-1 3q-12 44 -32.5 89.5t-43.5 85t-45 68.5t-36 41l108 2q21 -32 36.5 -78t26.5 -96q11 50 27 96t38 78z" />
    <glyph glyph-name="uniFBDC" unicode="&#x6c8;" horiz-adv-x="745" arabic-form="final" 
d="M745 0h-77q-37 -160 -187 -304q-136 -130 -305 -196l-147 139q142 53 287 157q157 113 191 201q-164 0 -235 35q-105 51 -105 195q0 94 54 198q67 130 171 130q123 0 200 -109q62 -87 78 -211h75v-235zM511 234q-5 45 -38 85q-37 43 -80 43q-29 0 -55.5 -26t-26.5 -55
q0 -60 99 -60q47 0 101 13zM436 685l-60 -24l-31 324l106 45z" />
    <glyph glyph-name="uniFBDF" unicode="&#x6cb;" horiz-adv-x="745" arabic-form="final" 
d="M745 0h-77q-37 -160 -187 -304q-136 -130 -305 -196l-147 139q142 53 287 157q157 113 191 201q-164 0 -235 35q-105 51 -105 195q0 94 54 198q67 130 171 130q123 0 200 -109q62 -87 78 -211h75v-235zM511 234q-5 45 -38 85q-37 43 -80 43q-29 0 -55.5 -26t-26.5 -55
q0 -60 99 -60q47 0 101 13zM126 741l102 140l133 -89l77 104l156 -104l-106 -139l-133 88l-72 -104zM205 987l103 136l144 -97l-101 -137z" />
    <glyph glyph-name="uniFBE1" unicode="&#x6c5;" horiz-adv-x="737" arabic-form="final" 
d="M668 0q-37 -160 -187 -304q-136 -130 -305 -196l-147 139q137 51 276 150l-196 -2l39 65l252 11q83 73 107 134q-164 0 -235 35q-105 51 -105 195q0 94 54 198q67 130 171 130q123 0 200 -109q62 -87 78 -211h75v-235h-77zM511 234q-5 45 -38 85q-37 43 -80 43
q-29 0 -56 -26q-26 -26 -26 -55q0 -60 99 -60q47 0 101 13z" />
    <glyph glyph-name="uniFBE3" unicode="&#x6c9;" horiz-adv-x="745" arabic-form="final" 
d="M745 0h-77q-37 -160 -187 -304q-136 -130 -305 -196l-147 139q142 53 287 157q157 113 191 201q-164 0 -235 35q-105 51 -105 195q0 94 54 198q67 130 171 130q123 0 200 -109q62 -87 78 -211h75v-235zM511 234q-5 45 -38 85q-37 43 -80 43q-29 0 -55.5 -26t-26.5 -55
q0 -60 99 -60q47 0 101 13zM459 638q-22 32 -38 78t-27 96q-11 -50 -26.5 -96t-36.5 -78l-108 2q14 12 36 41t45 68.5t43.5 85t32.5 89.5l1 3h28q11 -45 31.5 -91t43.5 -85.5t45.5 -69t37.5 -41.5z" />
    <glyph glyph-name="uniFBE5" unicode="&#x6d0;" horiz-adv-x="1240" arabic-form="final" 
d="M560 -868l-113 114l113 112l112 -112zM560 -1092l-113 114l113 112l112 -112zM1240 0h-29q-65 5 -214 15q-29 2 -40 2q-100 0 -100 -30q0 -19 40 -25q71 -11 213 -32q111 -31 111 -117q0 -106 -149 -211q-177 -124 -435 -124q-279 0 -409 140q-104 112 -104 300
q0 158 94 320l156 -55q-21 -35 -41 -104q-22 -72 -22 -109q0 -256 338 -256q236 0 350 47q35 14 35 26q0 11 -30 15q-22 3 -189 22q-146 35 -146 132q0 139 183 218q143 61 303 61h85v-235z" />
    <glyph glyph-name="afii52364" unicode="&#x6cc;" horiz-adv-x="1240" arabic-form="final" 
d="M1240 0h-29q-65 5 -214 15q-29 2 -40 2q-100 0 -100 -30q0 -19 40 -25q71 -11 213 -32q111 -31 111 -117q0 -106 -149 -211q-177 -124 -435 -124q-279 0 -409 140q-104 112 -104 300q0 158 94 320l156 -55q-21 -35 -41 -104q-22 -72 -22 -109q0 -256 338 -256
q236 0 350 47q35 14 35 26q0 11 -30 15q-22 3 -189 22q-146 35 -146 132q0 139 183 218q143 61 303 61h85v-235z" />
    <glyph glyph-name="uniFBFE" unicode="&#x6cc;" horiz-adv-x="436" arabic-form="initial" 
d="M388 328q0 -160 -99 -246q-94 -81 -258 -82h-101v235h201q105 0 105 52q0 32 -46 91l-69 88l132 190q135 -135 135 -328zM436 -293l-110 -149l-136 96l-80 -112l-172 117l110 149l144 -99l79 112z" />
    <glyph glyph-name="afii62832" unicode="&#x6cc;" horiz-adv-x="509" arabic-form="medial" 
d="M509 0h-19q-144 1 -190 106q-75 -105 -239 -106h-131v235h123q154 0 154 107v80l167 55v-50q0 -192 124 -192h11v-235zM483 -297l-110 -149l-136 96l-80 -112l-172 117l110 149l144 -99l79 112z" />
    <glyph glyph-name="uniFC5D" unicode="&#xfc5d;" horiz-adv-x="1382" arabic-form="isolated" 
d="M508 615l-65 -23l-32 352l111 44zM1331 645l-53 -201q-58 25 -170 25q-92 0 -164 -55q-64 -49 -64 -96q0 -26 27 -34q19 -6 179 -19q209 -17 209 -168q0 -217 -202 -360q-188 -133 -442 -133q-514 0 -514 433q0 160 97 327l162 -55q-66 -104 -66 -217q0 -254 349 -254
q91 0 206 30q160 42 239 121q18 18 18 35q0 28 -37 32q-43 5 -264 23q-140 28 -140 159q0 169 143 314t311 145q62 0 93 -9t83 -43z" />
    <glyph glyph-name="afii62882" unicode="&#xfc5e;" arabic-form="isolated" 
d="M262 709q0 -106 -100 -191l66 -45l-51 -57q-49 29 -76 57q-138 -90 -303 -128l-33 67q11 4 28 12q66 57 66 108q0 29 -36 29q-24 0 -61 -25l-20 45q36 42 102 42q81 0 81 -65q0 -58 -49 -106q-1 -4 5 -6q111 35 159 78q-47 57 -47 105q0 58 47 118q50 64 107 64
q45 0 80 -29t35 -73zM190 678q0 56 -65 56q-23 0 -46.5 -28t-23.5 -51q0 -55 51 -82q84 41 84 105zM216 313q19 -63 19 -119q0 -158 -125 -158q-56 0 -94 87q-67 -126 -148 -126t-81 97q0 64 39 134h44q-15 -53 -15 -81q0 -47 49 -47q73 0 95 155l55 21q4 -68 8 -89
q14 -51 59 -51q53 0 53 70q0 36 -15 88z" />
    <glyph glyph-name="afii62883" unicode="&#xfc5f;" arabic-form="isolated" 
d="M258 129l-460 -123l-18 75l460 127zM258 297l-460 -123l-18 75l460 127zM218 727q19 -63 19 -119q0 -158 -125 -158q-56 0 -94 87q-67 -126 -148 -126t-81 97q0 64 39 134h44q-15 -53 -15 -81q0 -47 49 -47q73 0 95 155l55 21q4 -68 8 -89q14 -51 59 -51q53 0 53 70
q0 36 -15 88z" />
    <glyph glyph-name="afii62884" unicode="&#xfc60;" arabic-form="isolated" 
d="M252 461l-460 -122l-18 74l460 127zM216 313q19 -63 19 -119q0 -158 -125 -158q-56 0 -94 87q-67 -126 -148 -126t-81 97q0 64 39 134h44q-15 -53 -15 -81q0 -47 49 -47q73 0 95 155l55 21q4 -68 8 -89q14 -51 59 -51q53 0 53 70q0 36 -15 88z" />
    <glyph glyph-name="afii62885" unicode="&#xfc61;" arabic-form="isolated" 
d="M215 702q0 -109 -103 -193l66 -46l-49 -53q-32 19 -70 62q-137 -96 -309 -132l-31 66q172 48 286 118q-61 68 -61 101q0 59 49 120.5t106 61.5q46 0 81 -30t35 -75zM140 671q0 57 -65 57q-26 0 -51 -30.5t-25 -57.5q0 -47 61 -76q80 56 80 107zM216 313q19 -63 19 -119
q0 -158 -125 -158q-56 0 -94 87q-67 -126 -148 -126t-81 97q0 64 39 134h44q-15 -53 -15 -81q0 -47 49 -47q73 0 95 155l55 21q4 -68 8 -89q14 -51 59 -51q53 0 53 70q0 36 -15 88z" />
    <glyph glyph-name="afii62886" unicode="&#xfc62;" arabic-form="isolated" 
d="M251 126l-460 -123l-18 75l460 127zM216 543q19 -63 19 -119q0 -158 -125 -158q-56 0 -94 87q-67 -126 -148 -126t-81 97q0 64 39 134h44q-15 -53 -15 -81q0 -47 49 -47q73 0 95 155l55 21q4 -68 8 -89q14 -51 59 -51q53 0 53 70q0 36 -15 88z" />
    <glyph glyph-name="uniFC63" unicode="&#xfc63;" arabic-form="isolated" 
d="M20 384l-39 -19l-26 285l76 36zM192 305q19 -63 19 -119q0 -158 -125 -158q-56 0 -94 87q-67 -126 -148 -126t-81 97q0 64 39 134h44q-15 -53 -15 -81q0 -47 49 -47q73 0 95 155l55 21q4 -68 8 -89q14 -51 59 -51q53 0 53 70q0 36 -15 88z" />
    <glyph glyph-name="uniFCF2" unicode="&#xfcf2;" horiz-adv-x="701" arabic-form="medial" 
d="M588 811l-460 -122l-18 74l460 127zM564 706q19 -63 19 -119q0 -158 -125 -158q-56 0 -94 87q-67 -126 -148 -126t-81 97q0 64 39 134h44q-15 -53 -15 -81q0 -47 49 -47q73 0 95 155l55 21q4 -68 8 -89q14 -51 59 -51q53 0 53 70q0 36 -15 88zM724 0h-753v235h753v-235z
" />
    <glyph glyph-name="uniFCF3" unicode="&#xfcf3;" horiz-adv-x="701" arabic-form="medial" 
d="M607 1069q0 -109 -103 -193l66 -46l-49 -53q-32 19 -70 62q-137 -96 -309 -132l-31 58q191 62 269 127q-44 46 -44 100q0 59 49 120.5t106 61.5q46 0 81 -30t35 -75zM532 1038q0 57 -65 57q-26 0 -51 -30.5t-25 -57.5q0 -47 61 -76q80 56 80 107zM564 706q19 -63 19 -119
q0 -158 -125 -158q-56 0 -94 87q-67 -126 -148 -126t-81 97q0 64 39 134h44q-15 -53 -15 -81q0 -47 49 -47q73 0 95 155l55 21q4 -68 8 -89q14 -51 59 -51q53 0 53 70q0 36 -15 88zM724 0h-753v235h753v-235z" />
    <glyph glyph-name="uniFCF4" unicode="&#xfcf4;" horiz-adv-x="701" arabic-form="medial" 
d="M618 499l-460 -123l-18 75l460 127zM584 916q19 -63 19 -119q0 -158 -125 -158q-56 0 -94 87q-67 -126 -148 -126t-81 97q0 64 39 134h44q-15 -53 -15 -81q0 -47 49 -47q73 0 95 155l55 21q4 -68 8 -89q14 -51 59 -51q53 0 53 70q0 36 -15 88zM724 0h-753v235h753v-235z
" />
    <glyph glyph-name="uniFE71" unicode="&#xfe71;" horiz-adv-x="701" arabic-form="medial" 
d="M599 492l-460 -123l-18 75l460 127zM599 660l-460 -123l-18 75l460 127zM724 0h-753v235h753v-235z" />
    <glyph glyph-name="uniFE77" unicode="&#xfe77;" horiz-adv-x="701" arabic-form="medial" 
d="M599 492l-460 -123l-18 75l460 127zM724 0h-753v235h753v-235z" />
    <glyph glyph-name="uniFE79" unicode="&#xfe79;" horiz-adv-x="701" arabic-form="medial" 
d="M617 774q0 -109 -103 -193l66 -46l-49 -53q-32 19 -70 62q-137 -93 -309 -132l-31 56q189 64 278 125q-51 35 -53 104q0 59 49 120.5t106 61.5q46 0 81 -30t35 -75zM542 743q0 57 -65 57q-26 0 -51 -30.5t-25 -57.5q0 -47 61 -76q80 56 80 107zM724 0h-753v235h753v-235z
" />
    <glyph glyph-name="uniFE7B" unicode="&#xfe7b;" horiz-adv-x="701" arabic-form="medial" 
d="M586 -253l-460 -123l-18 75l460 127zM724 0h-753v235h753v-235z" />
    <glyph glyph-name="uniFE7D" unicode="&#xfe7d;" horiz-adv-x="701" arabic-form="medial" 
d="M568 658q19 -63 19 -119q0 -158 -125 -158q-56 0 -94 87q-67 -126 -148 -126t-81 97q0 64 39 134h44q-15 -53 -15 -81q0 -47 49 -47q73 0 95 155l55 21q4 -68 8 -89q14 -51 59 -51q53 0 53 70q0 36 -15 88zM724 0h-753v235h753v-235z" />
    <glyph glyph-name="uniFE7F" unicode="&#xfe7f;" horiz-adv-x="695" arabic-form="medial" 
d="M536 536q0 -76 -47 -130q-50 -57 -125 -57q-64 0 -106.5 41t-42.5 105q0 108 52 172q42 52 92 52q56 0 112 -47q65 -55 65 -136zM465 527q0 46 -37 75q-33 27 -81 27q-24 0 -46 -35.5t-22 -60.5q0 -82 88 -82q36 0 65 19q33 22 33 57zM724 0h-753v235h753v-235z" />
    <glyph glyph-name="afii52399" unicode="&#x621;" horiz-adv-x="828" arabic-form="isolated" 
d="M753 120l-587 -150v127l125 53l-35 48q-19 37 -19 93q0 87 72.5 157t160.5 70q116 0 181 -62l-37 -113q-50 30 -152 30q-29 0 -64 -18q-41 -21 -41 -47q0 -44 60 -66q44 -16 97 -16q28 0 239 69v-175z" />
    <glyph glyph-name="afii62753" unicode="&#x622;" horiz-adv-x="561" arabic-form="final" 
d="M561 0h-38q-209 1 -282 138q-47 88 -54 309l-22 704l204 82v-814q0 -184 147 -184h45v-235zM625 1490q-39 -71 -112 -111q-65 -36 -131 -36q-40 0 -118 14t-117 14q-82 0 -137 -55l-71 97q79 100 186 100q38 0 114.5 -12.5t115.5 -12.5q143 0 221 97z" />
    <glyph glyph-name="afii62754" unicode="&#x623;" horiz-adv-x="561" arabic-form="final" 
d="M561 0h-38q-209 1 -282 138q-47 88 -54 309l-22 704l204 82v-814q0 -184 147 -184h45v-235zM466 1395l-417 -122l5 66l99 53q-52 51 -52 103q0 61 50 111t111 50q80 0 125 -43l-25 -64q-39 16 -103 16q-26 0 -54 -14q-33 -17 -33 -40q0 -70 123 -70q16 0 167 46z" />
    <glyph glyph-name="afii62755" unicode="&#x624;" horiz-adv-x="745" arabic-form="final" 
d="M745 0h-77q-37 -160 -187 -304q-136 -130 -305 -196l-147 139q142 53 287 157q157 113 191 201q-164 0 -235 35q-105 51 -105 195q0 94 54 198q67 130 171 130q123 0 200 -109q62 -87 78 -211h75v-235zM511 234q-5 45 -38 85q-37 43 -80 43q-29 0 -55.5 -26t-26.5 -55
q0 -60 99 -60q47 0 101 13zM618 781l-417 -122l5 66l99 53q-52 51 -52 103q0 61 50 111t111 50q80 0 125 -43l-25 -64q-39 16 -103 16q-26 0 -54 -14q-33 -17 -33 -40q0 -70 123 -70q16 0 167 46z" />
    <glyph glyph-name="afii62756" unicode="&#x625;" horiz-adv-x="561" arabic-form="final" 
d="M561 0h-38q-209 1 -282 138q-47 88 -54 309l-22 704l204 82v-814q0 -184 147 -184h45v-235zM544 -387l-417 -122l5 66l99 53q-52 51 -52 103q0 61 50 111t111 50q80 0 125 -43l-25 -64q-39 16 -103 16q-26 0 -54 -14q-33 -17 -33 -40q0 -70 123 -70q16 0 167 46z" />
    <glyph glyph-name="afii62759" unicode="&#x626;" horiz-adv-x="1240" arabic-form="final" 
d="M1240 0h-29q-65 5 -214 15q-29 2 -40 2q-100 0 -100 -30q0 -19 40 -25q71 -11 213 -32q111 -31 111 -117q0 -106 -149 -211q-177 -124 -435 -124q-279 0 -409 140q-104 112 -104 300q0 158 94 320l156 -55q-21 -35 -41 -104q-22 -72 -22 -109q0 -256 338 -256
q236 0 350 47q35 14 35 26q0 11 -30 15q-22 3 -189 22q-146 35 -146 132q0 139 183 218q143 61 303 61h85v-235zM763 540l-417 -122l5 66l99 53q-52 51 -52 103q0 61 50 111t111 50q80 0 125 -43l-25 -64q-39 16 -103 16q-26 0 -54 -14q-33 -17 -33 -40q0 -70 123 -70
q16 0 167 46z" />
    <glyph glyph-name="afii62757" unicode="&#x626;" horiz-adv-x="436" arabic-form="initial" 
d="M388 328q0 -160 -99 -246q-94 -81 -258 -82h-101v235h201q105 0 105 52q0 32 -46 91l-69 88l132 190q135 -135 135 -328zM392 873l-417 -122l5 66l99 53q-52 51 -52 103q0 61 50 111t111 50q80 0 125 -43l-25 -64q-39 16 -103 16q-26 0 -54 -14q-33 -17 -33 -40
q0 -70 123 -70q16 0 167 46z" />
    <glyph glyph-name="afii62758" unicode="&#x626;" horiz-adv-x="509" arabic-form="medial" 
d="M509 0h-19q-144 1 -190 106q-75 -105 -239 -106h-131v235h123q154 0 154 107v80l167 55v-50q0 -192 124 -192h11v-235zM475 815l-417 -122l5 66l99 53q-52 51 -52 103q0 61 50 111t111 50q80 0 125 -43l-25 -64q-39 16 -103 16q-26 0 -54 -14q-33 -17 -33 -40
q0 -70 123 -70q16 0 167 46z" />
    <glyph glyph-name="afii57415" unicode="&#x627;" horiz-adv-x="376" arabic-form="isolated" 
d="M375 27l-152 -55l-58 1179l210 82v-1206z" />
    <glyph glyph-name="afii62760" unicode="&#x627;" horiz-adv-x="561" arabic-form="final" 
d="M561 0h-38q-209 1 -282 138q-47 88 -54 309l-22 704l204 82v-814q0 -184 147 -184h45v-235z" />
    <glyph glyph-name="afii62763" unicode="&#x628;" horiz-adv-x="1733" arabic-form="final" 
d="M1733 0h-39q-152 1 -209 119q-77 -102 -342 -147q-175 -30 -384 -30q-594 0 -594 349q0 104 77 257l151 -47q-44 -96 -44 -137q0 -85 65 -126q96 -60 356 -60h88q214 0 315 15q238 35 238 149v52l167 55v-48q0 -94 29 -128q32 -38 123 -38h3v-235zM948 -334l-124 -164
l-169 112l124 166z" />
    <glyph glyph-name="afii62761" unicode="&#x628;" horiz-adv-x="436" arabic-form="initial" 
d="M388 328q0 -160 -99 -246q-94 -81 -258 -82h-101v235h201q105 0 105 52q0 32 -46 91l-69 88l132 190q135 -135 135 -328zM329 -298l-124 -164l-169 112l124 166z" />
    <glyph glyph-name="afii62762" unicode="&#x628;" horiz-adv-x="509" arabic-form="medial" 
d="M509 0h-19q-144 1 -190 106q-75 -105 -239 -106h-131v235h123q154 0 154 107v80l167 55v-50q0 -192 124 -192h11v-235zM380 -305l-124 -164l-169 112l124 166z" />
    <glyph glyph-name="afii62764" unicode="&#x629;" horiz-adv-x="892" arabic-form="final" 
d="M892 0q-20 0 -100 1q-113 1 -168 60q-37 40 -62 135q-73 -71 -240 -71q-82 0 -135 38q-60 42 -60 121q0 204 332 402l-19 88l149 154l110 -545q20 -98 56 -127q26 -21 100 -21h37v-235zM526 367l-34 154q-51 -15 -107 -55q-71 -51 -71 -96q0 -29 88 -29q96 0 124 26z
M533 1077l-110 -149l-136 96l-80 -112l-172 117l110 149l144 -99l79 112z" />
    <glyph glyph-name="afii62767" unicode="&#x62a;" horiz-adv-x="1733" arabic-form="final" 
d="M1733 0h-39q-152 1 -209 119q-77 -102 -342 -147q-175 -30 -384 -30q-594 0 -594 349q0 104 77 257l151 -47q-44 -96 -44 -137q0 -85 65 -126q96 -60 356 -60h88q214 0 315 15q238 35 238 149v52l167 55v-48q0 -94 29 -128q32 -38 123 -38h3v-235zM1120 839l-110 -149
l-136 96l-80 -112l-172 117l110 149l144 -99l79 112z" />
    <glyph glyph-name="afii62765" unicode="&#x62a;" horiz-adv-x="436" arabic-form="initial" 
d="M388 328q0 -160 -99 -246q-94 -81 -258 -82h-101v235h201q105 0 105 52q0 32 -46 91l-69 88l132 190q135 -135 135 -328zM427 926l-110 -149l-136 96l-80 -112l-172 117l110 149l144 -99l79 112z" />
    <glyph glyph-name="afii62766" unicode="&#x62a;" horiz-adv-x="509" arabic-form="medial" 
d="M509 0h-19q-144 1 -190 106q-75 -105 -239 -106h-131v235h123q154 0 154 107v80l167 55v-50q0 -192 124 -192h11v-235zM497 789l-110 -149l-136 96l-80 -112l-172 117l110 149l144 -99l79 112z" />
    <glyph glyph-name="afii62770" unicode="&#x62b;" horiz-adv-x="1733" arabic-form="final" 
d="M1733 0h-39q-152 1 -209 119q-77 -102 -342 -147q-175 -30 -384 -30q-594 0 -594 349q0 104 77 257l151 -47q-44 -96 -44 -137q0 -85 65 -126q96 -60 356 -60h88q214 0 315 15q238 35 238 149v52l167 55v-48q0 -94 29 -128q32 -38 123 -38h3v-235zM624 732l102 140
l133 -89l77 104l156 -104l-106 -139l-133 88l-72 -104zM703 978l103 136l144 -97l-101 -137z" />
    <glyph glyph-name="afii62768" unicode="&#x62b;" horiz-adv-x="436" arabic-form="initial" 
d="M388 328q0 -160 -99 -246q-94 -81 -258 -82h-101v235h201q105 0 105 52q0 32 -46 91l-69 88l132 190q135 -135 135 -328zM-6 847l102 140l133 -89l77 104l156 -104l-106 -139l-133 88l-72 -104zM73 1093l103 136l144 -97l-101 -137z" />
    <glyph glyph-name="afii62769" unicode="&#x62b;" horiz-adv-x="509" arabic-form="medial" 
d="M509 0h-19q-144 1 -190 106q-75 -105 -239 -106h-131v235h123q154 0 154 107v80l167 55v-50q0 -192 124 -192h11v-235zM35 715l102 140l133 -89l77 104l156 -104l-106 -139l-133 88l-72 -104zM114 961l103 136l144 -97l-101 -137z" />
    <glyph glyph-name="afii62773" unicode="&#x62c;" horiz-adv-x="1318" arabic-form="final" 
d="M1318 1h-212q-235 0 -231 322q-197 -63 -341 -196q-154 -143 -154 -289q0 -344 514 -344q188 0 324 45l64 -201q-203 -77 -421 -77q-311 0 -487 117q-209 139 -209 433q0 187 163 357q129 135 324 226q-177 22 -220 22q-47 0 -96 -79q-99 41 -154 74q95 236 222 236
q97 0 295 -22.5t298 -22.5q109 0 197 10l-28 -240q-81 0 -170 -16q7 -51 23 -74q33 -47 120 -47h179v-234zM876 -170l-124 -164l-169 112l124 166z" />
    <glyph glyph-name="afii62771" unicode="&#x62c;" horiz-adv-x="1081" arabic-form="initial" 
d="M1078 516l-27 -210q-126 0 -267 -79q-85 -51 -259 -147q-156 -79 -357 -79h-238v234h235q150 0 286 46q15 5 221 80q-35 4 -174 45q-128 38 -157 38q-38 0 -64 -27q-18 -24 -37 -47q-91 36 -152 71q91 219 220 219q85 0 320.5 -74t366.5 -74q42 0 83 4zM753 -262
l-124 -164l-169 112l124 166z" />
    <glyph glyph-name="afii62772" unicode="&#x62c;" horiz-adv-x="1208" arabic-form="medial" 
d="M1208 1h-198q-235 0 -240 292q-60 -33 -181 -127q-106 -82 -178 -115q-108 -50 -237 -50h-244v234h213q150 0 274 63q68 37 205 110q-39 4 -157 25q-107 19 -124 19q-43 0 -96 -82q-95 39 -151 71q96 239 220 239q107 0 334 -53t344 -53q59 0 111 6l-27 -227
q-98 0 -186 -27q10 -42 29 -59q36 -32 124 -32h165v-234zM737 -281l-124 -164l-169 112l124 166z" />
    <glyph glyph-name="afii62776" unicode="&#x62d;" horiz-adv-x="1318" arabic-form="final" 
d="M1318 1h-212q-235 0 -231 322q-197 -63 -341 -196q-154 -143 -154 -289q0 -344 514 -344q188 0 324 45l64 -201q-203 -77 -421 -77q-311 0 -487 117q-209 139 -209 433q0 187 163 357q129 135 324 226q-177 22 -220 22q-47 0 -96 -79q-99 41 -154 74q95 236 222 236
q97 0 295 -22.5t298 -22.5q109 0 197 10l-28 -240q-81 0 -170 -16q7 -51 23 -74q33 -47 120 -47h179v-234z" />
    <glyph glyph-name="afii62774" unicode="&#x62d;" horiz-adv-x="1081" arabic-form="initial" 
d="M1078 516l-27 -210q-126 0 -267 -79q-85 -51 -259 -147q-156 -79 -357 -79h-238v234h235q150 0 286 46q15 5 221 80q-35 4 -174 45q-128 38 -157 38q-38 0 -64 -27q-18 -24 -37 -47q-91 36 -152 71q91 219 220 219q85 0 320.5 -74t366.5 -74q42 0 83 4z" />
    <glyph glyph-name="afii62775" unicode="&#x62d;" horiz-adv-x="1208" arabic-form="medial" 
d="M1208 1h-198q-235 0 -240 292q-60 -33 -181 -127q-106 -82 -178 -115q-108 -50 -237 -50h-244v234h213q150 0 274 63q68 37 205 110q-39 4 -157 25q-107 19 -124 19q-43 0 -96 -82q-95 39 -151 71q96 239 220 239q107 0 334 -53t344 -53q59 0 111 6l-27 -227
q-98 0 -186 -27q10 -42 29 -59q36 -32 124 -32h165v-234z" />
    <glyph glyph-name="afii62779" unicode="&#x62e;" horiz-adv-x="1318" arabic-form="final" 
d="M1318 1h-212q-235 0 -231 322q-197 -63 -341 -196q-154 -143 -154 -289q0 -344 514 -344q188 0 324 45l64 -201q-203 -77 -421 -77q-311 0 -487 117q-209 139 -209 433q0 187 163 357q129 135 324 226q-177 22 -220 22q-47 0 -96 -79q-99 41 -154 74q95 236 222 236
q97 0 295 -22.5t298 -22.5q109 0 197 10l-28 -240q-81 0 -170 -16q7 -51 23 -74q33 -47 120 -47h179v-234zM844 972l-124 -164l-169 112l124 166z" />
    <glyph glyph-name="afii62777" unicode="&#x62e;" horiz-adv-x="1081" arabic-form="initial" 
d="M1078 516l-27 -210q-126 0 -267 -79q-85 -51 -259 -147q-156 -79 -357 -79h-238v234h235q150 0 286 46q15 5 221 80q-35 4 -174 45q-128 38 -157 38q-38 0 -64 -27q-18 -24 -37 -47q-91 36 -152 71q91 219 220 219q85 0 320.5 -74t366.5 -74q42 0 83 4zM744 938
l-124 -164l-169 112l124 166z" />
    <glyph glyph-name="afii62778" unicode="&#x62e;" horiz-adv-x="1208" arabic-form="medial" 
d="M1208 1h-198q-235 0 -240 292q-60 -33 -181 -127q-106 -82 -178 -115q-108 -50 -237 -50h-244v234h213q150 0 274 63q68 37 205 110q-39 4 -157 25q-107 19 -124 19q-43 0 -96 -82q-95 39 -151 71q96 239 220 239q107 0 334 -53t344 -53q59 0 111 6l-27 -227
q-98 0 -186 -27q10 -42 29 -59q36 -32 124 -32h165v-234zM790 990l-124 -164l-169 112l124 166z" />
    <glyph glyph-name="afii62780" unicode="&#x62f;" horiz-adv-x="1108" arabic-form="final" 
d="M1108 1h-41q-202 0 -285 163q-82 -191 -329 -191q-197 0 -289 109l71 188q83 -63 240 -63q237 0 237 106q0 18 -7 38l-137 390l163 148l135 -434q34 -109 63 -150q48 -70 135 -70h44v-234z" />
    <glyph glyph-name="afii62781" unicode="&#x630;" horiz-adv-x="1108" arabic-form="final" 
d="M1108 1h-41q-202 0 -285 163q-82 -191 -329 -191q-197 0 -289 109l71 188q83 -63 240 -63q237 0 237 106q0 18 -7 38l-137 390l163 148l135 -434q34 -109 63 -150q48 -70 135 -70h44v-234zM727 1149l-124 -164l-169 112l124 166z" />
    <glyph glyph-name="afii62782" unicode="&#x631;" horiz-adv-x="834" arabic-form="final" 
d="M834 0h-36q-79 1 -115 40q-15 -177 -180 -332q-138 -129 -330 -204l-170 117q150 64 308 177q213 152 213 258q0 59 -108 206l159 171q72 -119 112 -155q47 -43 121 -43h26v-235z" />
    <glyph glyph-name="afii62783" unicode="&#x632;" horiz-adv-x="834" arabic-form="final" 
d="M834 0h-36q-79 1 -115 40q-15 -177 -180 -332q-138 -129 -330 -204l-170 117q150 64 308 177q213 152 213 258q0 59 -108 206l159 171q72 -119 112 -155q47 -43 121 -43h26v-235zM586 712l-124 -164l-169 112l124 166z" />
    <glyph glyph-name="afii62786" unicode="&#x633;" horiz-adv-x="2026" arabic-form="final" 
d="M2026 0h-39q-80 0 -127 31q-35 22 -68 75q-64 -105 -184 -105q-113 0 -168 105q-79 -105 -190 -105q-92 0 -121 41q0 -242 -149 -401q-152 -163 -393 -163q-242 0 -362 152q-97 122 -97 313q0 153 83 319l156 -55q-55 -142 -55 -220q0 -134 81 -206q78 -69 214 -69
q145 0 240 81q101 85 101 227q0 137 -99 270l176 165q37 -76 95 -139q74 -81 130 -81q107 0 107 102v74l143 49v-66q0 -159 113 -159q127 0 127 102v74l145 49v-66q0 -97 9 -117q19 -42 101 -42h31v-235z" />
    <glyph glyph-name="afii62784" unicode="&#x633;" horiz-adv-x="1158" arabic-form="initial" 
d="M1120 331q0 -121 -64 -220q-74 -113 -189 -113q-159 0 -231 108q-61 -105 -176 -105q-144 0 -204 105q-30 -49 -98 -78q-62 -28 -125 -28h-103v235h123q56 0 92.5 33t36.5 88v60l143 47v-63q0 -60 23 -106q30 -59 84 -59q143 0 143 129v80l146 44v-102q0 -66 38 -110
q40 -47 105 -47q88 0 88 83q0 77 -69 140l143 160q94 -103 94 -281z" />
    <glyph glyph-name="afii62785" unicode="&#x633;" horiz-adv-x="1213" arabic-form="medial" 
d="M1213 0h-33q-129 1 -195 106q-65 -105 -184 -105q-114 0 -168 105q-81 -105 -195 -105q-121 0 -171 105q-66 -105 -192 -106h-145v235h150q85 0 85 102v74l146 49v-66q0 -159 132 -159q107 0 107 102v74l143 49v-66q0 -159 113 -159q127 0 127 102v74l145 49v-66
q0 -96 9 -117q18 -42 101 -42h25v-235z" />
    <glyph glyph-name="afii62789" unicode="&#x634;" horiz-adv-x="2026" arabic-form="final" 
d="M2026 0h-39q-80 0 -127 31q-35 22 -68 75q-64 -105 -184 -105q-113 0 -168 105q-79 -105 -190 -105q-92 0 -121 41q0 -242 -149 -401q-152 -163 -393 -163q-242 0 -362 152q-97 122 -97 313q0 153 83 319l156 -55q-55 -142 -55 -220q0 -134 81 -206q78 -69 214 -69
q145 0 240 81q101 85 101 227q0 137 -99 270l176 165q37 -76 95 -139q74 -81 130 -81q107 0 107 102v74l143 49v-66q0 -159 113 -159q127 0 127 102v74l145 49v-66q0 -97 9 -117q19 -42 101 -42h31v-235zM1149 757l102 140l133 -89l77 104l156 -104l-106 -139l-133 88
l-72 -104zM1228 1003l103 136l144 -97l-101 -137z" />
    <glyph glyph-name="afii62787" unicode="&#x634;" horiz-adv-x="1158" arabic-form="initial" 
d="M1120 331q0 -121 -64 -220q-74 -113 -189 -113q-159 0 -231 108q-61 -105 -176 -105q-144 0 -204 105q-30 -49 -98 -78q-62 -28 -125 -28h-103v235h123q56 0 92.5 33t36.5 88v60l143 47v-63q0 -60 23 -106q30 -59 84 -59q143 0 143 129v80l146 44v-102q0 -66 38 -110
q40 -47 105 -47q88 0 88 83q0 77 -69 140l143 160q94 -103 94 -281zM445.139 765.596l95.8369 135.668l124.964 -86.2461l72.3467 100.782l146.574 -100.782l-99.5957 -134.698l-124.963 85.2764l-67.6494 -100.781zM519.365 1003.98l96.7764 131.792l135.299 -93.998
l-94.8975 -132.761z" />
    <glyph glyph-name="afii62788" unicode="&#x634;" horiz-adv-x="1213" arabic-form="medial" 
d="M1213 0h-33q-129 1 -195 106q-65 -105 -184 -105q-114 0 -168 105q-81 -105 -195 -105q-121 0 -171 105q-66 -105 -192 -106h-145v235h150q85 0 85 102v74l146 49v-66q0 -159 132 -159q107 0 107 102v74l143 49v-66q0 -159 113 -159q127 0 127 102v74l145 49v-66
q0 -96 9 -117q18 -42 101 -42h25v-235zM367 720l102 140l133 -89l77 104l156 -104l-106 -139l-133 88l-72 -104zM446 966l103 136l144 -97l-101 -137z" />
    <glyph glyph-name="afii62792" unicode="&#x635;" horiz-adv-x="2178" arabic-form="final" 
d="M2178 1h-28q-152 0 -236 110q-130 -110 -379 -110h-143q-186 0 -223 41q0 -242 -149 -401q-152 -163 -393 -163q-242 0 -362 152q-97 122 -97 313q0 153 83 319l156 -55q-55 -142 -55 -220q0 -134 81 -206q78 -69 214 -69q145 0 240 81q101 85 101 227q0 137 -99 270
l176 165q89 -215 167 -215q35 0 53 17q340 429 547 429q114 0 187.5 -67.5t73.5 -180.5q0 -104 -47 -184q10 -19 116 -19h16v-234zM1928 372q0 86 -143 86q-91 0 -203 -92q-22 -18 -135 -131h99q107 0 219 26q163 38 163 111z" />
    <glyph glyph-name="afii62790" unicode="&#x635;" horiz-adv-x="1337" arabic-form="initial" 
d="M1285 438q0 -211 -195 -333q-167 -104 -391 -104h-204q-168 0 -231 91q-61 -91 -192 -91h-142v234h117q129 0 129 118v69l157 44v-83q0 -73 11 -100q18 -45 77 -45q40 0 94 66q312 382 508 382q113 0 187.5 -68t74.5 -180zM1120 378q0 85 -143 85q-92 0 -203 -91
q-22 -18 -136 -132h99q107 0 219 26q164 39 164 112z" />
    <glyph glyph-name="afii62791" unicode="&#x635;" horiz-adv-x="1367" arabic-form="medial" 
d="M1367 1h-30q-151 0 -234 110q-132 -110 -379 -110h-231q-170 0 -229 91q-61 -91 -192 -91h-142v234h117q129 0 129 118v69l157 44v-83q0 -73 11 -100q18 -45 77 -45q38 0 91 66q308 382 509 382q114 0 187.5 -67.5t73.5 -180.5q0 -103 -47 -184q10 -19 116 -19h16v-234z
M1117 378q0 85 -143 85q-92 0 -203 -91q-28 -23 -135 -132h99q107 0 219 26q163 39 163 112z" />
    <glyph glyph-name="afii62795" unicode="&#x636;" horiz-adv-x="2178" arabic-form="final" 
d="M2178 1h-28q-152 0 -236 110q-130 -110 -379 -110h-143q-186 0 -223 41q0 -242 -149 -401q-152 -163 -393 -163q-242 0 -362 152q-97 122 -97 313q0 153 83 319l156 -55q-55 -142 -55 -220q0 -134 81 -206q78 -69 214 -69q145 0 240 81q101 85 101 227q0 137 -99 270
l176 165q89 -215 167 -215q35 0 53 17q340 429 547 429q114 0 187.5 -67.5t73.5 -180.5q0 -104 -47 -184q10 -19 116 -19h16v-234zM1928 372q0 86 -143 86q-91 0 -203 -92q-22 -18 -135 -131h99q107 0 219 26q163 38 163 111zM1508 920l-124 -164l-169 112l124 166z" />
    <glyph glyph-name="afii62793" unicode="&#x636;" horiz-adv-x="1337" arabic-form="initial" 
d="M1285 438q0 -211 -195 -333q-167 -104 -391 -104h-204q-168 0 -231 91q-61 -91 -192 -91h-142v234h117q129 0 129 118v69l157 44v-83q0 -73 11 -100q18 -45 77 -45q40 0 94 66q312 382 508 382q113 0 187.5 -68t74.5 -180zM1120 378q0 85 -143 85q-92 0 -203 -91
q-22 -18 -136 -132h99q107 0 219 26q164 39 164 112zM673 889l-124 -164l-169 112l124 166z" />
    <glyph glyph-name="afii62794" unicode="&#x636;" horiz-adv-x="1367" arabic-form="medial" 
d="M1367 1h-30q-151 0 -234 110q-132 -110 -379 -110h-231q-170 0 -229 91q-61 -91 -192 -91h-142v234h117q129 0 129 118v69l157 44v-83q0 -73 11 -100q18 -45 77 -45q38 0 91 66q308 382 509 382q114 0 187.5 -67.5t73.5 -180.5q0 -103 -47 -184q10 -19 116 -19h16v-234z
M1117 378q0 85 -143 85q-92 0 -203 -91q-28 -23 -135 -132h99q107 0 219 26q163 39 163 112zM718 923l-124 -164l-169 112l124 166z" />
    <glyph glyph-name="afii62798" unicode="&#x637;" horiz-adv-x="1270" arabic-form="final" 
d="M1270 0h-29q-132 1 -224 122q-147 -121 -445 -121h-160q-255 0 -344 129l77 146q63 -41 144 -41q120 0 140 88q17 75 17 228q0 243 -37 600l213 82v-694q159 144 302 144q113 0 186 -66q75 -69 75 -181q0 -96 -52 -176q20 -25 123 -25h14v-235zM1020 375q0 85 -143 85
q-92 0 -205 -93q-17 -14 -136 -132h99q106 0 221 27q164 40 164 113z" />
    <glyph glyph-name="afii62796" unicode="&#x637;" horiz-adv-x="971" arabic-form="initial" 
d="M924 436q0 -215 -196 -333q-169 -102 -417 -103h-381v235h98q120 0 140 88q17 75 17 232q0 242 -36 596l213 82v-694q161 144 301 144q113 0 186 -66q75 -69 75 -181zM759 375q0 85 -143 85q-91 0 -204 -93q-11 -9 -137 -132h99q106 0 221 27q164 40 164 113z" />
    <glyph glyph-name="afii62797" unicode="&#x637;" horiz-adv-x="1010" arabic-form="medial" 
d="M1010 0h-29q-133 1 -224 122q-147 -121 -446 -122h-381v235h95q124 0 143 88q16 75 16 230q0 243 -35 598l213 82v-694q161 144 301 144q113 0 186 -66q75 -69 75 -181q0 -101 -52 -176q21 -25 124 -25h14v-235zM759 375q0 85 -143 85q-91 0 -204 -93q-11 -9 -137 -132
h99q106 0 221 27q164 40 164 113z" />
    <glyph glyph-name="afii62801" unicode="&#x638;" horiz-adv-x="1270" arabic-form="final" 
d="M1270 0h-29q-132 1 -224 122q-147 -121 -445 -121h-160q-255 0 -344 129l77 146q63 -41 144 -41q120 0 140 88q17 75 17 228q0 243 -37 600l213 82v-694q159 144 302 144q113 0 186 -66q75 -69 75 -181q0 -96 -52 -176q20 -25 123 -25h14v-235zM1020 375q0 85 -143 85
q-92 0 -205 -93q-17 -14 -136 -132h99q106 0 221 27q164 40 164 113zM1087 1025l-124 -164l-169 112l124 166z" />
    <glyph glyph-name="afii62799" unicode="&#x638;" horiz-adv-x="971" arabic-form="initial" 
d="M779 1015l-124 -164l-169 112l124 166zM924 436q0 -215 -196 -333q-169 -102 -417 -103h-381v235h98q120 0 140 88q17 75 17 232q0 242 -36 596l213 82v-694q161 144 301 144q113 0 186 -66q75 -69 75 -181zM759 375q0 85 -143 85q-91 0 -204 -93q-11 -9 -137 -132h99
q106 0 221 27q164 40 164 113z" />
    <glyph glyph-name="afii62800" unicode="&#x638;" horiz-adv-x="1010" arabic-form="medial" 
d="M827 1026l-124 -164l-169 112l124 166zM1010 0h-29q-133 1 -224 122q-147 -121 -446 -122h-381v235h95q124 0 143 88q16 75 16 230q0 243 -35 598l213 82v-694q161 144 301 144q113 0 186 -66q75 -69 75 -181q0 -101 -52 -176q21 -25 124 -25h14v-235zM759 375
q0 85 -143 85q-91 0 -204 -93q-11 -9 -137 -132h99q106 0 221 27q164 40 164 113z" />
    <glyph glyph-name="afii62804" unicode="&#x639;" horiz-adv-x="1078" arabic-form="final" 
d="M1183 -671q-155 -66 -374 -66q-281 0 -447 110q-197 130 -197 396q0 212 157 393q50 58 214 188q0 53 -162 53v30q0 102 75 173q93 88 269 88q76 0 143 -35q80 -43 80 -113q0 -106 -50 -173q-29 -39 -102 -89q21 -49 154 -49h135v-235h-187q-184 1 -261 174
q-108 -57 -186 -163q-86 -116 -86 -228q0 -161 174 -234q125 -52 311 -52q159 0 271 36z" />
    <glyph glyph-name="afii62802" unicode="&#x639;" horiz-adv-x="854" arabic-form="initial" 
d="M803 309q-26 -196 -24 -206q-443 -102 -704 -103h-145v235h249l-32 68q-15 44 -15 116q0 96 76 185q88 104 219 104q71 0 146 -34q79 -36 120 -90l-63 -126q-89 49 -190 49q-53 0 -101 -22q-61 -28 -61 -74q0 -55 74.5 -102.5t148.5 -45.5q102 3 302 46z" />
    <glyph glyph-name="afii62803" unicode="&#x639;" horiz-adv-x="781" arabic-form="medial" 
d="M781 0h-133q-168 1 -257 139q-182 -138 -374 -139h-87v235h95q219 0 267 80q0 34 -67 53q-48 13 -93 13v27q0 96 70 164q87 84 252 84q84 0 143 -33q72 -41 72 -119q0 -103 -57 -167q-44 -38 -89 -75q18 -27 146 -27h112v-235z" />
    <glyph glyph-name="afii62807" unicode="&#x63a;" horiz-adv-x="1078" arabic-form="final" 
d="M795 990l-124 -164l-169 112l124 166zM1183 -671q-155 -66 -374 -66q-281 0 -447 110q-197 130 -197 396q0 212 157 393q50 58 214 188q0 53 -162 53v30q0 102 75 173q93 88 269 88q76 0 143 -35q80 -43 80 -113q0 -106 -50 -173q-29 -39 -102 -89q21 -49 154 -49h135
v-235h-187q-184 1 -261 174q-108 -57 -186 -163q-86 -116 -86 -228q0 -161 174 -234q125 -52 311 -52q159 0 271 36z" />
    <glyph glyph-name="afii62805" unicode="&#x63a;" horiz-adv-x="854" arabic-form="initial" 
d="M803 309q-26 -196 -24 -206q-443 -102 -704 -103h-145v235h249l-32 68q-15 44 -15 116q0 96 76 185q88 104 219 104q71 0 146 -34q79 -36 120 -90l-63 -126q-89 49 -190 49q-53 0 -101 -22q-61 -28 -61 -74q0 -55 74.5 -102.5t148.5 -45.5q102 3 302 46zM559 1009
l-124 -164l-169 112l124 166z" />
    <glyph glyph-name="afii62806" unicode="&#x63a;" horiz-adv-x="781" arabic-form="medial" 
d="M781 0h-133q-168 1 -257 139q-182 -138 -374 -139h-87v235h95q219 0 267 80q0 34 -67 53q-48 13 -93 13v27q0 96 70 164q87 84 252 84q84 0 143 -33q72 -41 72 -119q0 -103 -57 -167q-44 -38 -89 -75q18 -27 146 -27h112v-235zM546 972l-124 -164l-169 112l124 166z" />
    <glyph glyph-name="afii62810" unicode="&#x641;" horiz-adv-x="1742" arabic-form="final" 
d="M1766 0h-88q-66 0 -139 29q-86 28 -126 64q-62 -48 -201 -89q-200 -59 -447 -59q-594 0 -594 348q0 105 77 258l151 -47q-44 -96 -44 -137q0 -85 65 -126q97 -61 356 -61h88q128 0 248 20q101 17 129 35q-42 47 -42 143q0 112 103 219q97 100 181 100q87 0 141 -95
q46 -81 46 -175q0 -124 -86 -192h182v-235zM1535 403q0 33 -29 55t-62 22q-35 0 -71 -28.5t-36 -62.5q0 -26 32 -48q29 -21 56 -21q30 0 70 27.5t40 55.5zM1557 974l-124 -164l-169 112l124 166z" />
    <glyph glyph-name="afii62808" unicode="&#x641;" horiz-adv-x="622" arabic-form="initial" 
d="M571 359q0 -358 -440 -359h-201v235h319q171 0 171 118q-38 -44 -152 -44q-195 0 -195 184q0 88 59 195q72 130 172 130q123 0 203 -176q64 -143 64 -283zM373 526q-10 33 -34 65q-30 37 -60 37q-21 0 -46 -26t-25 -48q0 -72 77 -72q69 0 88 44zM411 1109l-124 -164
l-169 112l124 166z" />
    <glyph glyph-name="afii62809" unicode="&#x641;" horiz-adv-x="677" arabic-form="medial" 
d="M677 0h-69q-176 1 -286 81q-43 -31 -118.5 -56t-128.5 -25h-145v235h222q-39 45 -39 129q0 114 101 220q95 99 180 99q87 0 139 -95q42 -79 42 -174q0 -114 -80 -179h182v-235zM440 389q0 33 -26 55t-59 22q-34 0 -69 -29t-35 -62q0 -26 29 -47.5t56 -21.5q30 0 67 27
t37 56zM467 968l-124 -164l-169 112l124 166z" />
    <glyph glyph-name="afii62813" unicode="&#x642;" horiz-adv-x="1302" arabic-form="final" 
d="M1302 0h-133q-21 -173 -140 -308q-153 -173 -402 -173t-375 152q-103 124 -103 313q0 169 74 322l163 -60q-47 -117 -47 -217q0 -134 88 -208q83 -68 220 -68q196 0 306 111q76 76 76 137h-58q-145 0 -212 36q-90 50 -90 181q0 97 53 199q67 129 172 129q115 0 193 -106
q65 -88 80 -205h135v-235zM1004 207q-4 46 -34 91q-35 50 -78 50q-23 0 -50 -23t-27 -46q0 -51 46 -65q22 -7 91 -7h52zM1076 800l-110 -149l-136 96l-80 -112l-172 117l110 149l144 -99l79 112z" />
    <glyph glyph-name="afii62811" unicode="&#x642;" horiz-adv-x="573" arabic-form="initial" 
d="M571 359q0 -358 -440 -359h-201v235h319q171 0 171 118q-38 -44 -152 -44q-195 0 -195 184q0 88 59 195q72 130 172 130q123 0 203 -176q64 -143 64 -283zM373 526q-10 33 -34 65q-30 37 -60 37q-21 0 -46 -26t-25 -48q0 -72 77 -72q69 0 88 44zM501 1064l-110 -149
l-136 96l-80 -112l-172 117l110 149l144 -99l79 112z" />
    <glyph glyph-name="afii62812" unicode="&#x642;" horiz-adv-x="677" arabic-form="medial" 
d="M677 0h-69q-176 1 -286 81q-43 -31 -118.5 -56t-128.5 -25h-145v235h222q-39 45 -39 129q0 114 101 220q95 99 180 99q87 0 139 -95q42 -79 42 -174q0 -114 -80 -179h182v-235zM440 389q0 33 -26 55t-59 22q-34 0 -69 -29t-35 -62q0 -26 29 -47.5t56 -21.5q30 0 67 27
t37 56zM594 960l-110 -149l-136 96l-80 -112l-172 117l110 149l144 -99l79 112z" />
    <glyph glyph-name="afii62816" unicode="&#x643;" horiz-adv-x="1622" arabic-form="final" 
d="M1622 0h-23q-55 1 -116 38q-51 32 -73 71q-150 -164 -650 -164q-595 0 -595 348q0 105 77 258l151 -47q-44 -96 -44 -137q0 -85 65 -126q97 -61 356 -61h41q161 0 301 26q120 21 178 57q9 6 18 21t5 119l-25 748l204 82v-808q0 -80 35 -131q40 -59 87 -59h8v-235z
M1061 790l-413 -105v78l104 42q-52 50 -52 102q0 61 50 111t111 50q79 0 124 -42l-25 -65q-38 16 -102 16q-26 0 -54 -14q-33 -17 -33 -40q0 -70 123 -70q16 0 167 46v-109z" />
    <glyph glyph-name="afii57410" unicode="&#x643;" horiz-adv-x="966" arabic-form="initial" 
d="M982 1280l-30 -239q-131 -30 -282 -70q-303 -80 -408 -127q-35 -16 -12 -32q42 -29 126 -89q103 -75 169 -157q85 -105 85 -202q0 -220 -156 -303q-113 -61 -361 -61h-183v235h189q341 0 341 85q0 79 -182 222q-201 158 -223 207q2 49 25 126q25 82 47 94
q261 137 855 311z" />
    <glyph glyph-name="afii62815" unicode="&#x643;" horiz-adv-x="1065" arabic-form="medial" 
d="M1065 0h-84q-120 1 -245 82q-109 71 -188 180q-35 -261 -470 -262h-148v235h142q152 0 204 7q145 19 145 89q0 65 -144 191q-158 138 -178 189q3 54 20 120q20 79 44 91q258 135 902 336l-28 -234q-159 -39 -274 -71q-304 -84 -469 -152q-36 -15 -10 -35
q165 -125 335 -295q137 -137 187 -171q95 -65 209 -65h50v-235z" />
    <glyph glyph-name="afii62819" unicode="&#x644;" horiz-adv-x="1257" arabic-form="final" 
d="M1257 0h-29q-37 0 -82 26t-62 58q-9 -235 -105 -382q-127 -194 -391 -194q-242 0 -362 152q-97 122 -97 313q0 151 83 320l156 -55q-59 -135 -59 -220q0 -135 80 -207q77 -69 213 -69q330 0 317 358l-39 1051l204 82v-808q0 -190 159 -190h14v-235z" />
    <glyph glyph-name="afii62817" unicode="&#x644;" horiz-adv-x="421" arabic-form="initial" 
d="M372 425q0 -196 -41 -285q-64 -139 -245 -140h-156v235h106q106 0 135 35q25 31 22 133l-25 748l204 82v-808z" />
    <glyph glyph-name="afii62818" unicode="&#x644;" horiz-adv-x="542" arabic-form="medial" 
d="M542 0h-63q-55 1 -116 38.5t-80 86.5q-61 -124 -197 -125h-156v235h106q110 0 138 35q23 28 19 133l-25 748l204 82v-808q0 -80 35 -131q40 -59 116 -59h19v-235z" />
    <glyph glyph-name="afii62822" unicode="&#x645;" horiz-adv-x="1058" arabic-form="final" 
d="M1058 0h-31q-119 1 -174 41q21 -48 21 -114q0 -46 -11 -84t-31 -65t-49 -41.5t-65 -14.5q-121 0 -190.5 93.5t-71.5 277.5q-41 0 -69 -8t-45.5 -25.5t-25.5 -46t-8 -68.5v-755h-165l-30 791q0 77 27 142t75 111.5t114.5 72.5t144.5 26l33 107q159 -98 237 -135
q149 -70 269 -70h45v-235zM597 141q0 -52 7 -95t20.5 -74t34 -48t48.5 -17q43 0 43 56q0 98 -153 178z" />
    <glyph glyph-name="afii62820" unicode="&#x645;" horiz-adv-x="752" arabic-form="initial" 
d="M710 240q0 -65 -39 -136q-43 -78 -93 -78q-80 0 -175 44q-76 35 -108 66q-106 -135 -281 -136h-84v235h79q158 0 214 96l90 156q85 114 182 114q119 0 176 -143q39 -97 39 -218zM575 265q0 47 -28 94q-33 55 -76 55q-61 0 -88 -105q59 -42 143 -66q49 -14 49 22z" />
    <glyph glyph-name="afii62821" unicode="&#x645;" horiz-adv-x="870" arabic-form="medial" 
d="M870 0h-37q-51 0 -108 25q-63 27 -88 66q-35 -157 -106 -157q-65 0 -179 58q-92 47 -127 78q-86 -69 -187 -70h-108v235h93q110 0 147 36q35 44 107 132q85 99 152 99q74 0 161 -94l133 -143q41 -30 113 -30h34v-235zM517 166q0 41 -29 93q-33 58 -70 58q-24 0 -57 -34
q-28 -29 -39 -56q61 -56 148 -83q47 -14 47 22z" />
    <glyph glyph-name="afii62825" unicode="&#x646;" horiz-adv-x="1293" arabic-form="final" 
d="M1293 1h-25q-105 0 -135 41q0 -242 -149 -401q-152 -163 -393 -163q-242 0 -362 152q-97 122 -97 313q0 153 83 319l156 -55q-55 -142 -55 -220q0 -134 81 -206q78 -69 214 -69q145 0 240 81q101 85 101 227q0 137 -99 270l176 165q57 -114 75 -139q58 -81 134 -81h55
v-234zM756 678l-124 -164l-169 112l124 166z" />
    <glyph glyph-name="afii62823" unicode="&#x646;" horiz-adv-x="436" arabic-form="initial" 
d="M388 328q0 -160 -99 -246q-94 -81 -258 -82h-101v235h201q105 0 105 52q0 32 -46 91l-69 88l132 190q135 -135 135 -328zM315 953l-124 -164l-169 112l124 166z" />
    <glyph glyph-name="afii62824" unicode="&#x646;" horiz-adv-x="509" arabic-form="medial" 
d="M509 0h-19q-144 1 -190 106q-75 -105 -239 -106h-131v235h123q154 0 154 107v80l167 55v-50q0 -192 124 -192h11v-235zM389 824l-124 -164l-169 112l124 166z" />
    <glyph glyph-name="afii57447" unicode="&#x647;" horiz-adv-x="771" arabic-form="isolated" 
d="M710 284q0 -132 -82 -216t-213 -84q-112 0 -177 51q-73 56 -73 164q0 122 116 305l-44 20l110 189q150 -53 250 -160q113 -122 113 -269zM553 271q0 93 -153 167q-75 -99 -75 -154q0 -82 96 -82q41 0 81 15q51 20 51 54z" />
    <glyph glyph-name="afii62828" unicode="&#x647;" horiz-adv-x="892" arabic-form="final" 
d="M892 0q-20 0 -100 1q-113 1 -168 60q-37 40 -62 135q-73 -71 -240 -71q-82 0 -135 38q-60 42 -60 121q0 204 332 402l-19 88l149 154l110 -545q20 -98 56 -127q26 -21 100 -21h37v-235zM526 367l-34 154q-51 -15 -107 -55q-71 -51 -71 -96q0 -29 88 -29q96 0 124 26z" />
    <glyph glyph-name="afii57470" unicode="&#x647;" horiz-adv-x="861" arabic-form="initial" 
d="M823 207q0 -278 -185 -278q-43 0 -131 41q-37 17 -138 67q-54 -36 -270 -37h-169v235h179q-36 23 -36 104q0 131 147 256l-44 28l99 211q198 -131 349 -285q199 -203 199 -342zM680 180q-2 33 -43 88q-36 48 -70 74q1 -9 1 -18q0 -35 -19 -76q-20 -45 -48 -60
q11 -15 67 -47.5t73 -32.5q43 0 39 72zM424 386q0 35 -30.5 65t-65.5 30q-32 0 -70 -38.5t-38 -70.5q0 -38 30 -66.5t68 -28.5q46 0 76 31.5t30 77.5z" />
    <glyph glyph-name="afii62827" unicode="&#x647;" horiz-adv-x="790" arabic-form="medial" 
d="M790 0h-103q-50 1 -86 -22q-43 -28 -43 -75q0 -71 91 -106q-13 -67 -36 -228q-222 38 -351 195q-91 111 -112 236h-220v235h202q0 170 83 327q77 146 145 146q48 0 113 -116q71 -127 71 -258q0 -101 -61 -205q-69 -117 -162 -127q12 -38 45 -72q35 -39 71 -45
q-5 10 -5 35q0 100 58 192q78 123 219 123h81v-235zM415 326q0 59 -31 114q-27 48 -43 48q-17 0 -45 -70q-32 -81 -32 -169q38 -5 91 17q60 24 60 60z" />
    <glyph glyph-name="afii62829" unicode="&#x648;" horiz-adv-x="745" arabic-form="final" 
d="M745 0h-77q-37 -160 -187 -304q-136 -130 -305 -196l-147 139q142 53 287 157q157 113 191 201q-164 0 -235 35q-105 51 -105 195q0 94 54 198q67 130 171 130q123 0 200 -109q62 -87 78 -211h75v-235zM511 234q-5 45 -38 85q-37 43 -80 43q-29 0 -55.5 -26t-26.5 -55
q0 -60 99 -60q47 0 101 13z" />
    <glyph glyph-name="afii62830" unicode="&#x649;" horiz-adv-x="1240" arabic-form="final" 
d="M1240 0h-29q-65 5 -214 15q-29 2 -40 2q-100 0 -100 -30q0 -19 40 -25q71 -11 213 -32q111 -31 111 -117q0 -106 -149 -211q-177 -124 -435 -124q-279 0 -409 140q-104 112 -104 300q0 158 94 320l156 -55q-21 -35 -41 -104q-22 -72 -22 -109q0 -256 338 -256
q236 0 350 47q35 14 35 26q0 11 -30 15q-22 3 -189 22q-146 35 -146 132q0 139 183 218q143 61 303 61h85v-235z" />
    <glyph glyph-name="afii62833" unicode="&#x64a;" horiz-adv-x="1240" arabic-form="final" 
d="M1240 0h-29q-65 5 -214 15q-29 2 -40 2q-100 0 -100 -30q0 -19 40 -25q71 -11 213 -32q111 -31 111 -117q0 -106 -149 -211q-177 -124 -435 -124q-279 0 -409 140q-104 112 -104 300q0 158 94 320l156 -55q-21 -35 -41 -104q-22 -72 -22 -109q0 -256 338 -256
q236 0 350 47q35 14 35 26q0 11 -30 15q-22 3 -189 22q-146 35 -146 132q0 139 183 218q143 61 303 61h85v-235zM878 -754l-110 -149l-136 96l-80 -112l-172 117l110 149l144 -99l79 112z" />
    <glyph glyph-name="afii62831" unicode="&#x64a;" horiz-adv-x="436" arabic-form="initial" 
d="M388 328q0 -160 -99 -246q-94 -81 -258 -82h-101v235h201q105 0 105 52q0 32 -46 91l-69 88l132 190q135 -135 135 -328zM418 -292l-110 -149l-136 96l-80 -112l-172 117l110 149l144 -99l79 112z" />
    <glyph glyph-name=".notdef" horiz-adv-x="1063" 
 />
    <glyph glyph-name=".null" 
 />
    <glyph glyph-name="nonmarkingreturn" horiz-adv-x="682" 
 />
    <glyph glyph-name="space" unicode=" " horiz-adv-x="483" 
 />
    <glyph glyph-name="exclam" unicode="!" horiz-adv-x="425" 
d="M422 915l-60 -629h-133l-64 629v293h257v-293zM416 -33h-239v240h239v-240z" />
    <glyph glyph-name="quotedbl" unicode="&#x22;" horiz-adv-x="523" 
d="M314 1295h141l-42 -322h-67zM94 1295h141l-42 -322h-67z" />
    <glyph glyph-name="numbersign" unicode="#" horiz-adv-x="868" 
d="M76 -23l73 359h-115v112h138l50 248h-188v111h210l73 366h112l-75 -366h250l73 366h113l-76 -366h119v-111h-140l-51 -248h191v-112h-212l-72 -359h-113l73 359h-247l-77 -359h-109zM284 448h249l50 248h-250z" />
    <glyph glyph-name="dollar" unicode="$" horiz-adv-x="868" 
d="M480 708q203 -128 259 -193q74 -89 74 -208q0 -131 -88 -221t-245 -104v-99h-74v94q-90 1 -159.5 14t-159.5 48v274h36q17 -94 53.5 -151.5t92 -86.5t137.5 -36v419q-205 128 -272 205t-67 179q0 110 84.5 194t254.5 106v39h74v-39q144 -11 290 -89v-245h-33
q-25 82 -59.5 135.5t-88.5 92.5q-41 27 -109 46v-374zM406 1084q-62 -5 -99 -34q-59 -44 -59 -108q0 -39 27.5 -78.5t130.5 -108.5v329zM480 39q73 17 107 58t34 103q0 53 -30 100t-111 106v-367z" />
    <glyph glyph-name="percent" unicode="%" horiz-adv-x="1736" 
d="M1333 1177l-816 -1226h-113l815 1226h114zM405 1177q121 0 203.5 -85.5t82.5 -220.5q0 -139 -83 -224.5t-206 -85.5q-121 0 -201 83t-80 219q0 140 82 227t202 87zM405 1131q-18 0 -30 -11q-21 -20 -31.5 -67.5t-10.5 -198.5q0 -118 14 -184q8 -37 28 -56q13 -11 30 -11
q19 0 30 10q20 18 29 58q14 65 14 180q0 143 -14 207q-8 43 -29 63q-11 10 -30 10zM1328 569q123 0 205.5 -84t82.5 -221q0 -139 -84 -225.5t-203 -86.5q-117 0 -200 86.5t-83 222.5t80.5 222t201.5 86zM1330 525q-17 0 -28 -10q-20 -19 -31.5 -65t-11.5 -177
q0 -139 13 -200q10 -43 32 -62q10 -11 28 -11q16 0 27 10q21 19 31 63q14 62 14 188q0 131 -13 193q-11 44 -31 61q-10 10 -30 10z" />
    <glyph glyph-name="ampersand" unicode="&#x26;" horiz-adv-x="1447" 
d="M989 688h353v-33q-59 -8 -93 -35t-88.5 -125t-153.5 -217q87 -79 141 -109q38 -22 75 -22q63 0 114 83l35 -19q-70 -137 -149 -194q-60 -44 -138 -44q-65 0 -125 29t-146 106q-106 -71 -199 -103t-194 -32q-161 0 -256 87.5t-95 205.5q0 127 90.5 221.5t263.5 163.5
q-22 55 -33.5 107.5t-11.5 101.5q0 135 95.5 226t244.5 91q119 0 189 -60t70 -140q0 -96 -71.5 -164.5t-225.5 -124.5q95 -169 279 -364q125 140 125 240q0 36 -24 61t-72 30v33zM651 739q89 33 119.5 70.5t30.5 91.5q0 94 -49 160q-33 44 -82 44q-40 0 -68.5 -32t-28.5 -85
q0 -41 13.5 -89t64.5 -160zM447 596q-68 -29 -95 -61q-40 -47 -40 -106q0 -79 46.5 -158t111.5 -122.5t130 -43.5q33 0 73 14.5t88 41.5q-205 210 -314 435z" />
    <glyph glyph-name="quotesingle" unicode="'" horiz-adv-x="384" 
d="M131 1295h141l-42 -322h-67z" />
    <glyph glyph-name="parenleft" unicode="(" horiz-adv-x="590" 
d="M589 -157q-32 -18 -109 -75q-314 366 -314 753q0 161 63 335q81 224 251 420q42 -36 109 -75q-232 -349 -232 -677q0 -332 232 -681z" />
    <glyph glyph-name="parenright" unicode=")" horiz-adv-x="588" 
d="M587 521q0 -388 -314 -753q-41 36 -109 75q233 349 233 681q0 328 -233 677q32 18 109 75q170 -194 251 -420q63 -176 63 -335z" />
    <glyph glyph-name="asterisk" unicode="*" horiz-adv-x="774" 
d="M430 713v-144q0 -14 -8 -24t-23 -10h-51q-8 0 -18.5 10t-10.5 24v144l-98 -101q-28 -18 -57 0l-31 33q-18 23 6 49l101 103h-144q-14 0 -26.5 9t-12.5 25v50q0 10 12.5 19t26.5 9h135l-98 101q-14 12 -15 26.5t9 28.5l37 31q10 10 22.5 9t24.5 -15l108 -105v156
q0 12 10.5 23.5t18.5 11.5h51q15 0 23 -11.5t8 -23.5v-150l107 105q12 14 24 15t31 -7l26 -39q11 -8 11 -20.5t-13 -28.5l-104 -107h156q10 0 22 -9t12 -19v-50q0 -16 -12 -25t-22 -9h-164l112 -103q19 -26 0 -57l-30 -31q-23 -18 -49 6z" />
    <glyph glyph-name="plus" unicode="+" horiz-adv-x="864" 
d="M362 808h136l-1 -264h265v-137h-265v-266l-136 1v265h-265v137h265z" />
    <glyph glyph-name="comma" unicode="," horiz-adv-x="435" 
d="M87 -304v37q97 42 141.5 109.5t44.5 138.5q0 14 -5 21q-6 8 -11 8q-6 0 -16 -7q-25 -14 -61 -14q-51 0 -87.5 39t-36.5 92q0 56 42.5 98.5t102.5 42.5q72 0 124 -57t52 -155q0 -121 -73 -215.5t-217 -137.5z" />
    <glyph glyph-name="hyphen" unicode="-" horiz-adv-x="849" 
d="M762 544v-137h-666v137h666z" />
    <glyph glyph-name="period" unicode="." horiz-adv-x="577" 
d="M339 6q-49 0 -83.5 34.5t-34.5 84.5t35 84.5t83 34.5q50 0 85 -34.5t35 -84.5t-34.5 -84.5t-85.5 -34.5z" />
    <glyph glyph-name="slash" unicode="/" horiz-adv-x="920" 
d="M722 1259l-468 -1440h-120l467 1440h121z" />
    <glyph glyph-name="zero" unicode="0" horiz-adv-x="868" 
d="M805 575q0 -172 -48 -322q-30 -91 -78.5 -149.5t-110 -92.5t-134.5 -34q-84 0 -151 42t-119 121q-37 57 -64 154q-37 129 -37 268q0 186 53 343q43 131 131 199.5t187 68.5t186 -68t128 -183q57 -159 57 -347zM544 577q0 302 -3 352q-9 117 -42 159q-21 27 -69 27
q-36 0 -57 -20q-32 -30 -42.5 -105t-10.5 -524q0 -243 17 -327q13 -61 36 -81t63 -20q42 0 63 28q36 46 42 146z" />
    <glyph glyph-name="one" unicode="1" horiz-adv-x="868" 
d="M566 1173v-940q0 -106 9 -135t38.5 -47.5t95.5 -18.5h27v-32h-607v32h31q74 0 105.5 17t42.5 46.5t11 137.5v596q0 80 -8 100t-28.5 34t-47.5 14q-43 0 -106 -27l-15 30l423 193h29z" />
    <glyph glyph-name="two" unicode="2" horiz-adv-x="868" 
d="M719 0h-677v19q312 370 378.5 498.5t66.5 249.5q0 89 -55.5 148t-134.5 59q-131 0 -203 -130l-31 10q45 164 138.5 241.5t216.5 77.5q87 0 159 -40.5t112.5 -111t40.5 -133.5q0 -112 -62 -229q-86 -157 -374 -436h248q92 0 119.5 7t45 25t46.5 78h30z" />
    <glyph glyph-name="three" unicode="3" horiz-adv-x="868" 
d="M257 577v29q97 28 134 52.5t64 74t27 100.5q0 70 -51.5 120.5t-127.5 50.5q-119 0 -201 -125l-32 10q61 142 156.5 213t212.5 71q120 0 197.5 -72.5t77.5 -169.5q0 -64 -36 -123.5t-113 -103.5q99 -49 151 -119.5t52 -177.5q0 -180 -130 -305.5t-349 -125.5
q-146 0 -213 47q-48 34 -48 88q0 40 28 67.5t65 27.5q27 0 52 -13q14 -6 96.5 -73.5t154.5 -67.5q63 0 108 49.5t45 125.5q0 116 -82 214.5t-238 135.5z" />
    <glyph glyph-name="four" unicode="4" horiz-adv-x="868" 
d="M43 434l546 739h104v-739h105v-176h-105v-258h-233v258h-417v176zM125 434h335v453z" />
    <glyph glyph-name="five" unicode="5" horiz-adv-x="868" 
d="M265 1150h538l-85 -219h-453l-43 -115q292 -10 450 -145q129 -111 129 -277q0 -106 -60 -207t-169.5 -155.5t-239.5 -54.5q-141 0 -216 52q-53 37 -53 84q0 38 27.5 65.5t64.5 27.5q33 0 66.5 -13.5t115.5 -71.5q52 -35 89 -49q27 -11 59 -11q70 0 119 51t49 123
q0 149 -149.5 242t-376.5 93h-69z" />
    <glyph glyph-name="six" unicode="6" horiz-adv-x="868" 
d="M816 1173v-23q-154 -39 -246.5 -100.5t-146.5 -149.5t-84 -217q37 25 62 32q55 17 111 17q129 0 215 -93.5t86 -254.5q0 -115 -46.5 -210t-132 -146t-182.5 -51q-106 0 -196.5 57.5t-140.5 169.5t-50 243q0 194 92.5 360.5t263 265.5t395.5 100zM329 614q-8 -117 -8 -171
q0 -118 23 -227t61 -153q29 -31 67 -31q39 0 69 45t30 184q0 234 -56 323q-37 58 -98 58q-34 0 -88 -28z" />
    <glyph glyph-name="seven" unicode="7" horiz-adv-x="868" 
d="M307 -23l314 948h-238q-140 0 -211 -37q-49 -25 -81 -95h-33l84 357h685l-386 -1173h-134z" />
    <glyph glyph-name="eight" unicode="8" horiz-adv-x="868" 
d="M591 650q122 -89 169.5 -166t47.5 -177q0 -138 -105 -234t-285 -96q-170 0 -263.5 83.5t-93.5 204.5q0 93 54 162.5t180 126.5q-137 105 -175.5 171t-38.5 154q0 115 98 202.5t268 87.5q165 0 253.5 -77.5t88.5 -186.5q0 -80 -48 -142.5t-150 -112.5zM528 693
q31 43 46 95.5t15 114.5q0 110 -47 169q-35 45 -99 45q-56 0 -96 -41t-40 -103q0 -61 44.5 -128t176.5 -152zM358 514q-26 -24 -38 -43q-17 -30 -30 -86.5t-13 -119.5q0 -80 20 -133.5t57.5 -77t77.5 -23.5q62 0 104.5 45t42.5 124q0 165 -221 314z" />
    <glyph glyph-name="nine" unicode="9" horiz-adv-x="868" 
d="M53 -23v23q141 32 239 95t155.5 155t80.5 213q-53 -27 -90 -38t-78 -11q-130 0 -217 94.5t-87 257.5q0 114 47.5 209t134 146.5t181.5 51.5q100 0 190.5 -57.5t144 -166.5t53.5 -249q0 -182 -87 -348.5t-259.5 -266.5t-407.5 -108zM541 534q8 96 8 168q0 153 -36 287
q-20 73 -60 108q-22 19 -56 19q-42 0 -65 -37q-33 -50 -33 -191q0 -234 55 -323q37 -58 99 -58q32 0 88 27z" />
    <glyph glyph-name="colon" unicode=":" horiz-adv-x="546" 
d="M339 6q-49 0 -83.5 34.5t-34.5 84.5t35 84.5t83 34.5q50 0 85 -34.5t35 -84.5t-34.5 -84.5t-85.5 -34.5zM339 536q-49 0 -83.5 34.5t-34.5 84.5t35 84.5t83 34.5q50 0 85 -34.5t35 -84.5t-34.5 -84.5t-85.5 -34.5z" />
    <glyph glyph-name="semicolon" unicode=";" horiz-adv-x="579" 
d="M289 816q59 0 99.5 -40.5t40.5 -99.5t-41 -100t-99 -41t-99.5 41t-41.5 100t41 99.5t100 40.5zM159 -304v37q99 42 143.5 109.5t44.5 138.5q0 14 -6 21q-6 8 -12 8q-5 0 -15 -7q-25 -14 -62 -14q-50 0 -86.5 39t-36.5 92q0 56 42.5 98.5t101.5 42.5q74 0 125.5 -57
t51.5 -155q0 -121 -73.5 -215.5t-217.5 -137.5z" />
    <glyph glyph-name="less" unicode="&#x3c;" horiz-adv-x="1117" 
d="M955 58l-805 386v90l805 384v-134l-624 -295l624 -297v-134z" />
    <glyph glyph-name="equal" unicode="=" horiz-adv-x="1117" 
d="M973 586h-829v120h829v-120zM973 271h-829v120h829v-120z" />
    <glyph glyph-name="greater" unicode="&#x3e;" horiz-adv-x="1117" 
d="M966 444l-806 -386v134l626 297l-626 295v134l806 -384v-90z" />
    <glyph glyph-name="question" unicode="?" horiz-adv-x="868" 
d="M412 375h-35q-2 94 8.5 140.5t55 128.5t59 131.5t14.5 122.5q0 113 -44 166t-104 53q-46 0 -78 -24q-23 -18 -23 -39q0 -13 16 -43q36 -64 36 -110q0 -42 -28 -70t-71 -28q-47 0 -79.5 33.5t-32.5 88.5q0 100 86.5 176t242.5 76q164 0 250 -78.5t86 -190.5
q0 -80 -44 -148.5t-171 -151.5q-84 -56 -111 -100t-33 -133zM403 251q57 0 97 -39.5t40 -97.5q0 -57 -40 -97t-97 -40t-97 40t-40 97q0 58 40 97.5t97 39.5z" />
    <glyph glyph-name="at" unicode="@" horiz-adv-x="1615" 
d="M1000 784l206 9l-154 -532q-27 -89 -27 -133q0 -27 20 -47t49 -20q58 0 151 67.5t154 192.5t61 266q0 234 -150.5 385t-392.5 151q-209 0 -379.5 -98.5t-270.5 -285t-100 -399.5q0 -293 187 -480.5t476 -187.5q238 0 427.5 128.5t267.5 339.5h52q-101 -249 -296 -382
t-452 -133q-327 0 -539 211t-212 534q0 221 105 411t295 293t421 103q187 0 327.5 -75.5t210.5 -211t70 -286.5q0 -176 -75.5 -321t-188.5 -214t-244 -69q-84 0 -128 41.5t-44 106.5q0 46 20 120q-70 -117 -109 -162q-53 -60 -106 -88q-34 -18 -78 -18q-60 0 -101 47.5
t-41 141.5t27.5 185t75 171t110 144t140.5 106q40 21 85 21q48 0 79 -29.5t42 -102.5zM871 756q-31 0 -63 -36q-43 -48 -90 -161q-87 -203 -87 -326q0 -37 15.5 -57.5t34.5 -20.5q16 0 46 24q44 33 93 112t80.5 175t31.5 177q0 59 -23 89q-15 24 -38 24z" />
    <glyph glyph-name="A" unicode="A" horiz-adv-x="1254" 
d="M723 328h-407l-48 -113q-24 -56 -24 -92q0 -49 39 -71q23 -14 113 -20v-32h-382v32q61 8 101 50.5t99 174.5l411 916h16l415 -942q59 -135 97 -170q29 -25 82 -29v-32h-557v32h24q66 0 93 18q19 14 19 39q0 15 -5 32q-1 7 -26 63zM693 390l-170 397l-177 -397h347z" />
    <glyph glyph-name="B" unicode="B" horiz-adv-x="1159" 
d="M773 609q163 -38 230 -92q94 -77 94 -200q0 -129 -104 -214q-128 -103 -372 -103h-585v32q81 0 109 14.5t39.5 38t11.5 116.5v747q0 93 -11.5 117.5t-40 38.5t-108.5 14v32h551q198 0 280.5 -35.5t130 -105.5t47.5 -148q0 -83 -60.5 -148t-211.5 -104zM464 633
q120 0 177.5 27t88 76t30.5 126q0 76 -30 125t-86.5 74t-179.5 24v-452zM464 566v-369l-1 -42q0 -46 23.5 -69t68.5 -23q68 0 125.5 30t88 87t30.5 127q0 81 -37.5 145t-102.5 89.5t-195 24.5z" />
    <glyph glyph-name="C" unicode="C" horiz-adv-x="1254" 
d="M1160 1177v-399h-34q-37 156 -139 239t-230 83q-108 0 -198 -62t-132 -162q-53 -128 -53 -285q0 -154 39 -281t122 -192t215 -65q109 0 199.5 47.5t189.5 164.5v-100q-96 -100 -201 -146t-245 -46q-183 0 -326 74t-220.5 212t-77.5 294q0 166 86 313t232 229t310 82
q122 0 257 -53q78 -31 100 -31q26 0 46 20t26 64h34z" />
    <glyph glyph-name="D" unicode="D" horiz-adv-x="1254" 
d="M23 0v32h38q50 0 76.5 15.5t39.5 42.5q7 18 7 107v756q0 88 -9 110t-37.5 38.5t-76.5 16.5h-38v32h514q207 0 332 -56q154 -69 233 -208t79 -315q0 -121 -39 -223t-101 -169t-143 -107t-197 -61q-52 -11 -164 -11h-514zM461 1084v-896q0 -71 7 -87.5t23 -25.5
q23 -12 67 -12q141 0 216 96q102 131 102 406q0 222 -70 353q-56 104 -142 141q-61 26 -203 25z" />
    <glyph glyph-name="E" unicode="E" horiz-adv-x="1159" 
d="M473 1083v-467h23q109 0 158.5 68.5t63.5 202.5h31v-602h-31q-11 99 -43.5 161.5t-76 84t-125.5 21.5v-324q0 -94 8.5 -115.5t30 -35t71.5 -13.5h68q161 0 258.5 74.5t139.5 227.5h31l-52 -366h-993v32h38q50 0 81 17q22 12 34 41q9 20 9 107v756q0 78 -4 96
q-9 30 -32 46q-32 23 -88 23h-38v32h962v-340h-32q-25 125 -69.5 179t-125.5 79q-47 15 -179 15h-118z" />
    <glyph glyph-name="F" unicode="F" horiz-adv-x="1061" 
d="M477 1083v-471h34q76 0 124.5 22.5t81.5 76.5t44 148h30v-578h-30q-17 163 -88.5 215.5t-161.5 52.5h-34v-352q0 -89 10 -110.5t38 -38t77 -16.5h38v-32h-601v32h38q50 0 81 17q22 12 34 41q9 20 9 107v756q0 88 -9.5 110t-38 38.5t-76.5 16.5h-38v32h970v-330h-35
q-12 116 -60.5 172t-140.5 79q-51 12 -189 12h-107z" />
    <glyph glyph-name="G" unicode="G" horiz-adv-x="1350" 
d="M1198 1177v-406h-31q-57 166 -170.5 252.5t-248.5 86.5q-129 0 -215 -72.5t-121.5 -202t-35.5 -266.5q0 -165 39.5 -289.5t126.5 -183.5t206 -59q42 0 85.5 9t88.5 26v240q0 67 -9 87t-38 36.5t-72 16.5h-29v30h559v-30q-63 -5 -88.5 -18t-38.5 -44q-8 -16 -8 -78v-240
q-110 -49 -229 -74.5t-247 -25.5q-164 0 -272.5 44.5t-191 117.5t-129.5 164q-59 116 -59 262q0 259 182.5 438t458.5 179q86 0 155 -13q37 -8 121 -39.5t98 -31.5q24 0 44.5 17.5t37.5 66.5h31z" />
    <glyph glyph-name="H" unicode="H" horiz-adv-x="1350" 
d="M475 553v-356q0 -89 9.5 -110.5t38 -38t77.5 -16.5h38v-32h-602v32h38q51 0 81 17q22 12 34 41q9 20 9 107v756q0 88 -9 110t-37.5 38.5t-77.5 16.5h-38v32h602v-32h-38q-51 0 -81 -18q-22 -11 -35 -40q-9 -20 -9 -107v-325h406v325q0 88 -9 110t-38 38.5t-77 16.5h-38
v32h601v-32h-37q-51 0 -81 -18q-22 -11 -35 -40q-9 -20 -9 -107v-756q0 -89 9.5 -110.5t38 -38t77.5 -16.5h37v-32h-601v32h38q51 0 80 17q22 12 34 41q10 20 10 107v356h-406z" />
    <glyph glyph-name="I" unicode="I" horiz-adv-x="676" 
d="M636 32v-32h-601v32h38q50 0 81 17q22 12 34 41q9 20 9 107v756q0 88 -9.5 110t-38 38.5t-76.5 16.5h-38v32h601v-32h-38q-50 0 -81 -18q-22 -11 -35 -40q-9 -20 -9 -107v-756q0 -89 10 -110.5t38 -38t77 -16.5h38z" />
    <glyph glyph-name="J" unicode="J" horiz-adv-x="868" 
d="M247 1118v32h612v-32h-39q-50 0 -80 -18q-21 -11 -34 -40q-10 -20 -10 -107v-563q0 -165 -33 -240.5t-117.5 -126t-203.5 -50.5q-145 0 -234 76.5t-89 168.5q0 60 36 97t89 37q52 0 87 -33t35 -82q0 -23 -5 -41q-4 -8 -27.5 -42.5t-23.5 -49.5q0 -21 22 -38
q33 -24 84 -24q37 0 61 18.5t33.5 58.5t9.5 219v615q0 88 -9.5 110t-38.5 38.5t-77 16.5h-48z" />
    <glyph glyph-name="K" unicode="K" horiz-adv-x="1350" 
d="M723 710l405 -506q86 -108 147 -146q46 -26 96 -26v-32h-599v32q57 4 73.5 16.5t16.5 32.5q0 36 -79 133l-264 332l-42 -35v-314q0 -90 10.5 -112t39 -37.5t92.5 -15.5v-32h-580v32h38q50 0 81 17q22 12 34 41q9 20 9 107v756q0 88 -9.5 110t-38 38.5t-76.5 16.5h-38v32
h573v-32q-59 0 -89 -17q-23 -11 -35 -39q-11 -21 -11 -109v-357l427 344q89 72 89 116q0 32 -37 51q-18 9 -92 11v32h448v-32q-59 -4 -93.5 -21.5t-158.5 -117.5z" />
    <glyph glyph-name="L" unicode="L" horiz-adv-x="1159" 
d="M1096 404l-42 -404h-1022v32h38q51 0 81 17q22 12 33 41q10 20 10 107v756q0 88 -9 110t-37.5 38.5t-77.5 16.5h-38v32h614v-32h-50q-51 0 -81 -18q-22 -11 -35 -40q-9 -20 -9 -107v-733q0 -88 10 -112t39 -36q22 -7 103 -7h96q92 0 153 32t105.5 101.5t84.5 205.5h34z
" />
    <glyph glyph-name="M" unicode="M" horiz-adv-x="1639" 
d="M828 392l311 758h469v-32h-37q-51 0 -82 -18q-21 -11 -34 -39q-9 -20 -9 -106v-758q0 -89 9.5 -110.5t38 -38t77.5 -16.5h37v-32h-601v32h38q51 0 81 17q21 12 34 41q9 20 9 107v852l-441 -1049h-20l-447 1041v-810q0 -85 4 -104q11 -42 48 -68.5t115 -26.5v-32h-393v32
h12q38 -1 71 12t49.5 35t26.5 62q2 10 2 86v728q0 87 -9.5 108.5t-38 38t-77.5 16.5h-36v32h470z" />
    <glyph glyph-name="N" unicode="N" horiz-adv-x="1254" 
d="M432 1150l568 -713v494q0 104 -30 140q-40 49 -137 47v32h381v-32q-73 -9 -98 -24t-39.5 -48.5t-14.5 -114.5v-958h-29l-776 958v-731q0 -99 45 -133.5t103 -34.5h27v-32h-408v32q96 0 133 38t37 130v811l-24 31q-36 46 -64.5 60.5t-81.5 15.5v32h408z" />
    <glyph glyph-name="O" unicode="O" horiz-adv-x="1350" 
d="M671 1166q275 11 446.5 -160t171.5 -427q0 -219 -128 -385q-170 -221 -479 -221q-311 0 -481 211q-133 166 -133 395q0 255 174.5 426.5t428.5 160.5zM681 1112q-157 0 -240 -161q-67 -133 -67 -381q0 -293 103 -434q72 -99 202 -99q87 0 146 42q75 55 116.5 174
t41.5 311q0 228 -42.5 341.5t-108.5 160t-151 46.5z" />
    <glyph glyph-name="P" unicode="P" horiz-adv-x="1061" 
d="M469 520v-319q0 -93 11.5 -117t40.5 -38t108 -14v-32h-584v32q79 0 107 14.5t40 38t12 116.5v747q0 93 -12 117.5t-40.5 38.5t-106.5 14v32h500q248 0 355.5 -88.5t107.5 -219.5q0 -113 -69.5 -192.5t-191.5 -108.5q-82 -21 -278 -21zM469 1083v-496q28 -2 42 -2
q104 0 160 61.5t56 190.5q0 128 -56 187t-168 59h-34z" />
    <glyph glyph-name="Q" unicode="Q" horiz-adv-x="1350" 
d="M830 -11q39 -112 121 -168.5t207 -56.5q33 0 72 6v-52q-129 -32 -229 -32q-158 0 -282 77.5t-187 225.5q-209 45 -336.5 205t-127.5 383q0 257 172.5 428.5t440.5 171.5q265 0 437 -172t172 -428q0 -224 -135 -389.5t-325 -198.5zM679 1112q-152 0 -236 -159
q-69 -133 -69 -378q0 -296 104 -438q73 -100 201 -100q129 0 201 98q105 140 105 420q0 277 -66 401q-82 156 -240 156z" />
    <glyph glyph-name="R" unicode="R" horiz-adv-x="1254" 
d="M461 524v-323q0 -93 11.5 -117t40.5 -38t108 -14v-32h-589v32q80 0 108.5 14.5t40 38t11.5 116.5v747q0 93 -11.5 117.5t-40.5 38.5t-108 14v32h534q209 0 306 -29t158 -106.5t61 -181.5q0 -127 -92 -211q-59 -52 -164 -78l277 -389q54 -77 77 -95q34 -26 81 -28v-32
h-363l-371 524h-75zM461 1088v-504h49q118 0 176 22t92 78t34 147q0 131 -61.5 194t-198.5 63h-91z" />
    <glyph glyph-name="S" unicode="S" horiz-adv-x="966" 
d="M816 1177l9 -384h-34q-26 144 -122 232t-208 88q-86 0 -137 -46.5t-51 -106.5q0 -38 18 -67q25 -41 80 -80q39 -28 183 -99q203 -99 273 -187t70 -203q0 -144 -112.5 -248t-286.5 -104q-54 0 -102 11.5t-121 41.5q-41 17 -67 17q-23 0 -47 -17t-40 -52h-31v435h31
q38 -183 144 -279.5t229 -96.5q95 0 151.5 52t56.5 121q0 40 -21.5 78t-66 72.5t-155.5 89.5q-157 78 -226 132t-105.5 121t-36.5 148q0 137 101 234t254 97q56 0 108 -14q41 -11 98 -38.5t79 -27.5q23 0 35.5 14t24.5 66h25z" />
    <glyph glyph-name="T" unicode="T" horiz-adv-x="1159" 
d="M1096 1150v-312h-31q-27 109 -60 156t-91 74q-32 15 -113 15h-86v-886q0 -89 10.5 -110.5t38.5 -38t78 -16.5h38v-32h-602v32h38q50 0 80 17q22 12 34 41q10 20 10 107v886h-83q-116 0 -168 -48q-75 -69 -94 -197h-32v312h1033z" />
    <glyph glyph-name="U" unicode="U" horiz-adv-x="1254" 
d="M40 1150h594v-32h-30q-67 0 -91.5 -13.5t-35.5 -38.5t-11 -123v-564q0 -153 23.5 -203.5t77 -83.5t135.5 -33q93 0 158.5 42t98 115.5t32.5 257.5v469q0 77 -16 110t-40 46q-38 19 -108 19v32h397v-32h-23q-49 0 -81 -19.5t-46 -57.5q-12 -28 -12 -98v-436
q0 -204 -26.5 -293.5t-130 -165.5t-282.5 -76q-149 0 -231 41q-110 54 -156 138.5t-46 227.5v564q0 99 -11.5 123.5t-38.5 38.5t-100 13v32z" />
    <glyph glyph-name="V" unicode="V" horiz-adv-x="1254" 
d="M1236 1150v-32q-63 -9 -111 -66q-36 -43 -106 -200l-397 -879h-27l-395 915q-71 166 -95 194.5t-91 35.5v32h551v-32h-19q-74 0 -102 -18q-19 -12 -19 -38q0 -15 7 -35.5t45 -111.5l246 -573l227 510q40 92 49.5 123.5t9.5 53.5q0 26 -13.5 45.5t-39.5 30.5
q-37 13 -97 13v32h377z" />
    <glyph glyph-name="W" unicode="W" horiz-adv-x="1736" 
d="M1721 1150v-32q-31 -2 -53.5 -17.5t-39.5 -46.5q-5 -10 -53 -132l-360 -949h-34l-284 741l-314 -741h-32l-378 940q-57 141 -80 170.5t-78 34.5v32h499v-32q-60 -1 -80.5 -18t-20.5 -41q0 -32 43 -137l225 -557l181 435l-48 122q-39 101 -60.5 134.5t-49 47.5t-80.5 14
v32h557v-32q-58 -1 -84 -9q-18 -6 -28 -20t-10 -31q0 -20 38 -120l210 -545l188 493q29 76 35.5 104.5t6.5 51.5q0 35 -23.5 55t-90.5 21v32h298z" />
    <glyph glyph-name="X" unicode="X" horiz-adv-x="1254" 
d="M734 674l316 -470q80 -117 113.5 -142.5t78.5 -29.5v-32h-560v32q66 4 86 19.5t20 37.5q0 15 -6 28q-12 25 -59 94l-169 249l-175 -215q-79 -98 -79 -133q0 -24 20.5 -45t60.5 -31q18 -4 73 -4v-32h-442v32q75 10 118 40q58 39 159 163l228 278l-292 430q-72 106 -83 118
q-22 28 -44.5 40t-61.5 17v32h571v-32h-28q-50 0 -69.5 -15t-19.5 -40q0 -18 6 -32l58 -88l143 -217l121 148q94 115 94 161q0 23 -13.5 42t-38 30t-76.5 11v32h423v-32q-49 -1 -80 -12t-65 -43q-22 -20 -110 -126z" />
    <glyph glyph-name="Y" unicode="Y" horiz-adv-x="1254" 
d="M1235 1150v-32q-57 -7 -88 -33q-42 -36 -134 -194l-249 -416v-278q0 -89 9 -110.5t36.5 -38t74.5 -16.5h64v-32h-645v32h60q50 0 80 17q22 12 35 41q10 20 10 107v230l-271 493q-80 146 -113.5 171.5t-88.5 26.5v32h551v-32h-24q-50 0 -70 -14t-20 -30q0 -31 67 -154
l208 -380l208 346q76 127 76 169q0 23 -21 38q-30 21 -106 25v32h351z" />
    <glyph glyph-name="Z" unicode="Z" horiz-adv-x="1159" 
d="M1060 1150l-676 -1085h219q155 0 217 19q101 30 173.5 112t101.5 220h33l-47 -416h-1053l677 1088h-171q-99 0 -130 -7q-60 -10 -112 -43t-86 -87t-54 -138h-31l31 337h908z" />
    <glyph glyph-name="bracketleft" unicode="[" horiz-adv-x="579" 
d="M181 -317v1467h342v-36h-39q-56 0 -75 -11t-28.5 -34t-9.5 -109v-1094q0 -81 3 -93q8 -31 28.5 -45t81.5 -14h39v-31h-342z" />
    <glyph glyph-name="backslash" unicode="\" horiz-adv-x="482" 
d="M2 1177h106l380 -1204h-110z" />
    <glyph glyph-name="bracketright" unicode="]" horiz-adv-x="579" 
d="M397 1150v-1467h-340v32h38q56 0 75 11t29 34t10 107v1097q0 81 -3 93q-9 29 -29.5 44t-81.5 15h-38v34h340z" />
    <glyph glyph-name="asciicircum" unicode="^" horiz-adv-x="1009" 
d="M125 565l348 608h70l342 -608h-135l-250 434l-246 -434h-129z" />
    <glyph glyph-name="underscore" unicode="_" horiz-adv-x="868" 
d="M-16 -264h900v-111h-900v111z" />
    <glyph glyph-name="grave" unicode="`" horiz-adv-x="225" 
d="M127 1062q37 -85 60 -160q7 -55 -5 -49q-23 34 -73.5 129.5t-59.5 129.5q-3 39 78 -50z" />
    <glyph glyph-name="a" unicode="a" horiz-adv-x="868" 
d="M496 117q-145 -128 -261 -128q-68 0 -112.5 44.5t-44.5 111.5q0 90 78 163t340 193v80q0 90 -9.5 113.5t-37 41t-61.5 17.5q-55 0 -90 -26q-22 -15 -22 -35q0 -18 23 -44q33 -36 33 -70q0 -42 -31.5 -71.5t-81.5 -29.5q-53 0 -89 32.5t-36 75.5q0 62 48.5 117t135 84.5
t179.5 29.5q113 0 179 -47.5t85 -103.5q11 -35 11 -164v-308q0 -54 4.5 -68t13 -20.5t20.5 -6.5q21 0 44 31l26 -21q-43 -62 -88.5 -90.5t-102.5 -28.5q-68 0 -106 32t-47 96zM496 179v265q-103 -60 -153 -128q-32 -47 -32 -93q0 -39 27 -68q21 -24 59 -24q43 0 99 48z" />
    <glyph glyph-name="b" unicode="b" horiz-adv-x="966" 
d="M366 1150v-437q99 103 218 103q82 0 154 -47.5t112.5 -135.5t40.5 -204q0 -130 -51.5 -236t-138 -161t-198.5 -55q-64 0 -114 20t-99 66l-131 -86h-29v1009q0 68 -5 85q-8 23 -27 34.5t-62 12.5v32h330zM366 638v-353q0 -108 5 -138q8 -49 40 -80t83 -31q42 0 73.5 24.5
t52 97.5t20.5 263q0 182 -45 250q-33 49 -89 49q-74 0 -140 -82z" />
    <glyph glyph-name="c" unicode="c" horiz-adv-x="771" 
d="M706 205l25 -21q-55 -106 -138.5 -156.5t-178.5 -50.5q-157 0 -252.5 119t-95.5 288q0 161 87 284q104 148 287 148q123 0 195.5 -61.5t72.5 -137.5q0 -49 -29 -77.5t-77 -28.5q-50 0 -82.5 33t-40.5 117q-5 53 -24 75q-20 21 -46 21q-41 0 -70 -43q-44 -65 -44 -200
q0 -112 36 -214.5t97 -152.5q47 -36 110 -36q42 0 79.5 20t88.5 74z" />
    <glyph glyph-name="d" unicode="d" horiz-adv-x="966" 
d="M829 1150v-913q0 -92 5 -109q8 -28 27 -41.5t65 -16.5v-29l-335 -64v125q-59 -73 -106 -99t-107 -26q-151 0 -240 135q-71 111 -71 271q0 128 44 229t120.5 152.5t164.5 51.5q58 0 102 -21.5t93 -76.5v238q0 91 -7 110q-9 25 -30 36.5t-77 11.5v36h352zM591 613
q-62 119 -152 119q-32 0 -52 -17q-32 -26 -51.5 -91.5t-19.5 -202.5q0 -151 21.5 -223t59.5 -104q21 -16 55 -16q74 0 139 117v418z" />
    <glyph glyph-name="e" unicode="e" horiz-adv-x="771" 
d="M730 425h-435q8 -158 84 -249q59 -71 140 -71q51 0 93 28.5t90 101.5l28 -18q-64 -131 -142 -185.5t-181 -54.5q-176 0 -267 135q-73 110 -73 272q0 198 107.5 315t251.5 117q120 0 208.5 -98.5t95.5 -292.5zM522 481q0 137 -15 188t-47 77q-17 15 -47 15q-44 0 -72 -42
q-51 -77 -51 -208v-30h232z" />
    <glyph glyph-name="f" unicode="f" horiz-adv-x="579" 
d="M406 710v-551q0 -80 17 -100q27 -31 101 -28v-31h-468v31q53 1 76 12t31.5 31.5t8.5 84.5v551h-116v83h116v58l-1 40q0 122 89.5 204t241.5 82q104 0 154.5 -39.5t50.5 -87.5q0 -38 -31.5 -66t-82.5 -28q-44 0 -70 23.5t-26 50.5q0 8 5 32q4 14 4 27q0 18 -11 26
q-14 13 -33 13q-24 0 -40.5 -20t-16.5 -66l1 -148v-101h118v-83h-118z" />
    <glyph glyph-name="g" unicode="g" horiz-adv-x="868" 
d="M567 783h267v-93h-151q41 -41 57 -75q21 -46 21 -96q0 -84 -47 -146.5t-128 -97.5t-144 -35q-5 0 -102 4q-38 0 -64 -25.5t-26 -59.5q0 -31 23.5 -50.5t76.5 -19.5l146 2q178 0 245 -39q96 -54 96 -168q0 -72 -44.5 -130.5t-116.5 -86.5q-109 -42 -251 -42
q-107 0 -195 21t-126 57.5t-38 78.5q0 38 29 69t109 53q-111 54 -111 150q0 58 45 113.5t143 96.5q-114 41 -164.5 109t-50.5 157q0 117 94.5 201.5t244.5 84.5q78 0 162 -33zM421 764q-50 0 -84 -49.5t-34 -205.5q0 -126 34 -173.5t80 -47.5q50 0 84 47t34 181
q0 152 -38 207q-27 41 -76 41zM371 -117q-87 0 -114 -14q-49 -27 -49 -71t49.5 -79t188.5 -35q118 0 185.5 31.5t67.5 87.5q0 21 -13 36q-22 25 -69 34.5t-246 9.5z" />
    <glyph glyph-name="h" unicode="h" horiz-adv-x="966" 
d="M383 1150v-459q64 69 118.5 97t113.5 28q74 0 127 -42.5t70.5 -99.5t17.5 -193v-309q0 -90 17 -113t69 -28v-31h-402v31q42 5 64 34q15 22 15 107v354q0 98 -7.5 123t-26 39t-41.5 14q-34 0 -66 -23.5t-69 -81.5v-425q0 -85 12 -106q16 -29 66 -35v-31h-402v31
q50 5 71 32q15 19 15 109v805q0 90 -16.5 112.5t-69.5 28.5v32h324z" />
    <glyph glyph-name="i" unicode="i" horiz-adv-x="482" 
d="M249 1177q55 0 93.5 -38.5t38.5 -93.5q0 -54 -39 -92t-93 -38t-92 38t-38 92q0 55 38 93.5t92 38.5zM368 793v-629q0 -83 19.5 -106.5t76.5 -26.5v-31h-428v31q52 1 77 30q17 20 17 103v464q0 83 -19.5 106.5t-74.5 26.5v32h332z" />
    <glyph glyph-name="j" unicode="j" horiz-adv-x="579" 
d="M302 1177q54 0 91.5 -38.5t37.5 -91.5q0 -54 -38 -92t-91 -38q-54 0 -92 38t-38 92q0 53 38 91.5t92 38.5zM421 793v-821q0 -115 -15 -170q-21 -80 -84 -128.5t-167 -48.5t-154 42.5t-50 102.5q0 37 26 64.5t61 27.5q32 0 51 -19t19 -57q0 -10 -1 -23q-2 -18 -2 -25
q0 -30 14 -44q13 -14 35 -14q19 0 33 17t14 48q0 16 -5 68q-8 95 -9 114l-3 201v490v44q0 53 -18 73.5t-76 25.5v32h331z" />
    <glyph glyph-name="k" unicode="k" horiz-adv-x="966" 
d="M381 1150v-757l184 182q56 55 70.5 79t14.5 48q0 22 -18.5 37.5t-73.5 21.5v32h356v-32q-51 -2 -89 -24t-150 -130l-87 -84l187 -274q113 -166 134 -186q29 -29 73 -32v-31h-410v31q28 0 40 10t12 22q0 20 -36 72l-157 230l-50 -50v-143q0 -90 16.5 -113t69.5 -28v-31
h-410v31q51 5 72 32q14 19 14 109v805q0 90 -16.5 112.5t-69.5 28.5v32h324z" />
    <glyph glyph-name="l" unicode="l" horiz-adv-x="482" 
d="M369 1150v-986q0 -83 19.5 -106.5t75.5 -26.5v-31h-428v31q53 1 78 30q17 20 17 103v822q0 82 -19.5 105.5t-75.5 26.5v32h333z" />
    <glyph glyph-name="m" unicode="m" horiz-adv-x="1447" 
d="M388 793v-104q65 71 120.5 99t121.5 28q76 0 128 -35.5t79 -108.5q68 76 130.5 110t130.5 34q83 0 131.5 -37.5t68 -95.5t19.5 -185v-325q0 -91 16 -113.5t68 -28.5v-31h-409v31q49 4 71 37q16 23 16 105v341q0 106 -8.5 134.5t-27 43t-42.5 14.5q-36 0 -74 -27t-76 -80
v-426q0 -86 15 -107q19 -32 74 -35v-31h-410v31q33 1 52 15.5t25.5 36t6.5 90.5v341q0 107 -8.5 134.5t-28 42.5t-43.5 15q-34 0 -61 -17q-41 -27 -85 -90v-426q0 -84 16.5 -110.5t68.5 -31.5v-31h-408v31q49 5 71 32q15 19 15 110v448q0 89 -17 111.5t-69 28.5v32h323z" />
    <glyph glyph-name="n" unicode="n" horiz-adv-x="966" 
d="M383 793v-103q60 67 116 96.5t121 29.5q77 0 128 -42.5t68 -105.5q13 -49 13 -187v-308q0 -91 17 -114t69 -28v-31h-401v31q45 5 65 37q12 21 12 105v353q0 97 -7 122.5t-25 39.5t-41 14q-73 0 -135 -104v-425q0 -89 16.5 -113t60.5 -29v-31h-401v31q50 5 71 32
q15 19 15 110v448q0 89 -16.5 111.5t-69.5 28.5v32h324z" />
    <glyph glyph-name="o" unicode="o" horiz-adv-x="868" 
d="M432 816q104 0 193 -53t135.5 -151.5t46.5 -215.5q0 -169 -86 -283q-104 -136 -286 -136q-178 0 -275 125t-97 290q0 171 99 297.5t270 126.5zM436 757q-44 0 -74.5 -33t-40 -129.5t-9.5 -266.5q0 -92 11 -170q10 -60 40 -91.5t69 -31.5t64 21q33 29 45 81q17 80 17 325
q0 144 -16.5 198t-47.5 79q-22 18 -58 18z" />
    <glyph glyph-name="p" unicode="p" horiz-adv-x="966" 
d="M366 81v-295q0 -62 9.5 -84t30 -32t79.5 -10v-31h-452v31q53 2 78 29q17 21 17 101v838q0 83 -19.5 106.5t-75.5 26.5v32h333v-104q41 60 84 88q62 39 135 39q87 0 159 -55t109 -152t37 -208q0 -121 -38.5 -220.5t-111.5 -151.5t-163 -52q-66 0 -122 28q-43 23 -89 76z
M366 166q73 -103 156 -103q45 0 75 48q44 71 44 272q0 204 -48 281q-32 49 -86 49q-86 0 -141 -124v-423z" />
    <glyph glyph-name="q" unicode="q" horiz-adv-x="966" 
d="M591 83q-51 -54 -97 -77q-59 -29 -123 -29q-149 0 -236 132q-69 106 -69 254q0 122 52.5 230.5t143.5 165.5t193 57q68 0 121 -22.5t91 -69.5l132 92h30v-1026q0 -78 13 -97q22 -32 89 -33v-31h-458v31q53 0 76.5 12t32.5 31t9 80v300zM591 160v327q0 136 -14.5 180
t-54.5 77q-21 16 -52 16q-65 0 -100 -57q-56 -87 -56 -325q0 -182 49 -256q32 -50 84 -50q31 0 69.5 21t74.5 67z" />
    <glyph glyph-name="r" unicode="r" horiz-adv-x="771" 
d="M388 793v-180q78 123 137.5 163t114.5 40q48 0 76 -29t28 -82q0 -57 -27.5 -88.5t-65.5 -31.5q-46 0 -78.5 28.5t-39.5 33.5q-8 4 -19 4q-24 0 -47 -18q-35 -29 -53 -83q-26 -81 -26 -181v-182v-48q0 -48 6 -62q11 -23 30.5 -33.5t67.5 -12.5v-31h-428v31q52 4 70 28
t18 128v438q0 68 -7 86q-8 25 -24.5 35.5t-56.5 14.5v32h324z" />
    <glyph glyph-name="s" unicode="s" horiz-adv-x="676" 
d="M560 815l12 -270h-28q-52 120 -107.5 164t-111.5 44q-35 0 -59 -23.5t-24 -53.5q0 -23 17 -44q27 -35 151.5 -119.5t164 -143t39.5 -132.5q0 -65 -33 -128.5t-93.5 -97.5t-133.5 -34q-56 0 -152 35q-25 9 -35 9q-27 0 -46 -42h-28l-14 285h29q38 -112 105 -168t126 -56
q40 0 66 25t26 60q0 41 -25 71t-113 90q-130 89 -168 137q-56 70 -56 154q0 91 63 165t183 74q64 0 124 -31q23 -12 38 -12t24.5 6t29.5 36h29z" />
    <glyph glyph-name="t" unicode="t" horiz-adv-x="579" 
d="M373 1083v-290h189v-84h-189v-490q0 -68 6.5 -88t22.5 -32t29 -12q56 0 105 84l26 -19q-69 -163 -224 -163q-75 0 -127 42t-67 94q-8 29 -8 156v428h-104v30q107 75 182 158t132 186h27z" />
    <glyph glyph-name="u" unicode="u" horiz-adv-x="966" 
d="M825 793v-621q0 -90 17 -113t67 -28v-31h-322v106q-57 -68 -113.5 -98.5t-127.5 -30.5q-67 0 -119 40.5t-70 96t-18 192.5v315q0 89 -16.5 111.5t-69.5 28.5v32h323v-542q0 -85 8 -109.5t25.5 -37.5t40.5 -13q31 0 56 17q34 21 81 89v424q0 89 -17 111.5t-69 28.5v32h324
z" />
    <glyph glyph-name="v" unicode="v" horiz-adv-x="868" 
d="M417 -23l-268 614q-48 111 -75 140q-20 23 -58 30v32h422v-32q-41 0 -54 -14q-21 -19 -21 -44q0 -31 38 -118l130 -298l104 258q46 110 46 156q0 26 -19.5 42.5t-67.5 17.5v32h259v-32q-37 -4 -61 -27.5t-71 -134.5l-265 -622h-39z" />
    <glyph glyph-name="w" unicode="w" horiz-adv-x="1254" 
d="M845 -23l-217 581l-214 -581h-43l-212 574q-47 132 -81 172q-21 26 -63 38v32h399v-32q-40 0 -55.5 -11.5t-15.5 -26.5t28 -87l116 -310l112 310l-9 20q-25 64 -44 81.5t-59 23.5v32h406v-32q-47 -2 -60 -12.5t-13 -29.5t25 -83l111 -310l102 286q22 60 22 82
q0 33 -16 48.5t-62 18.5v32h234v-32q-38 -4 -61.5 -27t-59.5 -128l-222 -629h-48z" />
    <glyph glyph-name="x" unicode="x" horiz-adv-x="868" 
d="M528 485l137 -260q71 -137 113 -173q22 -20 63 -21v-31h-442v31q51 4 63.5 13t12.5 26q0 23 -28 74l-68 129l-59 -85q-39 -59 -44 -70q-7 -16 -7 -29q0 -19 8 -32.5t22 -19.5t51 -6v-31h-310v31q58 0 105.5 31.5t139.5 166.5l65 96l-136 254q-68 123 -100.5 151t-73.5 31
v32h439v-32h-23l-44 -16q-7 -5 -7 -19q0 -13 4 -26q3 -7 25 -46l61 -116l33 46q68 93 68 130q0 18 -15 30.5t-53 16.5v32h280v-32q-51 -1 -96 -31t-101 -117z" />
    <glyph glyph-name="y" unicode="y" horiz-adv-x="868" 
d="M422 -32l-256 587q-58 134 -85.5 164t-65.5 42v32h421v-32q-42 -1 -59 -15.5t-17 -35.5q0 -32 43 -127l135 -310l93 240q50 128 50 178q0 32 -21 50.5t-73 19.5v32h265v-32q-39 -4 -63.5 -29.5t-82.5 -176.5l-226 -587q-86 -220 -127 -271q-58 -72 -147 -72
q-70 0 -113.5 40t-43.5 98q0 48 29.5 80.5t74.5 32.5q42 0 68 -27t27 -84q0 -32 7 -42q7 -9 20 -9q20 0 43 25q34 35 79 162z" />
    <glyph glyph-name="z" unicode="z" horiz-adv-x="771" 
d="M708 0h-690v19l436 722h-128q-82 0 -117.5 -15t-57.5 -47t-46 -117h-30v231h668v-23l-432 -716h54q163 0 235 46.5t108 170.5h23z" />
    <glyph glyph-name="braceleft" unicode="{" horiz-adv-x="685" 
d="M611 1177v-39q-85 -17 -125.5 -60t-40.5 -100q0 -56 20 -140.5t20 -147.5q0 -57 -33.5 -117t-98.5 -102q-46 -30 -143 -57q105 -32 153 -64q62 -44 93.5 -102.5t31.5 -110.5q0 -51 -21 -136t-21 -147q0 -61 39 -105t126 -61v-39h-30q-87 -1 -164.5 40t-116.5 105t-39 123
q0 60 25 161q20 76 20 135q0 67 -42 114t-124 61v51q82 14 124 63t42 119q0 58 -19 131q-26 100 -26 153q0 55 33.5 112t83 92.5t109.5 51.5q45 12 124 16z" />
    <glyph glyph-name="bar" unicode="|" horiz-adv-x="383" 
d="M135 -375v1552h110v-1552h-110z" />
    <glyph glyph-name="braceright" unicode="}" horiz-adv-x="685" 
d="M77 -351v39q84 16 125 59.5t41 99.5q0 57 -21 141t-21 147q0 58 34 118t100 102q44 29 143 56q-105 33 -153 66q-63 42 -94.5 101t-31.5 111q0 51 21 135.5t21 147.5q0 60 -38.5 103.5t-125.5 61.5v40h30q86 1 164 -40t117 -104.5t39 -125.5q0 -57 -26 -159
q-19 -76 -19 -135q0 -67 41.5 -114t124.5 -60v-52q-83 -14 -124.5 -63t-41.5 -119q0 -59 19 -131q25 -101 25 -152q0 -57 -33 -113.5t-82.5 -92t-109.5 -51.5q-46 -13 -124 -16z" />
    <glyph glyph-name="asciitilde" unicode="~" horiz-adv-x="903" 
d="M885 601h49q-5 -135 -70 -204t-158 -69q-46 0 -96 14t-222 86q-124 52 -179 52q-58 0 -96.5 -35.5t-53.5 -115.5h-48q6 138 68.5 205.5t151.5 67.5q45 0 88 -12q86 -24 236 -89q82 -36 126 -47q25 -7 55 -7q59 0 100.5 40t48.5 114z" />
    <glyph glyph-name="cent" unicode="&#xa2;" horiz-adv-x="693" 
d="M365 -18l39 194q-262 19 -262 179q0 104 100 179.5t250 87.5l35 177h45l-35 -177q100 -5 178 -21l-26 -130h-45q0 6 1 17q3 21 3 29q0 55 -120 61l-69 -349q108 0 202 51l-11 -51q-106 -53 -202 -53l-39 -194h-44zM415 232l69 346q-212 -31 -212 -195q0 -128 143 -151z
" />
    <glyph glyph-name="sterling" unicode="&#xa3;" horiz-adv-x="874" 
d="M17 0l92 88h13q107 0 150.5 48.5t74.5 206.5l9 48h-160l9 45h160l13 63q29 143 118.5 222t221.5 79q79 0 174 -35l-34 -179h-50l2 12q2 10 2 22q0 126 -133 126q-65 0 -94.5 -36t-49.5 -141l-27 -133h240l-9 -45h-240l-7 -32q-19 -94 -64.5 -151t-152.5 -120h205
q137 0 199 14.5t140 64.5l-11 -54q-73 -78 -142.5 -105.5t-195.5 -27.5l-28 1z" />
    <glyph glyph-name="currency" unicode="&#xa4;" horiz-adv-x="932" 
d="M769 322l110 -138l-38 -31l-109 139q-116 -78 -228 -78q-110 0 -194 78l-165 -139l-25 31l166 138q-43 75 -43 148q0 143 126 273l-110 139l38 31l110 -138q114 77 227 77q110 0 194 -77l166 138l25 -31l-167 -139q43 -75 43 -147q0 -141 -126 -274zM818 579
q0 87 -56 142.5t-142 55.5q-118 0 -209 -89t-91 -203q0 -85 56.5 -140.5t142.5 -55.5q116 0 207.5 88.5t91.5 201.5z" />
    <glyph glyph-name="yen" unicode="&#xa5;" horiz-adv-x="965" 
d="M156 0l91 99q22 -2 32 -2q136 0 198 160h-205l8 44h209q6 45 10 108h-198l9 44h189v17q0 97 -35.5 161t-88.5 64t-125 -57t-111 -129l-33 25q66 116 162.5 190.5t183.5 74.5q160 0 160 -281l-1 -46q125 327 360 327q74 0 129 -34l-84 -112q-49 31 -101 31
q-173 0 -264 -231h184l-9 -44h-183l-9 -40q-7 -34 -25 -68h196l-9 -44h-211q-66 -119 -196 -166l235 -14l-90 -95z" />
    <glyph glyph-name="brokenbar" unicode="&#xa6;" horiz-adv-x="355" 
d="M86 -213l117 586h98l-117 -586h-98zM238 551l117 586h98l-116 -586h-99z" />
    <glyph glyph-name="section" unicode="&#xa7;" horiz-adv-x="932" 
d="M107 -153l125 73q116 -98 249 -98q83 0 140.5 50.5t57.5 122.5q0 53 -33.5 85.5t-132.5 79.5l-73 33q-193 90 -193 216q0 119 162 243q-81 65 -81 163q0 123 112 200.5t287 77.5q87 0 206 -33l-36 -181h-44q4 25 4 37q0 123 -205 123q-92 0 -151.5 -52t-59.5 -134
q0 -55 25 -78.5t147 -88.5l61 -34q180 -99 180 -208q0 -125 -151 -244q98 -64 98 -160q0 -115 -116.5 -193t-287.5 -78q-153 0 -290 78zM667 229q80 90 80 165q0 76 -119 133l-70 35q-63 31 -113 63q-90 -80 -90 -169q0 -74 119 -130l97 -47q36 -16 96 -50z" />
    <glyph glyph-name="dieresis" unicode="&#xa8;" horiz-adv-x="862" 
d="M495 923l-87 110l112 86l87 -116zM841 923l-89 112l114 84l85 -115z" />
    <glyph glyph-name="copyright" unicode="&#xa9;" horiz-adv-x="1244" 
d="M725 -27q-230 0 -394.5 164t-164.5 396t164.5 396t394.5 164q233 0 397 -164t164 -396t-164 -396t-397 -164zM725 18q214 0 365 151t151 364t-151 364t-365 151q-212 0 -363 -151t-151 -364t151 -364t363 -151zM890 246q-105 -33 -186 -33q-124 0 -196 66.5t-72 182.5
q0 163 105 272.5t264 109.5q91 0 198 -30l-36 -139l-52 9l8 82q-69 32 -131 32q-104 0 -176 -98t-72 -238q0 -191 178 -191q101 0 180 36z" />
    <glyph glyph-name="guillemotleft" unicode="&#xab;" horiz-adv-x="854" 
d="M779 -70q-9 -11 -96 -48q-248 200 -248 405q0 207 247 406q77 -22 97 -46q-173 -193 -173 -360q0 -168 173 -357zM469 -70q-9 -11 -96 -48q-248 200 -248 405q0 207 247 406q77 -22 97 -46q-173 -193 -173 -360q0 -168 173 -357z" />
    <glyph glyph-name="logicalnot" unicode="&#xac;" horiz-adv-x="932" 
d="M177 510l16 80h782l-69 -342h-92l52 262h-689z" />
    <glyph glyph-name="registered" unicode="&#xae;" horiz-adv-x="897" 
d="M580 445q-132 0 -225.5 93.5t-93.5 225.5t93.5 226t225.5 94q134 0 227 -94t93 -226t-93.5 -225.5t-226.5 -93.5zM580 484q115 0 197.5 83t82.5 197t-82.5 197t-197.5 83q-114 0 -196.5 -83t-82.5 -197t82.5 -197t196.5 -83zM529 737l-28 -141h-107l9 43h53l55 276h-53
l8 44h132q153 0 153 -84q0 -75 -101 -125l35 -111h62l-9 -43h-97l-50 141h-62zM538 782h36q123 0 123 84q0 49 -90 49h-43z" />
    <glyph glyph-name="macron" unicode="&#xaf;" horiz-adv-x="1118" 
d="M1134 1659h-1150v130h1150v-130z" />
    <glyph glyph-name="degree" unicode="&#xb0;" horiz-adv-x="409" 
d="M395 844q-51 0 -87.5 36t-36.5 88q0 53 36.5 89t87.5 36q52 0 88 -36t36 -89q0 -52 -36 -88t-88 -36zM395 888q32 0 55.5 24t23.5 56t-23.5 56t-55.5 24t-56 -24t-24 -56t24 -56t56 -24z" />
    <glyph glyph-name="plusminus" unicode="&#xb1;" horiz-adv-x="932" 
d="M76 0l16 80h781l-15 -80h-782zM469 213l56 280h-351l15 80h352l55 279h80l-55 -279h350l-15 -80h-351l-56 -280h-80z" />
    <glyph glyph-name="twosuperior" unicode="&#xb2;" horiz-adv-x="596" 
d="M187 516l20 101q155 95 247.5 186.5t92.5 148.5q0 94 -84 94q-111 0 -132 -118h-53l26 131q96 34 180 34q190 0 190 -134q0 -72 -49.5 -117t-327.5 -225h310l-20 -101h-400z" />
    <glyph glyph-name="threesuperior" unicode="&#xb3;" horiz-adv-x="596" 
d="M185 545l72 75q80 -64 161 -64q42 0 72.5 31t30.5 74q0 115 -176 115q-22 0 -44 -3l30 86q19 1 34 1q47 0 101 -11q81 37 81 112q0 85 -93 85q-89 0 -112 -105h-53l22 116q87 36 173 36q178 0 178 -109q0 -91 -142 -155q105 -39 105 -136q0 -77 -70.5 -130t-176.5 -53
q-89 0 -193 35z" />
    <glyph glyph-name="acute" unicode="&#xb4;" horiz-adv-x="256" 
d="M118 999q77 84 74 47q-9 -32 -56.5 -122t-69.5 -122q-11 -6 -4 46q21 71 56 151z" />
    <glyph glyph-name="mu1" unicode="&#xb5;" horiz-adv-x="992" 
d="M100 -302l55 226l115 576q12 60 12 111q0 82 -76 171l162 8q59 -50 59 -167q0 -47 -18 -142l-54 -268q-8 -37 -8 -52q0 -55 44 -55q55 0 162.5 123t199.5 290l52 263l153 8l-53 -221l-71 -356q-16 -81 -16 -107q0 -53 43 -53q70 0 214 165l-13 -67q-157 -169 -283 -169
q-104 0 -104 109q0 37 17 122l35 178h-10q-200 -391 -405 -391l-57 -284z" />
    <glyph glyph-name="paragraph" unicode="&#xb6;" horiz-adv-x="932" 
d="M365 -239l146 735q-270 46 -270 251q0 129 105.5 221t281.5 117l32 159h44l-31 -159l30 1q41 0 93 -6l32 164h45l-34 -173q52 -14 109 -35l-10 -48q-40 17 -108 36l-88 -438q52 17 127 57l-10 -57q-65 -37 -127 -56l-154 -769h-44l150 753q-87 -18 -128 -18l-147 -735
h-44zM695 568l92 463q-49 9 -83 9q-13 0 -40 -1l-97 -486q58 0 128 15z" />
    <glyph glyph-name="periodcentered" unicode="&#xb7;" horiz-adv-x="724" 
d="M482 832h-239v285h239v-285z" />
    <glyph glyph-name="cedilla" unicode="&#xb8;" horiz-adv-x="862" 
d="M456 0l-42 -64q71 -22 71 -83q0 -51 -56.5 -94t-125.5 -43q-31 0 -66 7l55 76q34 -22 60 -22q64 0 64 52q0 59 -98 59l76 112h62z" />
    <glyph glyph-name="onesuperior" unicode="&#xb9;" horiz-adv-x="596" 
d="M573 1093l-86 -436q-11 -50 -11 -68q0 -19 56 -26l59 -3l-9 -44h-372l8 44l61 3q49 4 58.5 15t24.5 79l56 281q5 22 5 40q0 26 -68 35l-45 8l9 45z" />
    <glyph glyph-name="guillemotright" unicode="&#xbb;" horiz-adv-x="862" 
d="M125 -70q173 189 173 357q0 167 -173 360q20 24 97 46q247 -199 247 -406q0 -205 -248 -405q-87 37 -96 48zM435 -70q173 189 173 357q0 167 -173 360q20 24 97 46q247 -199 247 -406q0 -205 -248 -405q-87 37 -96 48z" />
    <glyph glyph-name="onequarter" unicode="&#xbc;" horiz-adv-x="1262" 
d="M546 1093l-86 -436q-10 -51 -10 -68q0 -19 56 -26l59 -3l-9 -44h-373l9 44l61 3q48 4 58 15t25 79l55 281q5 22 5 40q0 26 -68 35l-45 8l9 45zM178 -27l1020 1120h100l-1023 -1120h-97zM981 164l-249 18l15 79l355 317h68l-68 -342l110 -7l-44 -80l-82 8q-10 -55 -10 -83
q0 -22 53 -25l60 -4l-9 -45h-360l9 45l57 4q51 3 66 15t21 53q3 17 8 47zM997 244l41 202l-215 -191z" />
    <glyph glyph-name="onehalf" unicode="&#xbd;" horiz-adv-x="1262" 
d="M528 1093l-86 -436q-10 -51 -10 -68q0 -19 56 -26l59 -3l-9 -44h-373l9 44l61 3q48 4 58 15t25 79l55 281q5 22 5 40q0 26 -68 35l-45 8l9 45zM160 -27l1020 1120h100l-1023 -1120h-97zM778 0l19 103q155 94 248 185t93 148q0 94 -85 94q-111 0 -131 -117h-54l27 131
q94 34 180 34q189 0 189 -133q0 -72 -49.5 -117t-327.5 -225h310l-20 -103h-399z" />
    <glyph glyph-name="threequarters" unicode="&#xbe;" horiz-adv-x="1262" 
d="M174 545l73 75q79 -64 160 -64q41 0 71.5 31t30.5 74q0 115 -176 115q-22 0 -44 -3l30 86q19 1 36 1q46 0 100 -11q80 37 80 112q0 85 -93 85q-88 0 -112 -105h-53l24 116q86 36 171 36q179 0 179 -109q0 -91 -143 -155q106 -39 106 -136q0 -77 -71 -130t-177 -53
q-89 0 -192 35zM178 -27l1020 1120h100l-1023 -1120h-97zM981 164l-249 18l15 79l355 317h68l-68 -342l110 -7l-44 -80l-82 8q-10 -55 -10 -83q0 -22 53 -25l60 -4l-9 -45h-360l9 45l57 4q52 3 66.5 15t20.5 53q3 17 8 47zM997 244l41 202l-215 -191z" />
    <glyph glyph-name="multiply" unicode="&#xd7;" horiz-adv-x="824" 
d="M618 758l96 -97l-187 -186l187 -187l-97 -97l-187 188l-188 -189l-96 97l188 188l-188 187l97 97l187 -187z" />
    <glyph glyph-name="agrave" unicode="&#xe0;" horiz-adv-x="1075" 
d="M583 117q-145 -128 -261 -128q-68 0 -112.5 44.5t-44.5 111.5q0 90 78 163t340 193v80q0 90 -9.5 113.5t-37 41t-61.5 17.5q-55 0 -90 -26q-22 -15 -22 -35q0 -18 23 -44q33 -36 33 -70q0 -42 -31.5 -71.5t-81.5 -29.5q-53 0 -89 32.5t-36 75.5q0 62 48.5 117t135 84.5
t179.5 29.5q113 0 179 -47.5t85 -103.5q11 -35 11 -164v-308q0 -54 4.5 -68t13 -20.5t20.5 -6.5q21 0 44 31l26 -21q-43 -62 -88.5 -90.5t-102.5 -28.5q-68 0 -106 32t-47 96zM583 179v265q-103 -60 -153 -128q-32 -47 -32 -93q0 -39 27 -68q21 -24 59 -24q43 0 99 48z
M416 718q37 -85 60 -160q7 -55 -5 -49q-23 34 -73.5 129.5t-59.5 129.5q-3 39 78 -50z" />
    <glyph glyph-name="acircumflex" unicode="&#xe2;" horiz-adv-x="698" 
d="M583 117q-145 -128 -261 -128q-68 0 -112.5 44.5t-44.5 111.5q0 90 78 163t340 193v80q0 90 -9.5 113.5t-37 41t-61.5 17.5q-55 0 -90 -26q-22 -15 -22 -35q0 -18 23 -44q33 -36 33 -70q0 -42 -31.5 -71.5t-81.5 -29.5q-53 0 -89 32.5t-36 75.5q0 62 48.5 117t135 84.5
t179.5 29.5q113 0 179 -47.5t85 -103.5q11 -35 11 -164v-308q0 -54 4.5 -68t13 -20.5t20.5 -6.5q21 0 44 31l26 -21q-43 -62 -88.5 -90.5t-102.5 -28.5q-68 0 -106 32t-47 96zM583 179v265q-103 -60 -153 -128q-32 -47 -32 -93q0 -39 27 -68q21 -24 59 -24q43 0 99 48z
M877 665l-87 -53q-54 61 -90 159q-41 -50 -119 -129q-3 -4 -21 -22l-101 -8q155 114 222 197l98 62q33 -113 98 -206z" />
    <glyph glyph-name="ccedilla" unicode="&#xe7;" horiz-adv-x="805" 
d="M775 198l-11 -56q-148 -105 -319 -151l-37 -56q73 -21 73 -81q0 -51 -56.5 -94.5t-123.5 -43.5q-29 0 -69 7l55 76q35 -22 61 -22q64 0 64 51q0 55 -101 61l65 92q-231 24 -231 247q0 217 157 394t350 177q84 0 167 -37l-49 -184h-45l3 11q7 33 7 49q0 99 -136 99
q-124 0 -216.5 -142t-92.5 -332q0 -201 156 -201q117 0 329 136z" />
    <glyph glyph-name="egrave" unicode="&#xe8;" horiz-adv-x="1078" 
d="M730 425h-435q8 -158 84 -249q59 -71 140 -71q51 0 93 28.5t90 101.5l28 -18q-64 -131 -142 -185.5t-181 -54.5q-176 0 -267 135q-73 110 -73 272q0 198 107.5 315t251.5 117q120 0 208.5 -98.5t95.5 -292.5zM522 481q0 137 -15 188t-47 77q-17 15 -47 15q-44 0 -72 -42
q-51 -77 -51 -208v-30h232zM551 1062q37 -85 60 -160q7 -55 -5 -49q-23 34 -73.5 129.5t-59.5 129.5q-3 39 78 -50z" />
    <glyph glyph-name="eacute" unicode="&#xe9;" horiz-adv-x="1078" 
d="M730 425h-435q8 -158 84 -249q59 -71 140 -71q51 0 93 28.5t90 101.5l28 -18q-64 -131 -142 -185.5t-181 -54.5q-176 0 -267 135q-73 110 -73 272q0 198 107.5 315t251.5 117q120 0 208.5 -98.5t95.5 -292.5zM522 481q0 137 -15 188t-47 77q-17 15 -47 15q-44 0 -72 -42
q-51 -77 -51 -208v-30h232zM479 999q77 84 74 47q-9 -32 -56.5 -122t-69.5 -122q-11 -6 -4 46q21 71 56 151z" />
    <glyph glyph-name="ecircumflex" unicode="&#xea;" horiz-adv-x="1078" 
d="M730 425h-435q8 -158 84 -249q59 -71 140 -71q51 0 93 28.5t90 101.5l28 -18q-64 -131 -142 -185.5t-181 -54.5q-176 0 -267 135q-73 110 -73 272q0 198 107.5 315t251.5 117q120 0 208.5 -98.5t95.5 -292.5zM522 481q0 137 -15 188t-47 77q-17 15 -47 15q-44 0 -72 -42
q-51 -77 -51 -208v-30h232zM963 976l-87 -53q-54 61 -90 159q-41 -50 -119 -129q-3 -4 -21 -22l-101 -8q155 114 222 197l98 62q33 -113 98 -206z" />
    <glyph glyph-name="edieresis" unicode="&#xeb;" horiz-adv-x="1078" 
d="M730 425h-435q8 -158 84 -249q59 -71 140 -71q51 0 93 28.5t90 101.5l28 -18q-64 -131 -142 -185.5t-181 -54.5q-176 0 -267 135q-73 110 -73 272q0 198 107.5 315t251.5 117q120 0 208.5 -98.5t95.5 -292.5zM522 481q0 137 -15 188t-47 77q-17 15 -47 15q-44 0 -72 -42
q-51 -77 -51 -208v-30h232zM364 972l-87 110l112 86l87 -116zM710 972l-89 112l114 84l85 -115z" />
    <glyph glyph-name="icircumflex" unicode="&#xee;" horiz-adv-x="468" 
d="M328 0h-188v1117h188v-1117zM521 1297h-151l-139 263l-138 -263h-147l174 379h227z" />
    <glyph glyph-name="idieresis" unicode="&#xef;" horiz-adv-x="468" 
d="M328 0h-188v1117h188v-1117zM506 1304h-189v195h189v-195zM151 1304h-189v195h189v-195z" />
    <glyph glyph-name="ocircumflex" unicode="&#xf4;" horiz-adv-x="1024" 
d="M432 816q104 0 193 -53t135.5 -151.5t46.5 -215.5q0 -169 -86 -283q-104 -136 -286 -136q-178 0 -275 125t-97 290q0 171 99 297.5t270 126.5zM436 757q-44 0 -74.5 -33t-40 -129.5t-9.5 -266.5q0 -92 11 -170q10 -60 40 -91.5t69 -31.5t64 21q33 29 45 81q17 80 17 325
q0 144 -16.5 198t-47.5 79q-22 18 -58 18zM673 1077l-87 -53q-54 61 -90 159q-41 -50 -119 -129q-3 -4 -21 -22l-101 -8q155 114 222 197l98 62q33 -113 98 -206z" />
    <glyph glyph-name="divide" unicode="&#xf7;" horiz-adv-x="1093" 
d="M624 674h-158v181h158v-181zM933 383h-776v106h776v-106zM624 17h-158v181h158v-181z" />
    <glyph glyph-name="ugrave" unicode="&#xf9;" horiz-adv-x="1142" 
d="M825 793v-621q0 -90 17 -113t67 -28v-31h-322v106q-57 -68 -113.5 -98.5t-127.5 -30.5q-67 0 -119 40.5t-70 96t-18 192.5v315q0 89 -16.5 111.5t-69.5 28.5v32h323v-542q0 -85 8 -109.5t25.5 -37.5t40.5 -13q31 0 56 17q34 21 81 89v424q0 89 -17 111.5t-69 28.5v32h324
zM553 1062q37 -85 60 -160q7 -55 -5 -49q-23 34 -73.5 129.5t-59.5 129.5q-3 39 78 -50z" />
    <glyph glyph-name="ucircumflex" unicode="&#xfb;" horiz-adv-x="1142" 
d="M825 793v-621q0 -90 17 -113t67 -28v-31h-322v106q-57 -68 -113.5 -98.5t-127.5 -30.5q-67 0 -119 40.5t-70 96t-18 192.5v315q0 89 -16.5 111.5t-69.5 28.5v32h323v-542q0 -85 8 -109.5t25.5 -37.5t40.5 -13q31 0 56 17q34 21 81 89v424q0 89 -17 111.5t-69 28.5v32h324
zM692 1086l-87 -53q-54 61 -90 159q-41 -50 -119 -129q-3 -4 -21 -22l-101 -8q155 114 222 197l98 62q33 -113 98 -206z" />
    <glyph glyph-name="udieresis" unicode="&#xfc;" horiz-adv-x="1142" 
d="M825 793v-621q0 -90 17 -113t67 -28v-31h-322v106q-57 -68 -113.5 -98.5t-127.5 -30.5q-67 0 -119 40.5t-70 96t-18 192.5v315q0 89 -16.5 111.5t-69.5 28.5v32h323v-542q0 -85 8 -109.5t25.5 -37.5t40.5 -13q31 0 56 17q34 21 81 89v424q0 89 -17 111.5t-69 28.5v32h324
zM299 1009l-87 110l112 86l87 -116zM645 1009l-89 112l114 84l85 -115z" />
    <glyph glyph-name="dotlessi" unicode="&#x131;" horiz-adv-x="468" 
 />
    <glyph glyph-name="OE" unicode="&#x152;" horiz-adv-x="1477" 
d="M816 0l15 70q-120 -97 -282 -97q-178 0 -280 108t-102 297q0 283 191 499t441 216q132 0 218 -86l12 59h564l-64 -204h-45q6 29 6 51q0 56 -65.5 77.5t-237.5 21.5h-22l-83 -426h320l-73 -74q-164 21 -222 21h-36l-59 -315q-10 -51 -10 -62q0 -76 226 -76q120 0 225 80
l-11 -57q-124 -126 -239 -126q-20 0 -42 2zM888 361l73 362q13 63 13 118q0 92 -57.5 149.5t-147.5 57.5q-165 0 -302.5 -204t-137.5 -449q0 -177 67.5 -277.5t188.5 -100.5q233 0 303 344z" />
    <glyph glyph-name="oe" unicode="&#x153;" horiz-adv-x="1350" 
d="M706 145q-171 -163 -336 -163q-97 0 -161 73t-64 182q0 211 157.5 386.5t347.5 175.5q144 0 209 -169q166 169 324 169q63 0 103.5 -41t40.5 -107q0 -143 -134.5 -237t-351.5 -103l-1 -33q0 -212 158 -212q115 0 329 134l-11 -54q-233 -164 -399 -164q-159 0 -211 163z
M431 35q113 0 205 143.5t92 320.5q0 108 -39 173t-105 65q-112 0 -202 -143t-90 -322q0 -237 139 -237zM844 355q160 13 253.5 83.5t93.5 181.5q0 113 -81 113q-86 0 -168.5 -117t-97.5 -261z" />
    <glyph glyph-name="uni04D8" unicode="&#x18f;" horiz-adv-x="1449" 
 />
    <glyph glyph-name="florin" unicode="&#x192;" horiz-adv-x="679" 
d="M158 -231l52 213l76 382h-178l9 45h177l4 18q32 159 165 265.5t298 106.5q57 0 99 -15l-96 -106q-52 51 -121 51q-143 0 -186 -217l-21 -103h187l-9 -45h-187l-114 -577z" />
    <glyph glyph-name="uni04D9" unicode="&#x259;" horiz-adv-x="1078" 
 />
    <glyph glyph-name="circumflex" unicode="&#x2c6;" horiz-adv-x="862" 
d="M870 976l-87 -53q-54 61 -90 159q-41 -50 -119 -129q-3 -4 -21 -22l-101 -8q155 114 222 197l98 62q33 -113 98 -206z" />
    <glyph glyph-name="gravecomb" unicode="&#x300;" 
 />
    <glyph glyph-name="acutecomb" unicode="&#x301;" 
 />
    <glyph glyph-name="uni040d" unicode="&#x400;" horiz-adv-x="1149" 
 />
    <glyph glyph-name="uni045D" unicode="&#x40d;" horiz-adv-x="1372" 
 />
    <glyph glyph-name="uni0400" unicode="&#x450;" horiz-adv-x="1078" 
 />
    <glyph glyph-name="uni0450" unicode="&#x45d;" horiz-adv-x="1154" 
 />
    <glyph glyph-name="doublevav" unicode="&#x5f0;" horiz-adv-x="1122" 
 />
    <glyph glyph-name="doubleyod" unicode="&#x5f2;" horiz-adv-x="1122" 
 />
    <glyph glyph-name="afii57388" unicode="&#x60c;" horiz-adv-x="663" 
d="M564 481v-31q-84 -36 -121.5 -93t-37.5 -118q0 -11 4 -17q6 -7 11 -7q4 0 13 6q20 11 52 11q42 0 73 -32.5t31 -77.5q0 -48 -36 -84t-86 -36q-62 0 -106 48.5t-44 131.5q0 102 62.5 182t184.5 117z" />
    <glyph glyph-name="afii57403" unicode="&#x61b;" horiz-adv-x="564" 
d="M339 6q-49 0 -83.5 34.5t-34.5 84.5t35 84.5t83 34.5q50 0 85 -34.5t35 -84.5t-34.5 -84.5t-85.5 -34.5zM450 955v-31q-84 -36 -121.5 -93t-37.5 -118q0 -11 4 -17q6 -7 11 -7q4 0 13 6q20 11 52 11q42 0 73 -32.5t31 -77.5q0 -48 -36 -84t-86 -36q-62 0 -106 48.5
t-44 131.5q0 102 62.5 182t184.5 117z" />
    <glyph glyph-name="afii57407" unicode="&#x61f;" horiz-adv-x="987" 
d="M899 875l-123 -70q-59 160 -168 168.5t-157 -49t-42 -132.5q2 -64 54 -126q38 -52 167.5 -145t127.5 -266h-193q-2 56 -3 64q-3 24 -16 55q-22 51 -119 129q-106 85 -107 86q-53 47 -88.5 104t-35.5 138q0 156 109 257q106 97 264 97q141 0 236 -85t94 -225zM759 3h-200
v200h200v-200z" />
    <glyph glyph-name="afii57409" unicode="&#x621;" horiz-adv-x="828" 
d="M753 120l-587 -150v127l125 53l-35 48q-19 37 -19 93q0 87 72.5 157t160.5 70q116 0 181 -62l-37 -113q-50 30 -152 30q-29 0 -64 -18q-41 -21 -41 -47q0 -44 60 -66q44 -16 97 -16q28 0 239 69v-175z" />
    <glyph glyph-name="afii52400" unicode="&#x622;" horiz-adv-x="493" 
d="M344 27l-152 -55l-58 1179l210 82v-1206zM571 1464q-39 -71 -112 -111q-65 -36 -131 -36q-40 0 -118 14t-117 14q-82 0 -137 -55l-71 97q79 100 186 100q38 0 114.5 -12.5t115.5 -12.5q143 0 221 97z" />
    <glyph glyph-name="afii57411" unicode="&#x623;" horiz-adv-x="442" 
d="M356 27l-152 -55l-58 1179l210 82v-1206zM434 1410l-417 -122l5 66l99 53q-52 51 -52 103q0 61 50 111t111 50q80 0 125 -43l-25 -64q-39 16 -103 16q-26 0 -54 -14q-33 -17 -33 -40q0 -70 123 -70q16 0 167 46z" />
    <glyph glyph-name="afii57412" unicode="&#x624;" horiz-adv-x="722" 
d="M667 185q0 -192 -162 -381q-151 -176 -343 -243l-143 137q172 67 324 197q143 122 156 201q-57 -27 -131 -27q-216 0 -216 207q0 96 54 203q68 135 172 135q153 0 229 -146q60 -115 60 -283zM494 283q-4 48 -34 88q-34 45 -79 45q-34 0 -60 -29.5t-26 -63.5
q0 -61 102 -61q62 0 97 21zM583 843l-417 -122l5 66l99 53q-52 51 -52 103q0 61 50 111t111 50q80 0 125 -43l-25 -64q-39 16 -103 16q-26 0 -54 -14q-33 -17 -33 -40q0 -70 123 -70q16 0 167 46z" />
    <glyph glyph-name="afii57413" unicode="&#x625;" horiz-adv-x="492" 
d="M337 27l-152 -55l-58 1179l210 82v-1206zM481 -373l-417 -122l5 66l99 53q-52 51 -52 103q0 61 50 111t111 50q80 0 125 -43l-25 -64q-39 16 -103 16q-26 0 -54 -14q-33 -17 -33 -40q0 -70 123 -70q16 0 167 46z" />
    <glyph glyph-name="afii57414" unicode="&#x626;" horiz-adv-x="1382" 
d="M1331 645l-53 -201q-58 25 -170 25q-92 0 -164 -55q-64 -49 -64 -96q0 -26 27 -34q19 -6 179 -19q209 -17 209 -168q0 -217 -202 -360q-188 -133 -442 -133q-514 0 -514 433q0 160 97 327l162 -55q-66 -104 -66 -217q0 -254 349 -254q91 0 206 30q160 42 239 121
q18 18 18 35q0 28 -37 32q-43 5 -264 23q-140 28 -140 159q0 169 143 314t311 145q62 0 93 -9t83 -43zM718 810l-417 -122l5 66l99 53q-52 51 -52 103q0 61 50 111t111 50q80 0 125 -43l-25 -64q-39 16 -103 16q-26 0 -54 -14q-33 -17 -33 -40q0 -70 123 -70q16 0 167 46z
" />
    <glyph glyph-name="afii57415.001" unicode="&#x627;" horiz-adv-x="399" 
d="M337 27l-152 -55l-58 1179l210 82v-1206z" />
    <glyph glyph-name="afii57416" unicode="&#x628;" horiz-adv-x="1692" 
d="M1650 372q0 -427 -891 -427q-594 0 -594 348q0 105 77 258l151 -47q-44 -96 -44 -137q0 -85 65 -126q97 -61 356 -61h124q220 0 414 54q180 50 180 97q0 36 -102 165l132 190q132 -135 132 -314zM1035 -346l-124 -164l-169 112l124 166z" />
    <glyph glyph-name="afii57417" unicode="&#x629;" horiz-adv-x="771" 
d="M710 284q0 -132 -82 -216t-213 -84q-112 0 -177 51q-73 56 -73 164q0 122 116 305l-44 20l110 189q150 -53 250 -160q113 -122 113 -269zM553 271q0 93 -153 167q-75 -99 -75 -154q0 -82 96 -82q41 0 81 15q51 20 51 54zM655 978l-110 -149l-136 96l-80 -112l-172 117
l110 149l144 -99l79 112z" />
    <glyph glyph-name="afii57418" unicode="&#x62a;" horiz-adv-x="1692" 
d="M1650 372q0 -427 -891 -427q-594 0 -594 348q0 105 77 258l151 -47q-44 -96 -44 -137q0 -85 65 -126q97 -61 356 -61h124q220 0 414 54q180 50 180 97q0 36 -102 165l132 190q132 -135 132 -314zM1112 855l-110 -149l-136 96l-80 -112l-172 117l110 149l144 -99l79 112z
" />
    <glyph glyph-name="afii57419" unicode="&#x62b;" horiz-adv-x="1692" 
d="M1650 372q0 -427 -891 -427q-594 0 -594 348q0 105 77 258l151 -47q-44 -96 -44 -137q0 -85 65 -126q97 -61 356 -61h124q220 0 414 54q180 50 180 97q0 36 -102 165l132 190q132 -135 132 -314zM643 762l102 140l133 -89l77 104l156 -104l-106 -139l-133 88l-72 -104z
M722 1008l103 136l144 -97l-101 -137z" />
    <glyph glyph-name="afii57420" unicode="&#x62c;" horiz-adv-x="1199" 
d="M1282 -663q-210 -77 -421 -77q-311 0 -487 117q-209 139 -209 433q0 187 163 357q129 135 324 226q-177 22 -220 22q-47 0 -96 -79q-99 41 -154 74q95 236 222 236q97 0 295 -22.5t298 -22.5q109 0 197 10l-28 -240q-247 0 -506 -159q-280 -172 -280 -375
q0 -344 514 -344q172 0 324 44zM943 -111l-124 -164l-169 112l124 166z" />
    <glyph glyph-name="afii57421" unicode="&#x62d;" horiz-adv-x="1199" 
d="M1282 -662q-210 -77 -421 -77q-311 0 -487 117q-209 139 -209 433q0 187 163 357q129 135 324 226q-177 22 -220 22q-47 0 -96 -79q-99 41 -154 74q95 236 222 236q97 0 295 -22.5t298 -22.5q109 0 197 10l-28 -240q-247 0 -506 -159q-280 -172 -280 -375
q0 -344 514 -344q172 0 324 44z" />
    <glyph glyph-name="afii57422" unicode="&#x62e;" horiz-adv-x="1199" 
d="M1282 -665q-210 -77 -421 -77q-311 0 -487 117q-209 139 -209 433q0 187 163 357q129 135 324 226q-177 22 -220 22q-47 0 -96 -79q-99 41 -154 74q95 236 222 236q97 0 295 -22.5t298 -22.5q109 0 197 10l-28 -240q-247 0 -506 -159q-280 -172 -280 -375
q0 -344 514 -344q172 0 324 44zM850 965l-124 -164l-169 112l124 166z" />
    <glyph glyph-name="afii57423" unicode="&#x62f;" horiz-adv-x="903" 
d="M858 323q0 -168 -111 -260q-103 -85 -275 -85q-230 0 -328 127l96 177q87 -72 188 -72q124 0 170 9q112 23 112 101q0 52 -84 138q-94 96 -229 167l91 224q370 -225 370 -526z" />
    <glyph glyph-name="afii57424" unicode="&#x630;" horiz-adv-x="876" 
d="M874 323q0 -168 -111 -260q-103 -85 -275 -85q-230 0 -328 127l96 177q87 -72 188 -72q124 0 170 9q112 23 112 101q0 52 -84 138q-94 96 -229 167l91 224q370 -225 370 -526zM610 1134l-124 -164l-169 112l124 166z" />
    <glyph glyph-name="afii57425" unicode="&#x631;" horiz-adv-x="766" 
d="M716 223q0 -198 -196 -381q-155 -145 -355 -224l-159 123q248 121 396 255q135 122 135 202q0 51 -40 108l-81 108l155 181q77 -97 106 -163q39 -88 39 -209z" />
    <glyph glyph-name="afii57426" unicode="&#x632;" horiz-adv-x="766" 
d="M716 223q0 -198 -196 -381q-155 -145 -355 -224l-159 123q248 121 396 255q135 122 135 202q0 51 -40 108l-81 108l155 181q77 -97 106 -163q39 -88 39 -209zM590 866l-124 -164l-169 112l124 166z" />
    <glyph glyph-name="afii57427" unicode="&#x633;" horiz-adv-x="1964" 
d="M1912 331q0 -121 -64 -220q-74 -113 -189 -113q-158 0 -231 108q-60 -105 -168 -105q-111 0 -140 41q0 -242 -149 -401q-152 -163 -393 -163q-242 0 -362 152q-97 122 -97 313q0 153 83 319l156 -55q-55 -142 -55 -220q0 -134 81 -206q78 -69 214 -69q145 0 240 81
q101 85 101 227q0 137 -99 270l176 165q64 -127 72 -139q58 -81 137 -81q143 0 143 132v77l145 44v-102q0 -66 38 -110q40 -47 105 -47q88 0 88 83q0 77 -68 140l143 160q93 -103 93 -281z" />
    <glyph glyph-name="afii57428" unicode="&#x634;" horiz-adv-x="1964" 
d="M1912 350q0 -121 -64 -220q-74 -113 -189 -113q-158 0 -231 108q-60 -105 -168 -105q-111 0 -140 41q0 -242 -149 -401q-152 -163 -393 -163q-242 0 -362 152q-97 122 -97 313q0 153 83 319l156 -55q-55 -142 -55 -220q0 -134 81 -206q78 -69 214 -69q145 0 240 81
q101 85 101 227q0 137 -99 270l176 165q64 -127 72 -139q58 -81 137 -81q143 0 143 132v77l145 44v-102q0 -66 38 -110q40 -47 105 -47q88 0 88 83q0 77 -68 140l143 160q93 -103 93 -281zM1192 773l102 140l133 -89l77 104l156 -104l-106 -139l-133 88l-72 -104zM1271 1019
l103 136l144 -97l-101 -137z" />
    <glyph glyph-name="afii57429" unicode="&#x635;" horiz-adv-x="2141" 
d="M2096 436q0 -214 -190 -333q-163 -102 -396 -102h-143q-160 0 -198 41q0 -242 -149 -401q-152 -163 -393 -163q-242 0 -362 152q-97 122 -97 313q0 153 83 319l156 -55q-55 -142 -55 -220q0 -134 81 -206q78 -69 214 -69q145 0 240 81q101 85 101 227q0 137 -99 270
l176 165q103 -217 167 -217q32 0 46 10q10 8 45 50q314 385 512 385q113 0 186 -66q75 -69 75 -181zM1931 375q0 85 -143 85q-91 0 -205 -93q-22 -18 -136 -132h99q106 0 221 27q164 40 164 113z" />
    <glyph glyph-name="afii57430" unicode="&#x636;" horiz-adv-x="2141" 
d="M2096 436q0 -214 -190 -333q-163 -102 -396 -102h-143q-160 0 -198 41q0 -242 -149 -401q-152 -163 -393 -163q-242 0 -362 152q-97 122 -97 313q0 153 83 319l156 -55q-55 -142 -55 -220q0 -134 81 -206q78 -69 214 -69q145 0 240 81q101 85 101 227q0 137 -99 270
l176 165q103 -217 167 -217q32 0 46 10q10 8 45 50q314 385 512 385q113 0 186 -66q75 -69 75 -181zM1931 375q0 85 -143 85q-91 0 -205 -93q-22 -18 -136 -132h99q106 0 221 27q164 40 164 113zM1481 921l-124 -164l-169 112l124 166z" />
    <glyph glyph-name="afii57431" unicode="&#x637;" horiz-adv-x="1256" 
d="M1204 436q0 -214 -196 -333q-168 -102 -417 -102h-160q-255 0 -344 129l77 149q69 -39 150 -39q114 0 142 108q9 37 9 203q0 243 -37 600l213 82v-694q159 144 302 144q113 0 186 -66q75 -69 75 -181zM1039 375q0 85 -143 85q-92 0 -205 -93q-17 -14 -136 -132h99
q106 0 221 27q164 40 164 113z" />
    <glyph glyph-name="afii57432" unicode="&#x638;" horiz-adv-x="1256" 
d="M1204 436q0 -214 -196 -333q-168 -102 -417 -102h-160q-255 0 -344 129l77 149q69 -39 150 -39q114 0 142 108q9 37 9 203q0 243 -37 600l213 82v-694q159 144 302 144q113 0 186 -66q75 -69 75 -181zM1039 375q0 85 -143 85q-92 0 -205 -93q-17 -14 -136 -132h99
q106 0 221 27q164 40 164 113zM1079 1023l-124 -164l-169 112l124 166z" />
    <glyph glyph-name="afii57433" unicode="&#x639;" horiz-adv-x="1045" 
d="M1192 -671q-155 -66 -358 -66q-281 0 -457 110q-211 132 -211 396q0 255 281 463q-139 96 -139 252q0 136 102.5 233.5t239.5 97.5q60 0 126 -30.5t100 -76.5l-53 -132q-83 44 -187 44q-54 0 -104 -24q-62 -29 -62 -77q0 -57 81 -103q72 -41 135 -41q27 0 154 30l165 39
v-201q-644 -135 -644 -460q0 -158 187 -233q134 -53 319 -53q158 0 256 36z" />
    <glyph glyph-name="afii57434" unicode="&#x63a;" horiz-adv-x="1045" 
d="M1192 -671q-155 -66 -358 -66q-281 0 -457 110q-211 132 -211 396q0 255 281 463q-139 96 -139 252q0 136 102.5 233.5t239.5 97.5q60 0 126 -30.5t100 -76.5l-53 -132q-83 44 -187 44q-54 0 -104 -24q-62 -29 -62 -77q0 -57 81 -103q72 -41 135 -41q27 0 154 30l165 39
v-201q-644 -135 -644 -460q0 -158 187 -233q134 -53 319 -53q158 0 256 36zM751 1146l-124 -164l-169 112l124 166z" />
    <glyph glyph-name="afii57440" unicode="&#x640;" horiz-adv-x="695" 
d="M724 0h-753v235h753v-235z" />
    <glyph glyph-name="afii57441" unicode="&#x641;" horiz-adv-x="1682" 
d="M1630 403q0 -458 -891 -458q-594 0 -594 348q0 105 77 258l151 -47q-44 -96 -44 -137q0 -85 65 -126q97 -61 356 -61h124q248 0 428 54q194 58 188 147q-38 -44 -151 -44q-90 0 -143 48t-53 136q0 87 59 194q72 130 172 130q124 0 198 -168q58 -133 58 -274zM1443 554
q-10 34 -34 65q-29 37 -59 37q-21 0 -46.5 -26.5t-25.5 -48.5q0 -71 77 -71q68 0 88 44zM1447 1136l-124 -164l-169 112l124 166z" />
    <glyph glyph-name="afii57442" unicode="&#x642;" horiz-adv-x="1246" 
d="M1198 190q0 -288 -145 -449q-151 -167 -437 -167q-237 0 -367 152q-111 129 -111 314q0 149 82 319l153 -55q-12 -24 -30 -96q-21 -82 -21 -124q0 -134 91 -208q84 -68 221 -68q175 0 290 70q140 86 130 250q-61 -53 -160 -53q-116 0 -173 71q-43 53 -43 125
q0 103 58 216q72 141 185 141q134 0 213 -160q64 -130 64 -278zM1001 317q-7 39 -34 71q-30 37 -67 37q-27 0 -53.5 -29.5t-26.5 -56.5q0 -66 82 -68q79 -2 99 46zM1098 907l-110 -149l-136 96l-80 -112l-172 117l110 149l144 -99l79 112z" />
    <glyph glyph-name="afii57443" unicode="&#x643;" horiz-adv-x="1610" 
d="M1556 381q0 -9 -1 -17h2q0 -421 -791 -421q-623 0 -623 363q0 115 80 273l159 -50q-46 -99 -46 -143q0 -91 68 -137q103 -69 374 -69h43q164 0 311 21q188 26 237 79q6 5 4 36.5t-3 53.5l-36 781l222 82v-852zM1059 797l-413 -105v78l104 42q-52 50 -52 102q0 61 50 111
t111 50q79 0 124 -42l-25 -65q-38 16 -102 16q-26 0 -54 -14q-33 -17 -33 -40q0 -70 123 -70q16 0 167 46v-109z" />
    </font>
</defs>
</svg>
