<?xml version="1.0" standalone="no"?>
<!DOCTYPE svg PUBLIC "-//W3C//DTD SVG 20010904//EN"
 "http://www.w3.org/TR/2001/REC-SVG-20010904/DTD/svg10.dtd">
<svg version="1.0" xmlns="http://www.w3.org/2000/svg"
 width="219.000000pt" height="161.000000pt" viewBox="0 0 219.000000 161.000000"
 preserveAspectRatio="xMidYMid meet">
<metadata>
Created by potrace 1.11, written by Peter Selinger 2001-2013
</metadata>
<g transform="translate(0.000000,161.000000) scale(0.100000,-0.100000)"
fill="#000000" stroke="none">
<path d="M1260 1587 c0 -23 4 -25 67 -32 92 -10 182 -39 286 -92 139 -72 261
-217 316 -377 20 -58 25 -97 29 -206 4 -133 3 -137 -32 -246 -20 -62 -43 -118
-52 -125 -8 -7 -24 -29 -34 -48 -22 -43 -126 -146 -193 -190 -26 -18 -87 -49
-135 -69 l-87 -37 -166 0 -165 0 -100 45 c-141 63 -217 122 -302 234 -28 37
-56 83 -62 102 -12 35 -17 38 -44 28 -12 -5 -13 -10 -3 -32 18 -42 68 -125 90
-149 l20 -23 -241 0 c-235 0 -242 -1 -242 -20 0 -19 7 -20 256 -20 l255 0 32
-30 32 -30 -392 0 c-386 0 -393 0 -393 -20 0 -20 7 -20 429 -20 400 0 430 -1
452 -18 23 -18 94 -47 169 -71 72 -22 164 -26 538 -23 368 4 382 5 382 23 0
18 -10 19 -217 19 l-218 0 33 20 c18 11 38 20 45 20 7 0 51 29 98 65 l84 64
198 1 c190 0 197 1 197 20 0 19 -7 20 -176 20 l-176 0 21 32 c42 64 109 204
130 272 25 81 27 188 7 321 -24 151 -99 290 -218 400 -136 126 -269 185 -475
212 -41 5 -43 4 -43 -20z"/>
<path d="M1144 1415 c-28 -7 -66 -20 -84 -29 -18 -9 -37 -16 -42 -16 -16 0
-121 -83 -168 -131 -47 -49 -110 -163 -129 -234 -72 -268 75 -557 337 -663 30
-12 91 -27 136 -34 106 -15 223 5 329 56 108 52 209 161 263 281 39 89 39 91
39 215 0 133 -3 146 -63 269 -50 102 -164 204 -287 259 -87 39 -235 51 -331
27z m305 -141 c42 -53 13 -145 -49 -158 -54 -10 -70 -7 -95 19 -61 60 -10 165
80 165 35 0 48 -5 64 -26z m-79 -234 c37 -37 36 -65 -10 -199 -23 -69 -51
-143 -61 -163 -42 -83 -13 -102 65 -41 38 29 49 34 56 23 6 -9 2 -25 -8 -43
-21 -35 -135 -128 -179 -146 -33 -14 -146 -12 -160 2 -20 21 10 183 44 236 21
33 81 213 76 229 -8 22 -34 13 -74 -28 -43 -43 -84 -55 -71 -21 12 34 98 116
149 143 62 34 143 38 173 8z"/>
<path d="M720 20 c0 -20 7 -20 435 -20 428 0 435 0 435 20 0 20 -7 20 -435 20
-428 0 -435 0 -435 -20z"/>
</g>
</svg>
